<svg xmlns="http://www.w3.org/2000/svg" xmlns:xlink="http://www.w3.org/1999/xlink" viewBox="0 0 1280 720"><defs><style>.cls-1{fill:none;}.cls-2{fill:url(#linear-gradient);}.cls-3{fill:url(#linear-gradient-2);}.cls-4{fill:#754c24;}.cls-5{fill:gray;}.cls-6{fill:#666;}.cls-7{fill:#333;}.cls-8{fill:#1a1a1a;}.cls-9{fill:#603813;}.cls-10{fill:#8c6239;}.cls-11{fill:url(#linear-gradient-3);}.cls-12{fill:url(#linear-gradient-4);}.cls-13{opacity:0.98;}.cls-14{isolation:isolate;}.cls-15{clip-path:url(#clip-path);}.cls-16{fill:#f04b50;}.cls-17{fill:#494037;}</style><linearGradient id="linear-gradient" x1="825.8" y1="-149.67" x2="567.47" y2="825.32" gradientUnits="userSpaceOnUse"><stop offset="0" stop-color="#81828e"/><stop offset="1" stop-color="#f9af56"/></linearGradient><linearGradient id="linear-gradient-2" x1="959.94" y1="1047.94" x2="718.26" y2="333.48" gradientUnits="userSpaceOnUse"><stop offset="0" stop-color="#5a522e"/><stop offset="1" stop-color="#a68550"/></linearGradient><linearGradient id="linear-gradient-3" x1="400.56" y1="3.67" x2="676.73" y2="61.03" gradientUnits="userSpaceOnUse"><stop offset="0.11" stop-color="#de5e4c"/><stop offset="0.18" stop-color="#e3694b"/><stop offset="0.38" stop-color="#ef8447"/><stop offset="0.58" stop-color="#f89745"/><stop offset="0.78" stop-color="#fda243"/><stop offset="1" stop-color="#ffa643"/></linearGradient><linearGradient id="linear-gradient-4" x1="-94.82" y1="10.45" x2="1107.84" y2="372.7" xlink:href="#linear-gradient-3"/><clipPath id="clip-path"><polygon class="cls-1" points="411.47 250.93 407.48 203.01 661.85 163.44 665.84 211.36 411.47 250.93"/></clipPath></defs><title>Artboard 1</title><g id="Baggrund"><polygon class="cls-2" points="1559.15 181.08 -14.11 405.66 -14.11 -78.25 1559.15 -78.25 1559.15 181.08"/><polygon class="cls-3" points="1559.15 806.71 -14.11 806.71 -14.11 405.66 1559.15 181.08 1559.15 806.71"/></g><g id="Scene"><path class="cls-4" d="M641.13-44.46A1401.88,1401.88,0,0,0,747.2,115.14a1403.31,1403.31,0,0,0,125.14,142q38.35,38,79.58,72.95c.73.62,1.8-.43,1.06-1.06A1400.78,1400.78,0,0,1,816.82,196.6,1400.44,1400.44,0,0,1,699,45.73Q669,1.36,642.43-45.22a.75.75,0,0,0-1.3.76Z"/><polygon class="cls-5" points="313.01 155.49 690.17 129.95 777.75 237.03 784.03 329.75 292.67 369.23 313.01 155.49"/><path class="cls-6" d="M282,352.27S474.83-140.18,757.82,266.1C757.82,266.1,554.59-3.77,282,352.27Z"/><rect class="cls-7" x="830.41" y="145.65" width="72.6" height="179.08" transform="translate(-17.17 76.26) rotate(-4.99)"/><polygon class="cls-8" points="838.34 327.55 765.44 307.76 750.15 132.6 822.76 149.15 838.34 327.55"/><ellipse cx="865.54" cy="211.95" rx="22.23" ry="39.07" transform="translate(-14.61 72.62) rotate(-4.76)"/><polygon class="cls-9" points="199.79 354.1 731.99 274.59 845.1 293.41 284.18 400.59 199.79 354.1"/><polyline class="cls-10" points="279.34 462.72 842.64 325.17 845.17 292.54 284.21 399.73"/><polygon class="cls-4" points="279.34 462.72 236.99 433.19 241.74 371.86 284.19 400.08 279.34 462.72"/><path class="cls-9" d="M269.8-53.53c-15.12,71.16-39.89,139.82-69.21,206.28-29.07,65.9-62.41,129.81-95.78,193.6-18,34.46-36.89,69.06-64.34,97-.68.69.38,1.75,1.06,1.06,24-24.5,41.62-54.15,57.68-84.26Q124.7,312.41,149.06,264c32.71-64.54,63.71-130.16,88.09-198.37a923,923,0,0,0,34.1-118.77c.2-.95-1.24-1.35-1.45-.4Z"/><path class="cls-9" d="M269.93-54.15c-31.25,66.09-67.14,129.93-105.3,192.26C125.2,202.5,83.21,265.31,39.37,326.78Q4.24,376.06-32.54,424.12c-.59.77.71,1.52,1.29.76q66.74-87.21,128-178.41c42.05-62.63,82.13-126.66,118.91-192.54C235.34,18.76,254-17,271.23-53.39c.41-.87-.88-1.63-1.3-.76Z"/><polygon points="750.48 134.25 835.95 127.12 895.26 143.69 822.94 149.72 750.48 134.25"/><path class="cls-11" d="M406.8,95.21s52.83-72.12,63.25-167.35c0,0,38.05,138.61,67.3,154.59Z"/><path class="cls-9" d="M471.45-71.79A540.71,540.71,0,0,1,340.81,30.35c-.84.47-.09,1.76.76,1.29A542.22,542.22,0,0,0,472.51-70.73c.66-.71-.39-1.77-1.06-1.06Z"/><path class="cls-9" d="M470.23-70.12c22.47,15.57,45.17,30.66,69.13,43.87a626,626,0,0,0,72,33.86c.9.36,1.29-1.1.4-1.45a624.3,624.3,0,0,1-73.24-34.6c-23.38-13-45.55-27.76-67.51-43-.8-.55-1.55.75-.76,1.3Z"/><path class="cls-12" d="M278.85,404.2S283.4,227,93.86,266.51c0,0,159.52-69.36,176.83-321.3,0,0,210,252.47,371.48,6,0,0,60.63,218.67,204.84,299.29,0,0-43.83,10.6-62.89,48.81C784.12,299.34,514.82-162.34,278.85,404.2Z"/><g class="cls-13"><g class="cls-14"><g class="cls-15"><path class="cls-16" d="M421.51,223.28l-.3-.39.4-1.14.21.4-.31,1.13m2.5-22.84c-4.07.63-1.81,6-6.35,7.79a19,19,0,0,1-3.66.89,34.69,34.69,0,0,1-5.28.41,3.29,3.29,0,0,0-.53,2.06,15.18,15.18,0,0,0,1.89,5.68,2.44,2.44,0,0,0,.91,0,3.81,3.81,0,0,0,1-.36,5.85,5.85,0,0,1,1.51-.45l.23,0,3.61-.43c-1.89,7.16-4,16.4-3.9,17.91a2.59,2.59,0,0,0,.45,1.22c.32,2.33.36,4.4,1.6,4.81l-.15.68a7.79,7.79,0,0,0,2.57,0,3.73,3.73,0,0,0,.46-.09c.35-2.77.94-6,1.63-9.25a1,1,0,0,0-.24,0c-.27,0-.44.26-.6.71l-.39-.25c.26-1.08.52-2.19.87-3.39.21.46,0,1.64.47,1.59h0c.32-.05.47-1.4.65-2.21a5.62,5.62,0,0,0-.39-1.72c.18-1,.14-2.33.64-2.51h0c.25,0-.12,1.17.39,1.17h0c.46-.07,1-2.51,1.14-3.78l-.43-.25A5.19,5.19,0,0,0,423,219c.74-3.91,1.2-4.76,2.76-5.19.23-.46.5-.78.85-.84h.13l0,.67.65-.08c3.71-2.62,7.82-2.62,10.56-3.67a1.46,1.46,0,0,1-.12-.48.41.41,0,0,1,.29-.45h0a1.15,1.15,0,0,1,.66.16l.11.32c.14-.38.28-.76.41-1.14a2.89,2.89,0,0,1,.06-2.71c-.74-2.1-2.42-3-4.46-3.42-2.11.6-5.48,2-8.49,3.18l-2.31-5-.17,0"/><path class="cls-16" d="M451.88,231.15c-.08,0-.17.12-.23.26l-.61,1.41.09.66c0,.08,0,.12.08.12s.11-.08.15-.21l.76-2-.15-.16a.12.12,0,0,0-.09,0m-6.57-2-.37,2.47c.09,0,.71-.63.89-2.29l-.52-.18m-15.2-.73a.2.2,0,0,0-.11.1,6.22,6.22,0,0,0-.94,1.38l.86-.34.22-.94c.05-.15,0-.21,0-.2m19.13,9.32-.31-.45.39-1.26a.64.64,0,0,1,.58-.44l-.66,2.15m-9.83-9.6L439,228c.18-.81.41-1.68.82-1.74h0l-.4,1.87m12.48,1.08,1.61-5.05a.68.68,0,0,1,.48-.43.17.17,0,0,1,.1,0L453,227.17c-.23.82-.58,1.9-1.14,2m-8.95-30.86c-.52.08-.38.36-.55.55a90,90,0,0,1-3,9.44c-.13.38-.27.76-.41,1.14-.74,2.06-1.49,4.13-2.15,6.12-.71,2.15-.81,5-1.53,7-.27.88-.62,1.35-.84,2.29l-2.6,1.77.78.45c-.81.65-1.76,1-2.2,2.27l.47-.07.67-.11.61-.1a7,7,0,0,1,2-.1c-.27,4.77-1.66,7.18,1.26,9.21l-.19.75c.19,0,.34.15.52.13l.23,0,.14-.07.09-.07c.6.66.87,1.29,1.85,1.18.29-2.84,1.34-10.13,2.05-13,.22-.93.53-1.68,1.25-1.79h0a.75.75,0,0,1,.63.36h0c.25,0,1.28-.34,2.4-.64s2.34-.63,2.95-.72l.11,0,.26.52c-1.19,3.48-2.9,9.21-2.68,12.84.17,2.66,3.05,4.69,4.35,5.51h0c.69-.11,1.19-3.49,1.78-5.25.43-1.34,1.15-3.24.52-3.6-.69,2.37-1.3,4-1.71,4.09q-.13,0-.24-.21c-.05-.79.56-1.46.84-2.23-.08-.59-.58-2-.22-2.89s.65-1.66.81-2.1a1.28,1.28,0,0,1,.65-.71s.07,0,.09,0l.53.18c1.6-3.6,2.08-7.18,3.36-10.8h-.08c-.39.06-.74.56-.92,1.14l-.47,1.58c-.08.27-.2.37-.3.39a.2.2,0,0,1-.2-.27c.34-1.19.81-2.65,1.1-3.41s.82-1.46,1.38-1.54a.53.53,0,0,1,.25,0c.59-1.71,1.9-4.12,1.46-5.22,1-.91,1.38-2.59,1.42-4.3.7-.81.73-2.46.65-3.85-.14-2.29-.93-5.3-2.55-5.1h0a1.27,1.27,0,0,0-1,.84c-1.81,5.56-3.3,11.15-5.89,16.13a6.6,6.6,0,0,0-2.26-.39c-.2,0-.4,0-.6.08a5.27,5.27,0,0,0-4.23,2.73l-.95.47a3.7,3.7,0,0,1,1.26-3c.81-2.77,2.3-5.92,2.65-7.91l.33,0a20.82,20.82,0,0,0-.08-6.61c-1.44-1.48-1.37-3.37-3.83-3.08h-.07"/><path class="cls-16" d="M478.42,225.24a.22.22,0,0,0-.1.06,33.5,33.5,0,0,1-5.84,3.11.85.85,0,0,0,.94.44A5.07,5.07,0,0,0,475.9,227l.27,0a3.33,3.33,0,0,0,2.3-1.49c.07-.15,0-.29-.05-.28m-14,3.93c-.39-.32-.39-1.1-.27-2.21l.4.55-.13,1.66m.24-2.94-.35-.51.37-2.29.46-.12-.48,2.92m.09-3.24,0-.66c.05-.56.18-.92.66-1l.16,0a8.2,8.2,0,0,1-.74,1.67h0m2.11-9.06c.1-.67.64-1.58,1-1.63h0l-.38,1.44-.59.19m1.2-2.51.68-1.78.59-.26-.68,1.78-.59.26M479,202.85l-.19-.72a.82.82,0,0,1,.29-.08c.3-.05.66,0,.7.21l-.8.59m-8.48-7.7c-.77.12-1.41,1.27-2.13,2.42s-1.5,2.3-2.55,2.47l-.32,0a7.19,7.19,0,0,0-.37,4.66c-2.82,9.63-5.32,15.46-5.14,19.94.36,8.83,4.4,11.58,9.82,10.94l.27,0c2.8-.43,6.44-2.62,9.26-4.43a2.69,2.69,0,0,0,1.22-1.47c.12-.38.06-.46,0-.44a.58.58,0,0,0-.21.1c-2.21,1.29-4.69,2.73-6.5,3.62a4,4,0,0,1-1.1.34,2.57,2.57,0,0,1-1.5-.16c2.54-1.15,5.35-2.51,7.61-3.81.13-.07.22-.2.07-.25-.33-.2-.87-.56-1.17-.77l3.07-1.89c.35-.28,1-.78.91-1.08,0-.09-.09-.11-.17-.1a.59.59,0,0,0-.2.09c-2.26,1.24-5.73,3.23-8.68,4.66a.43.43,0,0,1-.13.05c-.27,0-.49-.22-.71-.49s-.46-.52-.76-.47h0a.9.9,0,0,1-.68.81h0l-.31-.57a10.32,10.32,0,0,1-2.39.78,3.19,3.19,0,0,1-2.59-.57c0-1.39.62-8.15,1.79-9,2.23-1.6,9.06-3.86,11.84-4.8l.25-1.37a1.32,1.32,0,0,1-.61-1.51c-1.1-2-1.55-2.6-2.9-2.45h-.05c-1.38.21-5,2.66-6.86,3.11.69-1.72,1.25-3.18,1.7-4.33,4-2,8.29-2.67,12.35-5.65.44-.54,1.26-1,1.12-1.58,0-.11-.05-.15-.1-.14s-.27.27-.39.38c-1.26.93-2.39,1.49-3.73,2.38-.44-1.77.94-.6,2.66-3a.14.14,0,0,0-.11-.23,22.92,22.92,0,0,0-2.31-.46h0a1.78,1.78,0,0,0-.65.26,1.3,1.3,0,0,1-.43.23h0l-.49-1.1a18.84,18.84,0,0,1-4.07-.07,10.58,10.58,0,0,0,.57-4.44,17.11,17.11,0,0,0-4-.68h0"/><path class="cls-16" d="M521.06,213.33l-.3-.32.54-1.16.25.28-.49,1.2m.73-1.78-.3-.39.37-.84c.34.33.18.65-.07,1.23m1.48-3.28c0-.61.12-2.2.93-2.33a.93.93,0,0,1,.62.15l-1.5,2.18h-.05M505.85,205l1-2.62c.32.58-.14,1.61-.55,2.44l-.5.18M527.59,201l-.13-.6,2.4-2.89c0,1.09-1.09,2.07-2.27,3.49m2.7-3.24-.12-.53.87-1c.1.9-.31,1-.75,1.49m-37.16-1.47-.57.68c.19,6.24.17,13.48.73,19.67.48,5.6,1.41,10.23,3.34,12.68a.42.42,0,0,1,.36-.35h0c.42-.05,1.67,2.11,2.18,2h0c.61-.1,4.11-9.24,6.24-13.25,1.12,1.38,2.22,5.08,2.9,6.16l1.45,2.32.25-.46c1,1,1.52,3.53,2.17,3.46h0c1.68-.27,5-7.84,6.83-11-.42-.74-.09-1.51.36-2.6.36-.88.73-1.77,1.15-1.83a.33.33,0,0,1,.28.09c-.32.83-.78,1.67-.3,1.92,1.06-2.5,2.63-4.38,2-6.81l.74.7c1.54-2.25,5-7.76,7.14-10.81l.14,0c1.15-.18,2.07-1.28,2.93-2.51a7.82,7.82,0,0,1-.16-1.81l-.2.24c-.39.51-.77,1-1.15,1.06h0l-.38-.14a5.78,5.78,0,0,0,1.22-2.08l-2-.2c-.17-.52-.67-1-1-1l-2,2.36c-.57-.18-.23-.82.16-1.42l-.24,0a12.34,12.34,0,0,0-1.84.46c-5,1.55-13.25,22-14.52,22.2h0c-.73.08-1.53-1.53-2.52-1.54,1.48-2.66,2.16-6.81,3.61-9.84l-1.47-5c-.48-1.59-1.83-3-2.8-2.9h0c-.85.14-.63,2.45-1.07,3.54L505,205.31l-1,.61-5.88,12.49c-1.86-1.55.76-9.09-.26-13.47-.62-2.66-2.46-7.55-4.72-8.69"/><path class="cls-16" d="M546.89,217.19a.19.19,0,0,0-.1.05,35.21,35.21,0,0,1-5.83,3.12.84.84,0,0,0,.93.43,5,5,0,0,0,2.48-1.81l.27,0a3.33,3.33,0,0,0,2.31-1.5c.06-.15,0-.29-.06-.27m-14,3.93c-.39-.32-.39-1.11-.27-2.22l.41.56-.14,1.66m.25-2.94-.36-.51.37-2.29.46-.12-.47,2.92m.08-3.24,0-.66c0-.55.18-.92.65-1H534a8.13,8.13,0,0,1-.75,1.66h0m2.11-9.06c.1-.68.64-1.59,1-1.64h0l-.37,1.45-.6.19m1.2-2.51.68-1.79.59-.25-.67,1.78-.6.26m10.87-8.58-.18-.71a1.1,1.1,0,0,1,.29-.09c.3-.05.65,0,.7.22l-.81.58M539,187.1c-.77.12-1.41,1.25-2.13,2.41s-1.49,2.3-2.54,2.47a1.69,1.69,0,0,1-.32,0,6.84,6.84,0,0,0-.59,2.58,7.82,7.82,0,0,0,.16,1.81l.06.28c-2.83,9.63-5.32,15.46-5.15,19.94.36,8.84,4.4,11.58,9.82,11l.25,0c2.8-.43,6.45-2.62,9.29-4.43a2.64,2.64,0,0,0,1.21-1.49c.12-.36.06-.44,0-.43a1,1,0,0,0-.21.1c-2.2,1.3-4.68,2.74-6.5,3.63a4,4,0,0,1-1.1.33,2.56,2.56,0,0,1-1.5-.15c2.54-1.15,5.35-2.52,7.61-3.81.13-.08.22-.22.08-.26-.34-.2-.88-.56-1.17-.78l3.06-1.87c.36-.29,1-.79.92-1.08a.15.15,0,0,0-.17-.11,1,1,0,0,0-.21.1c-2.26,1.23-5.73,3.22-8.68,4.66a.38.38,0,0,1-.13,0c-.27,0-.48-.22-.7-.48s-.46-.52-.76-.47h0a.89.89,0,0,1-.69.81h0l-.32-.57a9.86,9.86,0,0,1-2.39.78,3.19,3.19,0,0,1-2.59-.56c0-1.39.62-8.15,1.79-9,2.24-1.61,9.06-3.86,11.85-4.8l.24-1.37a1.31,1.31,0,0,1-.6-1.51c-1.11-2.05-1.56-2.61-2.91-2.45h-.05c-1.39.22-5,2.67-6.86,3.12.7-1.72,1.25-3.18,1.7-4.33,4-2,8.29-2.68,12.36-5.65.43-.54,1.25-1,1.12-1.59,0-.1-.06-.14-.1-.13s-.28.27-.4.37c-1.25.94-2.39,1.5-3.73,2.38-.44-1.77.94-.6,2.67-3a.15.15,0,0,0-.11-.24c-.66,0-1.81-.51-2.32-.45h0a1.9,1.9,0,0,0-.65.27,2,2,0,0,1-.44.22h0l-.49-1.09a21.67,21.67,0,0,1-4.06-.07,10.79,10.79,0,0,0,.57-4.45,17.84,17.84,0,0,0-4-.68h0"/><path class="cls-16" d="M569,214.59a.19.19,0,0,0-.1,0,34.08,34.08,0,0,1-5.83,3.11.84.84,0,0,0,.93.44,5.13,5.13,0,0,0,2.49-1.81l.28,0a3.29,3.29,0,0,0,2.29-1.49c.07-.15,0-.29-.06-.27m-14,3.93c-.4-.32-.39-1.12-.28-2.22l.41.56-.13,1.66m.24-3-.36-.51.38-2.29.45-.11-.47,2.91m.08-3.23,0-.66c0-.56.19-.93.67-1l.15,0a7.75,7.75,0,0,1-.73,1.68h0m2.11-9.06c.1-.68.64-1.58,1-1.63h0l-.38,1.45-.6.19m1.2-2.51.69-1.79.59-.25-.69,1.78-.59.26m10.87-8.58-.18-.71a1.07,1.07,0,0,1,.3-.09c.29,0,.64,0,.69.22l-.81.58m-8.48-7.7c-.77.12-1.41,1.27-2.12,2.41s-1.51,2.31-2.56,2.48l-.32,0a7.33,7.33,0,0,0-.37,4.66c-2.82,9.64-5.31,15.46-5.13,19.93.35,8.85,4.39,11.59,9.82,10.95l.26,0c2.8-.43,6.44-2.62,9.27-4.42a2.71,2.71,0,0,0,1.22-1.48c.12-.37.06-.45,0-.43a.67.67,0,0,0-.21.09c-2.21,1.3-4.69,2.74-6.51,3.62a4,4,0,0,1-1.11.35,2.62,2.62,0,0,1-1.49-.16c2.54-1.16,5.36-2.52,7.61-3.82.14-.07.22-.2.08-.25-.34-.21-.88-.57-1.17-.77l3.06-1.88c.36-.28,1-.8.92-1.09a.13.13,0,0,0-.17-.09.6.6,0,0,0-.21.08c-2.26,1.24-5.73,3.23-8.68,4.67l-.13.05c-.27,0-.47-.23-.69-.49s-.46-.52-.76-.48l-.06,0a.92.92,0,0,1-.69.81h0l-.31-.57a9.53,9.53,0,0,1-2.4.78,3.16,3.16,0,0,1-2.58-.56c0-1.4.62-8.16,1.78-9,2.24-1.59,9.06-3.86,11.85-4.79l.25-1.37a1.33,1.33,0,0,1-.61-1.51c-1.11-2.06-1.56-2.61-2.9-2.45h-.06c-1.39.21-5,2.66-6.85,3.11.69-1.72,1.25-3.19,1.7-4.34,4-2,8.29-2.67,12.35-5.64.44-.54,1.25-1,1.12-1.59,0-.11-.05-.14-.1-.13s-.27.27-.4.37c-1.25.93-2.38,1.5-3.73,2.38-.44-1.77.94-.59,2.67-3a.14.14,0,0,0-.11-.23c-.66,0-1.8-.51-2.32-.45h0a1.78,1.78,0,0,0-.65.26,1.75,1.75,0,0,1-.43.22h0l-.49-1.1a21,21,0,0,1-4.07-.06,10.58,10.58,0,0,0,.57-4.44,17.09,17.09,0,0,0-4-.69h0"/><path class="cls-16" d="M600.88,216.1l-.06.49a1.21,1.21,0,0,0,1,.22.77.77,0,0,0,.55-.27l-1.48-.44m-1.72-.64c-.08.25.48.91,1.18.89l.06-.5-1.24-.39M597,213.1l-.25.51a4.92,4.92,0,0,0,2.58,1,.36.36,0,0,0,.32-.24L597,213.1m.44-15.8c-.66.56-1.05,1.09-1,1.4l1.29-.95-.26-.45m-20.59,20c-.34-.32,0-1.82.15-2.21l.39.32-.54,1.89m1.78-6.1-.6.06.84-2.16c.16-.41.46-.84.79-.89h.1l-1.13,3m6.94-6.7c-.17,0-.3-.06-.32-.35l.67-.51.22.53a1.33,1.33,0,0,1-.57.33m.93-.67-.09-.6,1.38-1c.15.78-.85,1.26-1.29,1.62m3.57-2.74a2.21,2.21,0,0,1-.61,0l2.19-1.59a2.21,2.21,0,0,1-1.58,1.64m12.59-13.21c-.16-.35.22-1,.39-1.2l.28.69-.67.51m-19.3-6.21-.22.05c-3.48,9.47-7.93,20.81-10.52,32.07l.44.36a15.83,15.83,0,0,0-.72,6.48,1.13,1.13,0,0,1,.66.1,1.9,1.9,0,0,0,.27,1.43l.33-.77a4,4,0,0,1,.28,1.43,3.17,3.17,0,0,0,2.58.91,65.65,65.65,0,0,1,1.69-8.83c-1-.31-.77-1.92-.26-2.89l.51-.06c-.28.88-.08,1.11.21,1.25a45.57,45.57,0,0,1,1.76-4.83c4.42,2.7,8.2,5.79,11.86,8.4l.06-.68c2.57,1.64,6.52,4.4,8.56,4.16.34,0,.76-.09,1.2-.16a20.3,20.3,0,0,0,2.77-.61,2.83,2.83,0,0,0-2-.68c-2.68.31-3.8-2.59-5.55-3.78a3.67,3.67,0,0,1-.52.14,2,2,0,0,1-1.86-.84l.52-.67c-1.07-.72-1.56-.42-2.9-1.6a.85.85,0,0,0,.21-.52c-.09-.59-1.32-.81-1.94-1.16l.3-.35a68.24,68.24,0,0,1-5.08-5.11c.46-.3,8.07-5.75,8.24-5.77.38-.05.37.5,1,.43h0c.19,0,.62-.17.77-1.06a1.76,1.76,0,0,1-.74.37.44.44,0,0,1-.46-.16,18.94,18.94,0,0,0,3-2.85l.74.58c.57-1.21,1.25-2.08,1.63-2.14h0c.65-.07-.33.7.32.63h0a13.68,13.68,0,0,0,1.21-1.62,4.14,4.14,0,0,1,2.15-1.76l.22,0-.2-3.14-.15,0-.11,0c-.13,0-.25,0-.44-.22l.92-.78c-.8-1.73-1.8-2.82-2.5-2.74h0a10.07,10.07,0,0,0-2.58,1.83,8.77,8.77,0,0,1-2.84,1.85h-.08c.34.38.14.82-.18.87h0c-.13,0-.27,0-.62-.29a1.54,1.54,0,0,1-.7,1.48l-.21-.34c-3.49,2.42-6.56,5-10.13,7.69-.72-.94,3-7.94,2.87-9.63s-1.35-6.89-3.82-6.51"/><path class="cls-16" d="M628.2,202.14c-.39.06-.37,1.05-.37,1.8l.44.31.11-2.08a.31.31,0,0,0-.18,0m2.37-10c-.48-.24.19-1.59.51-2.37,0,0,0-.05.07-.05s.35.22.28.38l-.86,2m.76-2.94.83-1.68c.05-.09.1-.13.15-.14s.26.3.19.4l-.73,1.67c-.06-.2-.14-.31-.33-.28l-.11,0m-18.64-.93a.38.38,0,0,1-.34-.12l.93-1.51.4.32c-.24.37-.57,1.25-1,1.31m22.81-5.64-.13-.53.84-1c.15.9-.27,1-.71,1.49m-5.09.79c-.16,0-.29-.17-.34-.27a4.94,4.94,0,0,1,.71-1.37l.38.2-.7,1.42-.05,0m3.34-4.24a4.68,4.68,0,0,0-2.36,1.08A84.63,84.63,0,0,0,624.92,193l-.28-.21c-.11,0,.06-.43.42-1.38a69.55,69.55,0,0,1,5.41-10.86l-1,.3c-1,.6-5.09,10-7.8,17.51-.62-2.42-1.41-6.15-2.07-7.9-.79-2.15-4.78-4.79-6.21-5.28-3.37,5.31-8.27,12.22-10.93,23a7.2,7.2,0,0,0-.29,3.73l.44,2.63c.58.29,1.57,4.25,2.92,4.09l1.29-.15c1.87-3.87,3.48-12,5.45-17.9l-.19-1c1-3,2.54-5,3.94-5.75l.37,2.33c.47,3.05-.49,5,.88,9.07.41,1.3.2,4.06.44,5.6.66,4,1,5.48,4.06,6.16l.23-.88,2.16,1c1.18-5.12,2.47-10.14,3.34-14.93.11-.56.78-1,.76-1.35.22-.89.08-1.66.29-2.23,1-2.42,1.87-3.69,1.83-5.87a.2.2,0,0,1,.11-.06.43.43,0,0,1,.23.08.32.32,0,0,0,.21.09c.07,0,.13-.06.2-.2a33.74,33.74,0,0,1,8.48-10.9l-1.41-1.67a4,4,0,0,1-1.43.79h0l-.11-.24.88-.95a5.12,5.12,0,0,0-3.82-.53"/><path class="cls-16" d="M643,210.61l0-.61,1.37-1.2-.18.75L643,210.61m2-1.58V209a12.53,12.53,0,0,1,2.11-2.81v.06a.87.87,0,0,0,.15,1L645,209m3.88-3.73a1.66,1.66,0,0,0,.45-1.09c1.41-1.38,3-2.78,3.93-3.75a4.89,4.89,0,0,1,2.35-1.67h.07v.06c-2,2-4.52,4.85-7,7.27a2.08,2.08,0,0,0-1.09-.29,1.51,1.51,0,0,1,.86-.7.48.48,0,0,1,.46.18m7.07-7.05a.77.77,0,0,1-.55-.17l1.46-1.27.43.14-.91,1a.73.73,0,0,1-.43.28m5.17-5.94-.61-.12.34-.58.6.11-.33.59m-15.84.58v-.06c.26-.45.61-.68.78-1l-.06-1.88c2.33-1.26,4.88-4.6,11.93-5.7l1-.14c.39,2-1.47,5.95-2.73,6.15a.57.57,0,0,1-.26,0c-1.46,2.64-2.28,3.71-2.75,3.79h0c-.09,0-.28,0-.49-.43l-.4.41.34.81c-.34-.08-.52,0-.72-.28-2.16,2.87-5.8,5.24-7.39,6.77.09-2.32.92-4.12.88-5.52a3.31,3.31,0,0,0-.4-1.22v-.06a1.31,1.31,0,0,0,.62.29h0c.17,0,.27-.57.24-1.08s-.13-1-.37-1a.4.4,0,0,0-.22.17m1.26-20.45c-2.4.37-2.17,6.54-4.15,9.84l-.49-.36c-1.15,1-3.38,2-3.33,3.61s1.83,2.4,1.89,4.1c.05,2.36-1.27,4.58-1.75,7.37l.24.89a59.19,59.19,0,0,1-1.21,7,3.11,3.11,0,0,1-1.33,2l-1.11.8A11.35,11.35,0,0,1,635,210c1.12,1.62,2.3,5.56,5.12,5.23l.12,0A5,5,0,0,0,641,215a4.31,4.31,0,0,1,.73-.22,1.39,1.39,0,0,1,.93.16l.21-3.37a77.66,77.66,0,0,0,15.81-15.72l-.85-.15c.87-1.08,1.56-1.95,1.82-2.34a1,1,0,0,1,.67-.44.9.9,0,0,1,.33,0l-.64,1.05h.13a1.81,1.81,0,0,0,1.08-.81,35.87,35.87,0,0,0,2.61-5.47c-.39-2.57-.9-7.19-5.27-8.38-1.05-.3-2.33,0-2.83-.39a1.22,1.22,0,0,1-.88.86c-.3,0-.51-.15-.32-.72a9.85,9.85,0,0,0-2.15.11c-.62.1-1.18.23-1.71.36s-1,.26-1.48.33l-.31,0a11.62,11.62,0,0,0,.21-3.43c-.27-.75-2.16-4.12-2.58-4.07h-.06"/></g></g></g><path class="cls-17" d="M284,403.18l.26-3.45,6.24-1.19L320.68,377q-3.72,8.46-7.4,17.23l4.63-.89c62.26-147.41,132.45-228.23,208.66-240.22l-.06-.38.51.24,13.36-28.83q6.52-.24,13.09.08l17.47,28.3-.23,1.24,1.14.22,0,.06.06,0c81.48,15.62,150.26,103.41,184.63,155.51l3-.58,1-.19.08-.06c-2.37-3.61-5-7.47-7.73-11.5l17.6-15.21c7.58,11.16,11.73,18.22,11.84,18.4h0l2.35,3.76,4.13-.79-3.37-5.4c-2.87-4.8-29.79-49.15-71.84-91.92-26.06-26.51-52.75-47.24-79.32-61.63-33.34-18-66.6-26.1-98.86-23.94-96,6.41-182.93,101.64-258.49,283l2.06.86,1.11,1.55ZM625.29,169.94l34.64.38-17.08,10.49Q634.06,174.84,625.29,169.94Zm103.76,94.62L741.44,252l-4,23.38C734.73,271.86,731.94,268.22,729.05,264.56Zm21.7,29.33c-2.76-4-5.67-8.06-8.77-12.29l23.87-.77Zm16.35-17-26.1.84,5-29.13C754.39,259.09,761.47,268.78,767.1,276.86Zm-24.35-32.37-.14.79-14.44,14.59-3.52-36.54C731.16,230.54,737.21,237.66,742.75,244.49Zm-18.68,13.82c-5.38-6.65-11.07-13.38-17.06-20.06l13.82-13.66Zm-19.71-23c-4.72-5.18-9.6-10.32-14.65-15.35l30,.21Zm6.49-26.69q3.74,3.81,7.31,7.62l-29.85-.21,8.35-21.2Q703.79,201.49,710.85,208.66ZM684.53,215c-.42-.4-.82-.81-1.24-1.2q-6-5.73-12-11l21.33-8.22ZM692,190.59l-22.25,8.57-1.08-27.89Q680.34,180.14,692,190.59Zm-26.22,7.51q-9.69-8.07-19.37-14.85L664.74,172Zm-3.67-31.68L624.79,166l16.49-13.23Q651.69,159,662.08,166.42Zm-29.61-18.65q2.6,1.41,5.19,2.89L620.3,164.57l-8.16-26.52A224.73,224.73,0,0,1,632.47,147.77ZM616.4,165.23a179.23,179.23,0,0,0-30.32-11.92l21.8-15.77Zm-11.81-30.15L581.21,152c-2.32-.58-4.62-1.11-6.93-1.58l-16-25.9A173.33,173.33,0,0,1,604.59,135.08ZM324.28,368.84l-19-12,26.8-5Q328.17,360.19,324.28,368.84Zm11.52-24.7-8.75-28.22,17.24,11.16Q340,335.42,335.8,344.14Zm11.61-23.09-3.05-37.56L361.67,295Q354.49,307.51,347.41,321.05Zm71.12-106.22-20-6.67,35.63-9.38Q426.27,206.27,418.53,214.83Zm85.52-60.3-7.2-18,25.56,13.26A139.09,139.09,0,0,0,504.05,154.53Zm31.73-30.22H536L525.46,147l-28.65-14.86A154.54,154.54,0,0,1,535.78,124.31Zm-35.45,31.51a156.17,156.17,0,0,0-17.46,7.6l9.86-26.61Zm-11.06-21L477.65,166.2l-.17.1L451.39,155A192.53,192.53,0,0,1,489.27,134.84Zm-16,33.89a208.06,208.06,0,0,0-29,20.94l5.22-31.29Zm-27.92-9.52-5.44,32.63L419.18,181A268.1,268.1,0,0,1,445.31,159.21Zm-29.13,24.6L436,194.23l-39.6,10.42Q406.19,193.46,416.18,183.81Zm-.5,34.21q-8.85,10-17.54,21.49l-3.95-28.65Zm-25.33-6.31,4.22,30.61-25.4-3.18Q379.66,224.5,390.35,211.71Zm2.89,34.4q-6,8.26-12,17.21L368.43,243ZM365,245l13,20.63L346,274.17Q355.44,258.8,365,245Zm11.86,25q-6.67,10.38-13.25,21.63L344.26,278.7Zm-36.48,13.47,3.12,38.44-18.17-11.75Q332.84,296.3,340.42,283.47ZM322.7,315.15l10.12,32.61-29.16,5.4Q313.08,333.3,322.7,315.15ZM301,358.79l20.35,12.85-38.14,27.24Q292,378,301,358.79Z"/><rect class="cls-7" x="187.86" y="238.07" width="92.43" height="227.97" transform="translate(-29.73 21.69) rotate(-4.99)"/><polygon class="cls-8" points="197.96 469.63 105.17 444.44 85.7 221.46 178.14 242.52 197.96 469.63"/><ellipse cx="232.59" cy="322.47" rx="28.31" ry="49.74" transform="translate(-25.98 20.43) rotate(-4.76)"/><polygon points="86.11 223.55 194.92 214.49 270.42 235.58 178.35 243.25 86.11 223.55"/></g></svg>
