<?xml version="1.0" encoding="utf-8"?>
<!-- Generator: Adobe Illustrator 22.1.0, SVG Export Plug-In . SVG Version: 6.00 Build 0)  -->
<svg version="1.1" id="Layer_1" xmlns="http://www.w3.org/2000/svg" xmlns:xlink="http://www.w3.org/1999/xlink" x="0px" y="0px"
	 viewBox="0 0 1280 720" style="enable-background:new 0 0 1280 720;" xml:space="preserve">
<style type="text/css">
	.st0{fill:url(#SVGID_1_);}
	.st1{fill:url(#SVGID_2_);}
	.st2{fill:#728387;}
	.st3{fill:#042304;}
	.st4{fill:#754C24;}
	.st5{fill:#808080;}
	.st6{fill:#666666;}
	.st7{fill:#333333;}
	.st8{fill:#1A1A1A;}
	.st9{fill:#603813;}
	.st10{fill:#8C6239;}
	.st11{fill:url(#SVGID_3_);}
	.st12{fill:url(#SVGID_4_);}
	.st13{opacity:0.98;}
	.st14{clip-path:url(#SVGID_6_);}
	.st15{fill:#F04B50;}
	.st16{fill:#494037;}
</style>
<title>Artboard 1</title>
<g id="Baggrund">

		<linearGradient id="SVGID_1_" gradientUnits="userSpaceOnUse" x1="825.7989" y1="868.9463" x2="567.4688" y2="-106.0437" gradientTransform="matrix(1 0 0 -1 0 719.276)">
		<stop  offset="0" style="stop-color:#81828E"/>
		<stop  offset="1" style="stop-color:#F9AF56"/>
	</linearGradient>
	<polygon class="st0" points="1559.2,181.1 -14.1,405.7 -14.1,-78.2 1559.2,-78.2 	"/>

		<linearGradient id="SVGID_2_" gradientUnits="userSpaceOnUse" x1="959.9369" y1="-328.665" x2="718.2569" y2="385.7949" gradientTransform="matrix(1 0 0 -1 0 719.276)">
		<stop  offset="0" style="stop-color:#5A522E"/>
		<stop  offset="1" style="stop-color:#A68550"/>
	</linearGradient>
	<polygon class="st1" points="1559.2,806.7 -14.1,806.7 -14.1,405.7 1559.2,181.1 	"/>
</g>
<path class="st2" d="M-17,90.9c-18.8,42.3-37.9,97.4-16.2,118.4C-5,236.5,66.9,181.9,167,151c139.9-43.2,173,25.6,457.4,14.2
	c104.4-4.2,228.7,7.5,328.2-14.2s228.7-10.9,273.5-20.9c32.6-7.3,78.5-17.3,77.8-24.4c-0.3-3.7-12.6-4.9-23.1-6.5
	c-48.1-7.3-72.6-24.2-98.7-33c-61.2-20.8-92.7,15.4-180.9,15.2c-61.3-0.1-99.2-17.8-139.2-30.3C616.2-26,336.9,101.8,170.8,76.6
	c-10.7-1.6-49.1-8.2-100-3.6C34.6,76.2,4.7,83.9-17,90.9z"/>
<path class="st3" d="M0.3,204.9c0,0,25.3-53.2,56-51.9c30.6,1.2,24-27.8,24-27.8l29.3,20.5c0,0,2.7-24.2,22.7-24.2
	s29.3,10.9,29.3,10.9l29.3-49.5c0,0,25.3,12.1,33.3,18.1c8,6,16.8,17,16.8,17s-45.5,99.1-81.7,116.3L88,240
	c3.6,50.5,7.2,100.9,10.8,151.4c-33,4.4-66.1,8.9-99.1,13.3C-0.1,338.1,0.1,271.5,0.3,204.9z"/>
<path class="st3" d="M731.6,132.2c0,0,54.3-41.2,72.1-34.9c17.8,6.3,49.6,20.9,49.6,20.9s16.8-14.7,25.3-14.7s23.4,9.1,23.4,9.1
	s3.7-32.1,25.3-27.9c12.7,2.5,23.4-0.1,35.7,3.3C974.2,91,982.6,95,988,98c29.2,7.4,41.3,17.7,46.8,25.8c5.5,8.1,8.5,19.7,13.9,19.6
	c2.7-0.1,4.7-3,5.8-4.9c9.4-16.7,24.3-25.8,24.3-25.8c19.3,0,31.6,3.9,39.3,7.7c14.5,7,29,20.9,29,20.9l0,0c0,0,11.3-21,29-25.1
	c13.2-3.1,19.9,5.6,35.6,5.6c11.3,0,27-4.7,45.9-25.1l22.5,19.5l-0.9,117.2l-372.5,39.8c-3.8-32.4-7.7-64.8-11.5-97.1
	c-19.7-3.9-39.4-7.8-59.1-11.7c-28.5,1.8-57,3.5-85.5,5.3c0.7,7.2,1.4,14.5,2.2,21.7c-7.9-6.2-16.4-13.6-24.8-22.2
	c-11.1-11.4-19.4-22.3-25.6-31.9C712,135.6,721.8,133.9,731.6,132.2z"/>
<g id="Scene">
	<path class="st4" d="M641.1-44.5c31.7,55.6,67.1,108.9,106.1,159.6c38.5,50.1,80.3,97.5,125.1,142c25.6,25.3,52.1,49.6,79.6,73
		c0.7,0.6,1.8-0.4,1.1-1.1c-48.3-41-93.8-85.3-136.2-132.4c-42.7-47.5-82-98-117.8-150.9c-20-29.6-38.9-59.9-56.6-90.9
		c-0.2-0.4-0.7-0.5-1-0.3C641-45.3,640.9-44.8,641.1-44.5C641.1-44.5,641.1-44.5,641.1-44.5z"/>
	<polygon class="st5" points="313,155.5 690.2,129.9 777.8,237 784,329.8 292.7,369.2 	"/>
	<path class="st6" d="M282,352.3c0,0,192.8-492.4,475.8-86.2C757.8,266.1,554.6-3.8,282,352.3z"/>

		<rect x="830.4" y="145.6" transform="matrix(0.9962 -8.698187e-02 8.698187e-02 0.9962 -17.1706 76.2796)" class="st7" width="72.6" height="179.1"/>
	<polygon class="st8" points="838.3,327.5 765.4,307.8 750.2,132.6 822.8,149.1 	"/>
	<ellipse transform="matrix(0.9966 -8.298215e-02 8.298215e-02 0.9966 -14.6082 72.555)" cx="865.5" cy="212" rx="22.2" ry="39.1"/>
	<polygon class="st9" points="199.8,354.1 732,274.6 845.1,293.4 284.2,400.6 	"/>
	<polyline class="st10" points="279.3,462.7 842.6,325.2 845.2,292.5 284.2,399.7 	"/>
	<polygon class="st4" points="279.3,462.7 237,433.2 241.7,371.9 284.2,400.1 	"/>
	<path class="st9" d="M269.8-53.5c-15.1,71.2-39.9,139.8-69.2,206.3c-29.1,65.9-62.4,129.8-95.8,193.6c-18,34.5-36.9,69.1-64.3,97
		c-0.7,0.7,0.4,1.8,1.1,1.1c24-24.5,41.6-54.1,57.7-84.3c17-31.8,33.6-63.9,49.8-96.1c32.7-64.5,63.7-130.2,88.1-198.4
		c14-38.8,25.4-78.5,34.1-118.8C271.5-54.1,270-54.5,269.8-53.5L269.8-53.5z"/>
	<path class="st9" d="M269.9-54.2c-31.2,66.1-67.1,129.9-105.3,192.3c-39.4,64.4-81.4,127.2-125.3,188.7
		C15.9,359.6-8,392.1-32.5,424.1c-0.6,0.8,0.7,1.5,1.3,0.8c44.5-58.1,87.2-117.6,128-178.4c42.1-62.6,82.1-126.7,118.9-192.5
		C235.3,18.8,254-17,271.2-53.4C271.6-54.3,270.4-55,269.9-54.2L269.9-54.2z"/>
	<polygon points="750.5,134.2 836,127.1 895.3,143.7 822.9,149.7 	"/>

		<linearGradient id="SVGID_3_" gradientUnits="userSpaceOnUse" x1="400.5599" y1="715.6055" x2="676.7299" y2="658.2455" gradientTransform="matrix(1 0 0 -1 0 719.276)">
		<stop  offset="0.11" style="stop-color:#DE5E4C"/>
		<stop  offset="0.18" style="stop-color:#E3694B"/>
		<stop  offset="0.38" style="stop-color:#EF8447"/>
		<stop  offset="0.58" style="stop-color:#F89745"/>
		<stop  offset="0.78" style="stop-color:#FDA243"/>
		<stop  offset="1" style="stop-color:#FFA643"/>
	</linearGradient>
	<path class="st11" d="M406.8,95.2c0,0,52.8-72.1,63.2-167.4c0,0,38,138.6,67.3,154.6L406.8,95.2z"/>
	<path class="st9" d="M471.5-71.8c-38,40.6-82.1,75-130.6,102.1c-0.8,0.5-0.1,1.8,0.8,1.3c48.6-27.2,92.8-61.7,130.9-102.4
		C473.2-71.4,472.1-72.5,471.5-71.8z"/>
	<path class="st9" d="M470.2-70.1c22.5,15.6,45.2,30.7,69.1,43.9c23.3,12.8,47.3,24.1,72,33.9c0.9,0.4,1.3-1.1,0.4-1.4
		c-25.1-9.9-49.6-21.5-73.2-34.6c-23.4-13-45.5-27.8-67.5-43C470.2-72,469.5-70.7,470.2-70.1L470.2-70.1z"/>

		<linearGradient id="SVGID_4_" gradientUnits="userSpaceOnUse" x1="-94.816" y1="708.8393" x2="1107.844" y2="346.5892" gradientTransform="matrix(1 0 0 -1 0 719.276)">
		<stop  offset="0.11" style="stop-color:#DE5E4C"/>
		<stop  offset="0.18" style="stop-color:#E3694B"/>
		<stop  offset="0.38" style="stop-color:#EF8447"/>
		<stop  offset="0.58" style="stop-color:#F89745"/>
		<stop  offset="0.78" style="stop-color:#FDA243"/>
		<stop  offset="1" style="stop-color:#FFA643"/>
	</linearGradient>
	<path class="st12" d="M278.9,404.2c0,0,4.5-177.2-185-137.7c0,0,159.5-69.4,176.8-321.3c0,0,210,252.5,371.5,6
		c0,0,15.2,54.7,48.3,119.4c1.7,3.4,12.6,24.3,23.7,42.4c18.7,30.2,57,82.6,132.8,137.5c-7,1.9-15.4,5.1-24.3,10.1
		c-13.3,7.4-29.1,19.6-38.6,38.7C784.1,299.3,514.8-162.3,278.9,404.2z"/>
	<g class="st13">
		<g>
			<g>
				<defs>
					<polygon id="SVGID_5_" points="411.5,250.9 407.5,203 661.8,163.4 665.8,211.4 					"/>
				</defs>
				<clipPath id="SVGID_6_">
					<use xlink:href="#SVGID_5_"  style="overflow:visible;"/>
				</clipPath>
				<g class="st14">
					<path class="st15" d="M421.5,223.3l-0.3-0.4l0.4-1.1l0.2,0.4L421.5,223.3 M424,200.4c-4.1,0.6-1.8,6-6.4,7.8
						c-1.2,0.4-2.4,0.7-3.7,0.9c-1.7,0.3-3.5,0.4-5.3,0.4c-0.4,0.6-0.6,1.3-0.5,2.1c0.2,2,0.9,3.9,1.9,5.7c0.3,0.1,0.6,0.1,0.9,0
						c0.3-0.1,0.7-0.2,1-0.4c0.5-0.2,1-0.4,1.5-0.4h0.2l3.6-0.4c-1.9,7.2-4,16.4-3.9,17.9c0,0.4,0.2,0.9,0.5,1.2
						c0.3,2.3,0.4,4.4,1.6,4.8l-0.1,0.7c0.9,0.1,1.7,0.1,2.6,0c0.2,0,0.3-0.1,0.5-0.1c0.4-2.8,0.9-6,1.6-9.2c-0.1,0-0.2,0-0.2,0
						c-0.3,0-0.4,0.3-0.6,0.7l-0.4-0.2c0.3-1.1,0.5-2.2,0.9-3.4c0.2,0.5,0,1.6,0.5,1.6l0,0c0.3-0.1,0.5-1.4,0.6-2.2
						c0-0.6-0.2-1.2-0.4-1.7c0.2-1,0.1-2.3,0.6-2.5l0,0c0.2,0-0.1,1.2,0.4,1.2l0,0c0.5-0.1,1-2.5,1.1-3.8l-0.4-0.2
						c0.4-0.5,0.7-1.1,0.9-1.7c0.7-3.9,1.2-4.8,2.8-5.2c0.2-0.5,0.5-0.8,0.9-0.8h0.1v0.7l0.6-0.1c3.7-2.6,7.8-2.6,10.6-3.7
						c-0.1-0.2-0.1-0.3-0.1-0.5c0-0.2,0.1-0.4,0.3-0.4l0,0c0.2,0,0.5,0,0.7,0.2l0.1,0.3c0.1-0.4,0.3-0.8,0.4-1.1
						c-0.4-0.9-0.4-1.9,0.1-2.7c-0.7-2.1-2.4-3-4.5-3.4c-2.1,0.6-5.5,2-8.5,3.2L424,200.4L424,200.4"/>
					<path class="st15" d="M451.9,231.1c-0.1,0-0.2,0.1-0.2,0.3l-0.6,1.4l0.1,0.7c0,0.1,0,0.1,0.1,0.1s0.1-0.1,0.1-0.2l0.8-2
						L451.9,231.1C451.9,231.2,451.9,231.2,451.9,231.1 M445.3,229.2l-0.4,2.5c0.1,0,0.7-0.6,0.9-2.3L445.3,229.2 M430.1,228.5
						c0,0-0.1,0.1-0.1,0.1c-0.4,0.4-0.7,0.9-0.9,1.4l0.9-0.3l0.2-0.9C430.2,228.6,430.1,228.5,430.1,228.5 M449.3,237.8l-0.3-0.4
						l0.4-1.3c0.1-0.3,0.3-0.4,0.6-0.4L449.3,237.8 M439.4,228.2L439,228c0.2-0.8,0.4-1.7,0.8-1.7l0,0L439.4,228.2 M451.9,229.2
						l1.6-5.1c0.1-0.2,0.3-0.4,0.5-0.4c0,0,0.1,0,0.1,0l-1.1,3.4C452.8,228,452.4,229.1,451.9,229.2 M442.9,198.3
						c-0.5,0.1-0.4,0.4-0.5,0.6c-0.8,3.2-1.8,6.4-3,9.4c-0.1,0.4-0.3,0.8-0.4,1.1c-0.7,2.1-1.5,4.1-2.1,6.1c-0.7,2.1-0.8,5-1.5,7
						c-0.3,0.9-0.6,1.4-0.8,2.3l-2.6,1.8l0.8,0.4c-0.8,0.6-1.8,1-2.2,2.3l0.5-0.1l0.7-0.1l0.6-0.1c0.7-0.1,1.3-0.2,2-0.1
						c-0.3,4.8-1.7,7.2,1.3,9.2l-0.2,0.8c0.2,0,0.3,0.1,0.5,0.1h0.2l0.1-0.1l0.1-0.1c0.6,0.7,0.9,1.3,1.9,1.2c0.3-2.8,1.3-10.1,2-13
						c0.2-0.9,0.5-1.7,1.2-1.8l0,0c0.3,0,0.5,0.1,0.6,0.4l0,0c0.2,0,1.3-0.3,2.4-0.6s2.3-0.6,3-0.7h0.1l0.3,0.5
						c-1.2,3.5-2.9,9.2-2.7,12.8c0.2,2.7,3,4.7,4.4,5.5l0,0c0.7-0.1,1.2-3.5,1.8-5.2c0.4-1.3,1.1-3.2,0.5-3.6
						c-0.7,2.4-1.3,4-1.7,4.1c-0.1,0-0.2-0.1-0.2-0.2c0-0.8,0.6-1.5,0.8-2.2c-0.1-0.6-0.6-2-0.2-2.9s0.6-1.7,0.8-2.1
						c0.1-0.3,0.3-0.6,0.6-0.7c0,0,0.1,0,0.1,0l0.5,0.2c1.6-3.6,2.1-7.2,3.4-10.8h-0.1c-0.4,0.1-0.7,0.6-0.9,1.1l-0.5,1.6
						c-0.1,0.3-0.2,0.4-0.3,0.4c-0.1,0-0.2-0.1-0.2-0.2c0,0,0-0.1,0-0.1c0.3-1.2,0.8-2.6,1.1-3.4s0.8-1.5,1.4-1.5c0.1,0,0.2,0,0.2,0
						c0.6-1.7,1.9-4.1,1.5-5.2c1-0.9,1.4-2.6,1.4-4.3c0.7-0.8,0.7-2.5,0.6-3.9c-0.1-2.3-0.9-5.3-2.5-5.1l0,0c-0.5,0.1-0.8,0.4-1,0.8
						c-1.8,5.6-3.3,11.1-5.9,16.1c-0.7-0.3-1.5-0.4-2.3-0.4c-0.2,0-0.4,0-0.6,0.1c-1.8,0.1-3.4,1.2-4.2,2.7l-1,0.5
						c-0.1-1.1,0.4-2.2,1.3-3c0.8-2.8,2.3-5.9,2.6-7.9h0.3c0.3-2.2,0.3-4.4-0.1-6.6C445.3,199.9,445.4,198,442.9,198.3L442.9,198.3"
						/>
					<path class="st15" d="M478.4,225.2c0,0-0.1,0-0.1,0.1c-1.8,1.2-3.8,2.3-5.8,3.1c0.2,0.3,0.6,0.5,0.9,0.4c1-0.3,1.9-1,2.5-1.9
						h0.3c0.9-0.1,1.8-0.7,2.3-1.5C478.5,225.4,478.5,225.2,478.4,225.2 M464.4,229.2c-0.4-0.3-0.4-1.1-0.3-2.2l0.4,0.6L464.4,229.2
						 M464.7,226.2l-0.4-0.5l0.4-2.3l0.5-0.1L464.7,226.2 M464.7,223v-0.7c0-0.6,0.2-0.9,0.7-1h0.2
						C465.4,221.9,465.1,222.5,464.7,223L464.7,223 M466.9,213.9c0.1-0.7,0.6-1.6,1-1.6l0,0l-0.4,1.4L466.9,213.9 M468.2,211.4
						l0.7-1.8l0.6-0.3l-0.7,1.8L468.2,211.4 M479,202.9l-0.2-0.7c0.1,0,0.2-0.1,0.3-0.1c0.3-0.1,0.7,0,0.7,0.2L479,202.9
						 M470.5,195.2c-0.8,0.1-1.4,1.3-2.1,2.4s-1.5,2.3-2.5,2.5h-0.3c-0.6,1.5-0.8,3.1-0.4,4.7c-2.8,9.6-5.3,15.5-5.1,19.9
						c0.4,8.8,4.4,11.6,9.8,10.9h0.3c2.8-0.4,6.4-2.6,9.3-4.4c0.6-0.3,1-0.8,1.2-1.5c0.1-0.4,0.1-0.5,0-0.4c-0.1,0-0.1,0.1-0.2,0.1
						c-2.2,1.3-4.7,2.7-6.5,3.6c-0.3,0.2-0.7,0.3-1.1,0.3c-0.5,0.1-1,0-1.5-0.2c2.5-1.1,5.4-2.5,7.6-3.8c0.1-0.1,0.2-0.2,0.1-0.2
						c-0.3-0.2-0.9-0.6-1.2-0.8l3.1-1.9c0.4-0.3,1-0.8,0.9-1.1c0-0.1-0.1-0.1-0.2-0.1c-0.1,0-0.1,0-0.2,0.1
						c-2.3,1.2-5.7,3.2-8.7,4.7c0,0-0.1,0-0.1,0.1c-0.3,0-0.5-0.2-0.7-0.5s-0.5-0.5-0.8-0.5l0,0c0,0.4-0.3,0.7-0.7,0.8l0,0l-0.3-0.6
						c-0.8,0.4-1.6,0.6-2.4,0.8c-0.9,0.2-1.9,0-2.6-0.6c0-1.4,0.6-8.1,1.8-9c2.2-1.6,9.1-3.9,11.8-4.8l0.2-1.4
						c-0.5-0.3-0.8-0.9-0.6-1.5c-1.1-2-1.5-2.6-2.9-2.4h0c-1.4,0.2-5,2.7-6.9,3.1c0.7-1.7,1.2-3.2,1.7-4.3c4-2,8.3-2.7,12.4-5.6
						c0.4-0.5,1.3-1,1.1-1.6c0-0.1,0-0.1-0.1-0.1s-0.3,0.3-0.4,0.4c-1.3,0.9-2.4,1.5-3.7,2.4c-0.4-1.8,0.9-0.6,2.7-3
						c0-0.1,0-0.1,0-0.2c0,0-0.1,0-0.1,0c-0.8-0.2-1.5-0.3-2.3-0.5l0,0c-0.2,0-0.5,0.1-0.6,0.3c-0.1,0.1-0.3,0.2-0.4,0.2l0,0
						l-0.5-1.1c-1.4,0.1-2.7,0.1-4.1-0.1c0.5-1.4,0.7-2.9,0.6-4.4c-1.3-0.4-2.6-0.6-4-0.7l0,0"/>
					<path class="st15" d="M521.1,213.3l-0.3-0.3l0.5-1.2l0.2,0.3L521.1,213.3 M521.8,211.5l-0.3-0.4l0.4-0.8
						C522.2,210.6,522,211,521.8,211.5 M523.3,208.3c0-0.6,0.1-2.2,0.9-2.3c0.2,0,0.4,0,0.6,0.1L523.3,208.3L523.3,208.3 M505.9,205
						l1-2.6c0.3,0.6-0.1,1.6-0.5,2.4L505.9,205 M527.6,201l-0.1-0.6l2.4-2.9C529.9,198.6,528.8,199.6,527.6,201 M530.3,197.8
						l-0.1-0.5l0.9-1C531.1,197.1,530.7,197.2,530.3,197.8 M493.1,196.2l-0.6,0.7c0.2,6.2,0.2,13.5,0.7,19.7
						c0.5,5.6,1.4,10.2,3.3,12.7c0-0.2,0.2-0.3,0.4-0.4l0,0c0.4-0.1,1.7,2.1,2.2,2l0,0c0.6-0.1,4.1-9.2,6.2-13.2
						c1.1,1.4,2.2,5.1,2.9,6.2l1.5,2.3l0.2-0.5c1,1,1.5,3.5,2.2,3.5l0,0c1.7-0.3,5-7.8,6.8-11c-0.4-0.7-0.1-1.5,0.4-2.6
						c0.4-0.9,0.7-1.8,1.2-1.8c0.1,0,0.2,0,0.3,0.1c-0.3,0.8-0.8,1.7-0.3,1.9c1.1-2.5,2.6-4.4,2-6.8l0.7,0.7c1.5-2.2,5-7.8,7.1-10.8
						h0.1c1.2-0.2,2.1-1.3,2.9-2.5c-0.1-0.6-0.2-1.2-0.2-1.8l-0.2,0.2c-0.4,0.5-0.8,1-1.2,1.1l0,0l-0.4-0.1c0.5-0.6,1-1.3,1.2-2.1
						l-2-0.2c-0.2-0.5-0.7-1-1-1l-2,2.4c-0.6-0.2-0.2-0.8,0.2-1.4h-0.2c-0.6,0.1-1.2,0.3-1.8,0.5c-5,1.6-13.2,22-14.5,22.2l0,0
						c-0.7,0.1-1.5-1.5-2.5-1.5c1.5-2.7,2.2-6.8,3.6-9.8l-1.5-5c-0.5-1.6-1.8-3-2.8-2.9l0,0c-0.9,0.1-0.6,2.4-1.1,3.5l-2.1,5.1
						l-1,0.6l-5.9,12.5c-1.9-1.6,0.8-9.1-0.3-13.5C497.2,202.3,495.4,197.4,493.1,196.2"/>
					<path class="st15" d="M546.9,217.2C546.9,217.2,546.8,217.2,546.9,217.2c-1.9,1.3-3.9,2.3-5.9,3.2c0.2,0.3,0.6,0.5,0.9,0.4
						c1-0.3,1.9-1,2.5-1.8h0.3c1-0.1,1.8-0.7,2.3-1.5C547,217.3,547,217.2,546.9,217.2 M532.9,221.1c-0.4-0.3-0.4-1.1-0.3-2.2
						l0.4,0.6L532.9,221.1 M533.1,218.2l-0.4-0.5l0.4-2.3l0.5-0.1L533.1,218.2 M533.2,215v-0.7c0-0.6,0.2-0.9,0.7-1h0.1
						C533.8,213.9,533.6,214.4,533.2,215L533.2,215 M535.4,205.9c0.1-0.7,0.6-1.6,1-1.6l0,0l-0.4,1.4L535.4,205.9 M536.6,203.4
						l0.7-1.8l0.6-0.2l-0.7,1.8L536.6,203.4 M547.5,194.8l-0.2-0.7c0.1,0,0.2-0.1,0.3-0.1c0.3-0.1,0.7,0,0.7,0.2L547.5,194.8
						 M539,187.1c-0.8,0.1-1.4,1.2-2.1,2.4s-1.5,2.3-2.5,2.5c-0.1,0-0.2,0-0.3,0c-0.4,0.8-0.6,1.7-0.6,2.6c0,0.6,0,1.2,0.2,1.8
						l0.1,0.3c-2.8,9.6-5.3,15.5-5.2,19.9c0.4,8.8,4.4,11.6,9.8,11h0.2c2.8-0.4,6.5-2.6,9.3-4.4c0.6-0.3,1-0.9,1.2-1.5
						c0.1-0.4,0.1-0.4,0-0.4c-0.1,0-0.1,0.1-0.2,0.1c-2.2,1.3-4.7,2.7-6.5,3.6c-0.3,0.2-0.7,0.3-1.1,0.3c-0.5,0.1-1,0-1.5-0.1
						c2.5-1.1,5.3-2.5,7.6-3.8c0.1-0.1,0.2-0.2,0.1-0.3c-0.3-0.2-0.9-0.6-1.2-0.8l3.1-1.9c0.4-0.3,1-0.8,0.9-1.1
						c0-0.1-0.1-0.1-0.2-0.1c-0.1,0-0.1,0.1-0.2,0.1c-2.3,1.2-5.7,3.2-8.7,4.7c0,0-0.1,0-0.1,0c-0.3,0-0.5-0.2-0.7-0.5
						s-0.5-0.5-0.8-0.5l0,0c0,0.4-0.3,0.7-0.7,0.8l0,0l-0.3-0.6c-0.8,0.4-1.6,0.6-2.4,0.8c-0.9,0.2-1.8,0-2.6-0.6
						c0-1.4,0.6-8.1,1.8-9c2.2-1.6,9.1-3.9,11.8-4.8l0.2-1.4c-0.5-0.3-0.8-0.9-0.6-1.5c-1.1-2.1-1.6-2.6-2.9-2.4h0
						c-1.4,0.2-5,2.7-6.9,3.1c0.7-1.7,1.2-3.2,1.7-4.3c4-2,8.3-2.7,12.4-5.6c0.4-0.5,1.2-1,1.1-1.6c0-0.1-0.1-0.1-0.1-0.1
						s-0.3,0.3-0.4,0.4c-1.2,0.9-2.4,1.5-3.7,2.4c-0.4-1.8,0.9-0.6,2.7-3c0-0.1,0-0.2,0-0.2c0,0-0.1,0-0.1,0c-0.7,0-1.8-0.5-2.3-0.4
						l0,0c-0.2,0-0.5,0.1-0.7,0.3c-0.1,0.1-0.3,0.2-0.4,0.2l0,0l-0.5-1.1c-1.4,0.1-2.7,0.1-4.1-0.1c0.5-1.4,0.7-2.9,0.6-4.4
						c-1.3-0.4-2.6-0.6-4-0.7l0,0"/>
					<path class="st15" d="M569,214.6C569,214.6,568.9,214.6,569,214.6c-1.9,1.2-3.9,2.3-5.9,3.1c0.2,0.3,0.6,0.5,0.9,0.4
						c1-0.3,1.9-1,2.5-1.8h0.3c0.9-0.1,1.8-0.7,2.3-1.5C569.1,214.7,569.1,214.6,569,214.6 M555,218.5c-0.4-0.3-0.4-1.1-0.3-2.2
						l0.4,0.6L555,218.5 M555.2,215.5l-0.4-0.5l0.4-2.3l0.5-0.1L555.2,215.5 M555.3,212.3v-0.7c0-0.6,0.2-0.9,0.7-1h0.2
						C556,211.2,555.7,211.8,555.3,212.3L555.3,212.3 M557.5,203.2c0.1-0.7,0.6-1.6,1-1.6l0,0l-0.4,1.4L557.5,203.2 M558.7,200.7
						l0.7-1.8l0.6-0.2l-0.7,1.8L558.7,200.7 M569.6,192.1l-0.2-0.7c0.1,0,0.2-0.1,0.3-0.1c0.3,0,0.6,0,0.7,0.2L569.6,192.1
						 M561.1,184.4c-0.8,0.1-1.4,1.3-2.1,2.4s-1.5,2.3-2.6,2.5h-0.3c-0.6,1.5-0.8,3.1-0.4,4.7c-2.8,9.6-5.3,15.5-5.1,19.9
						c0.3,8.9,4.4,11.6,9.8,10.9h0.3c2.8-0.4,6.4-2.6,9.3-4.4c0.6-0.3,1-0.9,1.2-1.5c0.1-0.4,0.1-0.4,0-0.4c-0.1,0-0.1,0-0.2,0.1
						c-2.2,1.3-4.7,2.7-6.5,3.6c-0.4,0.2-0.7,0.3-1.1,0.4c-0.5,0.1-1,0-1.5-0.2c2.5-1.2,5.4-2.5,7.6-3.8c0.1-0.1,0.2-0.2,0.1-0.2
						c-0.3-0.2-0.9-0.6-1.2-0.8l3.1-1.9c0.4-0.3,1-0.8,0.9-1.1c0-0.1-0.1-0.1-0.2-0.1c0,0,0,0,0,0c-0.1,0-0.1,0-0.2,0.1
						c-2.3,1.2-5.7,3.2-8.7,4.7l-0.1,0.1c-0.3,0-0.5-0.2-0.7-0.5s-0.5-0.5-0.8-0.5h-0.1c0,0.4-0.3,0.7-0.7,0.8l0,0l-0.3-0.6
						c-0.8,0.4-1.6,0.6-2.4,0.8c-0.9,0.2-1.8,0-2.6-0.6c0-1.4,0.6-8.2,1.8-9c2.2-1.6,9.1-3.9,11.8-4.8l0.2-1.4
						c-0.5-0.3-0.8-0.9-0.6-1.5c-1.1-2.1-1.6-2.6-2.9-2.4H566c-1.4,0.2-5,2.7-6.8,3.1c0.7-1.7,1.2-3.2,1.7-4.3c4-2,8.3-2.7,12.3-5.6
						c0.4-0.5,1.2-1,1.1-1.6c0-0.1,0-0.1-0.1-0.1s-0.3,0.3-0.4,0.4c-1.2,0.9-2.4,1.5-3.7,2.4c-0.4-1.8,0.9-0.6,2.7-3
						c0-0.1,0-0.1,0-0.2c0,0-0.1,0-0.1,0c-0.7,0-1.8-0.5-2.3-0.4l0,0c-0.2,0-0.5,0.1-0.7,0.3c-0.1,0.1-0.3,0.2-0.4,0.2l0,0l-0.5-1.1
						c-1.4,0.1-2.7,0.1-4.1-0.1c0.5-1.4,0.7-2.9,0.6-4.4c-1.3-0.4-2.6-0.6-4-0.7l0,0"/>
					<path class="st15" d="M600.9,216.1l-0.1,0.5c0.3,0.2,0.7,0.3,1,0.2c0.2,0,0.4-0.1,0.5-0.3L600.9,216.1 M599.2,215.5
						c-0.1,0.2,0.5,0.9,1.2,0.9l0.1-0.5L599.2,215.5 M597,213.1l-0.2,0.5c0.7,0.6,1.6,0.9,2.6,1c0.1,0,0.3-0.1,0.3-0.2L597,213.1
						 M597.4,197.3c-0.7,0.6-1,1.1-1,1.4l1.3-0.9L597.4,197.3 M576.9,217.3c-0.3-0.3,0-1.8,0.2-2.2l0.4,0.3L576.9,217.3
						 M578.7,211.2l-0.6,0.1l0.8-2.2c0.2-0.4,0.5-0.8,0.8-0.9h0.1L578.7,211.2 M585.6,204.5c-0.2,0-0.3-0.1-0.3-0.4l0.7-0.5l0.2,0.5
						C586,204.3,585.8,204.4,585.6,204.5 M586.5,203.8l-0.1-0.6l1.4-1C588,203,587,203.5,586.5,203.8 M590.1,201.1
						c-0.2,0-0.4,0-0.6,0l2.2-1.6C591.5,200.3,590.9,201,590.1,201.1 M602.7,188c-0.2-0.4,0.2-1,0.4-1.2l0.3,0.7L602.7,188
						 M583.4,181.7l-0.2,0.1c-3.5,9.5-7.9,20.8-10.5,32.1l0.4,0.4c-0.7,2.1-0.9,4.3-0.7,6.5c0.2,0,0.5,0,0.7,0.1
						c-0.1,0.5,0,1,0.3,1.4l0.3-0.8c0.2,0.5,0.3,0.9,0.3,1.4c0.7,0.7,1.6,1,2.6,0.9c0.4-3,0.9-5.9,1.7-8.8c-1-0.3-0.8-1.9-0.3-2.9
						l0.5-0.1c-0.3,0.9-0.1,1.1,0.2,1.2c0.5-1.6,1.1-3.3,1.8-4.8c4.4,2.7,8.2,5.8,11.9,8.4l0.1-0.7c2.6,1.6,6.5,4.4,8.6,4.2
						c0.3,0,0.8-0.1,1.2-0.2c0.9-0.1,1.9-0.3,2.8-0.6c-0.6-0.5-1.3-0.7-2-0.7c-2.7,0.3-3.8-2.6-5.5-3.8c-0.2,0.1-0.3,0.1-0.5,0.1
						c-0.7,0.1-1.4-0.2-1.9-0.8l0.5-0.7c-1.1-0.7-1.6-0.4-2.9-1.6c0.1-0.1,0.2-0.3,0.2-0.5c-0.1-0.6-1.3-0.8-1.9-1.2l0.3-0.4
						c-1.8-1.6-3.5-3.3-5.1-5.1c0.5-0.3,8.1-5.8,8.2-5.8c0.4-0.1,0.4,0.5,1,0.4l0,0c0.2,0,0.6-0.2,0.8-1.1c-0.2,0.2-0.5,0.3-0.7,0.4
						c-0.2,0-0.4,0-0.5-0.2c1.1-0.8,2.1-1.8,3-2.9l0.7,0.6c0.6-1.2,1.2-2.1,1.6-2.1l0,0c0.7-0.1-0.3,0.7,0.3,0.6l0,0
						c0.4-0.5,0.8-1.1,1.2-1.6c0.5-0.8,1.3-1.4,2.2-1.8h0.2l-0.2-3.1h-0.2h-0.1c-0.1,0-0.2,0-0.4-0.2l0.9-0.8
						c-0.8-1.7-1.8-2.8-2.5-2.7l0,0c-1,0.5-1.8,1.1-2.6,1.8c-0.8,0.8-1.8,1.4-2.8,1.9h-0.1c0.3,0.4,0.1,0.8-0.2,0.9l0,0
						c-0.1,0-0.3,0-0.6-0.3c0.1,0.6-0.2,1.2-0.7,1.5l-0.2-0.3c-3.5,2.4-6.6,5-10.1,7.7c-0.7-0.9,3-7.9,2.9-9.6
						S585.8,181.3,583.4,181.7"/>
					<path class="st15" d="M628.2,202.1c-0.4,0.1-0.4,1.1-0.4,1.8l0.4,0.3l0.1-2.1C628.3,202.2,628.3,202.2,628.2,202.1
						 M630.6,192.2c-0.5-0.2,0.2-1.6,0.5-2.4c0,0,0-0.1,0.1-0.1s0.3,0.2,0.3,0.4L630.6,192.2 M631.3,189.2l0.8-1.7
						c0-0.1,0.1-0.1,0.2-0.1s0.3,0.3,0.2,0.4l-0.7,1.7c-0.1-0.2-0.1-0.3-0.3-0.3L631.3,189.2 M612.7,188.2c-0.1,0-0.3,0-0.3-0.1
						l0.9-1.5l0.4,0.3C613.4,187.3,613.1,188.2,612.7,188.2 M635.5,182.6l-0.1-0.5l0.8-1C636.4,182,635.9,182.1,635.5,182.6
						 M630.4,183.3c-0.2,0-0.3-0.2-0.3-0.3c0.2-0.5,0.4-1,0.7-1.4l0.4,0.2L630.4,183.3L630.4,183.3 M633.7,179.1
						c-0.9,0.1-1.7,0.5-2.4,1.1c-2.5,4.1-4.7,8.4-6.5,12.8l-0.3-0.2c-0.1,0,0.1-0.4,0.4-1.4c1.5-3.8,3.3-7.4,5.4-10.9l-1,0.3
						c-1,0.6-5.1,10-7.8,17.5c-0.6-2.4-1.4-6.1-2.1-7.9c-0.8-2.1-4.8-4.8-6.2-5.3c-3.4,5.3-8.3,12.2-10.9,23
						c-0.4,1.2-0.5,2.5-0.3,3.7l0.4,2.6c0.6,0.3,1.6,4.2,2.9,4.1l1.3-0.1c1.9-3.9,3.5-12,5.5-17.9l-0.2-1c1-3,2.5-5,3.9-5.8l0.4,2.3
						c0.5,3.1-0.5,5,0.9,9.1c0.4,1.3,0.2,4.1,0.4,5.6c0.7,4,1,5.5,4.1,6.2l0.2-0.9l2.2,1c1.2-5.1,2.5-10.1,3.3-14.9
						c0.1-0.6,0.8-1,0.8-1.4c0.2-0.9,0.1-1.7,0.3-2.2c1-2.4,1.9-3.7,1.8-5.9c0,0,0.1-0.1,0.1-0.1c0.1,0,0.2,0,0.2,0.1
						c0.1,0.1,0.1,0.1,0.2,0.1c0.1,0,0.1-0.1,0.2-0.2c2-4.2,4.9-7.9,8.5-10.9l-1.4-1.7c-0.4,0.4-0.9,0.6-1.4,0.8l0,0l-0.1-0.2
						l0.9-0.9C636.4,179,635,178.8,633.7,179.1"/>
					<path class="st15" d="M643,210.6V210l1.4-1.2l-0.2,0.8L643,210.6 M645,209L645,209c0.6-1.1,1.3-2,2.1-2.8v0.1
						c-0.2,0.3-0.1,0.7,0.2,1L645,209 M648.9,205.3c0.3-0.3,0.4-0.7,0.5-1.1c1.4-1.4,3-2.8,3.9-3.8c0.6-0.8,1.4-1.4,2.3-1.7h0.1v0.1
						c-2,2-4.5,4.9-7,7.3c-0.3-0.2-0.7-0.3-1.1-0.3c0.2-0.3,0.5-0.6,0.9-0.7C648.6,205.1,648.8,205.1,648.9,205.3 M656,198.2
						c-0.2,0-0.4,0-0.5-0.2l1.5-1.3l0.4,0.1l-0.9,1C656.3,198.1,656.2,198.2,656,198.2 M661.2,192.3l-0.6-0.1l0.3-0.6l0.6,0.1
						L661.2,192.3 M645.3,192.9L645.3,192.9c0.3-0.5,0.6-0.7,0.8-1.1l-0.1-1.9c2.3-1.3,4.9-4.6,11.9-5.7l1-0.1
						c0.4,2-1.5,5.9-2.7,6.1c-0.1,0-0.2,0-0.3,0c-1.5,2.6-2.3,3.7-2.8,3.8l0,0c-0.1,0-0.3,0-0.5-0.4l-0.4,0.4l0.3,0.8
						c-0.3-0.1-0.5,0-0.7-0.3c-2.2,2.9-5.8,5.2-7.4,6.8c0.1-2.3,0.9-4.1,0.9-5.5c-0.1-0.4-0.2-0.8-0.4-1.2v-0.1
						c0.2,0.1,0.4,0.2,0.6,0.3l0,0c0.2,0,0.3-0.6,0.2-1.1s-0.1-1-0.4-1C645.4,192.7,645.4,192.8,645.3,192.9 M646.6,172.4
						c-2.4,0.4-2.2,6.5-4.2,9.8l-0.5-0.4c-1.2,1-3.4,2-3.3,3.6s1.8,2.4,1.9,4.1c0,2.4-1.3,4.6-1.8,7.4l0.2,0.9
						c-0.3,2.4-0.7,4.7-1.2,7c-0.2,0.8-0.6,1.5-1.3,2l-1.1,0.8c0,0.8-0.1,1.6-0.3,2.3c1.1,1.6,2.3,5.6,5.1,5.2h0.1
						c0.3-0.1,0.5-0.1,0.8-0.2c0.2-0.1,0.5-0.2,0.7-0.2c0.3-0.1,0.6,0,0.9,0.2l0.2-3.4c6-4.5,11.3-9.7,15.8-15.7l-0.8-0.1
						c0.9-1.1,1.6-1.9,1.8-2.3c0.2-0.2,0.4-0.4,0.7-0.4c0.1,0,0.2,0,0.3,0L660,194h0.1c0.5-0.1,0.8-0.4,1.1-0.8
						c1-1.7,1.9-3.6,2.6-5.5c-0.4-2.6-0.9-7.2-5.3-8.4c-1-0.3-2.3,0-2.8-0.4c-0.1,0.4-0.5,0.8-0.9,0.9c-0.3,0-0.5-0.1-0.3-0.7
						c-0.7,0-1.4,0-2.2,0.1c-0.6,0.1-1.2,0.2-1.7,0.4s-1,0.3-1.5,0.3h-0.3c0.2-1.1,0.3-2.3,0.2-3.4
						C648.8,175.7,646.9,172.3,646.6,172.4l-0.1-0.1"/>
				</g>
			</g>
		</g>
	</g>
	<path class="st16" d="M284,403.2l0.3-3.5l6.2-1.2l30.2-21.5c-2.5,5.6-4.9,11.4-7.4,17.2l4.6-0.9
		c62.3-147.4,132.4-228.2,208.7-240.2l-0.1-0.4l0.5,0.2l13.4-28.8c4.3-0.2,8.7-0.1,13.1,0.1l17.5,28.3l-0.2,1.2l1.1,0.2v0.1h0.1
		c81.5,15.6,150.3,103.4,184.6,155.5l3-0.6l1-0.2l0.1-0.1c-2.4-3.6-5-7.5-7.7-11.5l17.6-15.2c7.6,11.2,11.7,18.2,11.8,18.4l0,0
		l2.3,3.8l4.1-0.8l-3.4-5.4c-2.9-4.8-29.8-49.1-71.8-91.9c-26.1-26.5-52.8-47.2-79.3-61.6c-33.3-18-66.6-26.1-98.9-23.9
		c-96,6.4-182.9,101.6-258.5,283l2.1,0.9l1.1,1.5L284,403.2z M625.3,169.9l34.6,0.4l-17.1,10.5C637,176.8,631.1,173.2,625.3,169.9z
		 M729,264.6l12.4-12.6l-4,23.4C734.7,271.9,731.9,268.2,729,264.6z M750.8,293.9c-2.8-4-5.7-8.1-8.8-12.3l23.9-0.8L750.8,293.9z
		 M767.1,276.9l-26.1,0.8l5-29.1C754.4,259.1,761.5,268.8,767.1,276.9L767.1,276.9z M742.8,244.5l-0.1,0.8l-14.4,14.6l-3.5-36.5
		C731.2,230.5,737.2,237.7,742.8,244.5L742.8,244.5z M724.1,258.3c-5.4-6.6-11.1-13.4-17.1-20.1l13.8-13.7L724.1,258.3z
		 M704.4,235.3c-4.7-5.2-9.6-10.3-14.7-15.4l30,0.2L704.4,235.3z M710.8,208.6c2.5,2.5,4.9,5.1,7.3,7.6l-29.8-0.2l8.3-21.2
		C701.4,199.3,706.1,203.9,710.8,208.6L710.8,208.6z M684.5,215c-0.4-0.4-0.8-0.8-1.2-1.2c-4-3.8-8-7.5-12-11l21.3-8.2L684.5,215z
		 M692,190.6l-22.2,8.6l-1.1-27.9C676.5,177.2,684.2,183.6,692,190.6z M665.8,198.1c-6.5-5.4-12.9-10.3-19.4-14.9l18.3-11.2
		L665.8,198.1z M662.1,166.4l-37.3-0.4l16.5-13.2C648.2,156.9,655.2,161.5,662.1,166.4L662.1,166.4z M632.5,147.8
		c1.7,0.9,3.5,1.9,5.2,2.9l-17.4,13.9l-8.2-26.5C619.1,140.9,625.9,144.2,632.5,147.8L632.5,147.8z M616.4,165.2
		c-9.7-4.9-19.9-8.9-30.3-11.9l21.8-15.8L616.4,165.2z M604.6,135.1L581.2,152c-2.3-0.6-4.6-1.1-6.9-1.6l-16-25.9
		C574.1,125.9,589.7,129.5,604.6,135.1z M324.3,368.8l-19-12l26.8-5C329.5,357.4,326.9,363.1,324.3,368.8z M335.8,344.1l-8.8-28.2
		l17.2,11.2C341.4,332.6,338.6,338.3,335.8,344.1L335.8,344.1z M347.4,321l-3-37.6l17.3,11.5C356.9,303.3,352.1,312,347.4,321
		L347.4,321z M418.5,214.8l-20-6.7l35.6-9.4C428.9,203.8,423.7,209.1,418.5,214.8L418.5,214.8z M504,154.5l-7.2-18l25.6,13.3
		C516.2,151,510.1,152.5,504,154.5L504,154.5z M535.8,124.3h0.2L525.5,147l-28.6-14.9C509.4,127.9,522.5,125.2,535.8,124.3
		L535.8,124.3z M500.3,155.8c-6,2.2-11.8,4.7-17.5,7.6l9.9-26.6L500.3,155.8z M489.3,134.8l-11.6,31.4l-0.2,0.1L451.4,155
		C463.2,146.9,475.9,140.1,489.3,134.8L489.3,134.8z M473.3,168.7c-10.2,6.1-20,13.1-29,20.9l5.2-31.3L473.3,168.7z M445.3,159.2
		l-5.4,32.6L419.2,181C427.4,173.2,436.1,165.9,445.3,159.2L445.3,159.2z M416.2,183.8l19.8,10.4l-39.6,10.4
		C402.9,197.2,409.5,190.2,416.2,183.8L416.2,183.8z M415.7,218c-5.9,6.7-11.7,13.8-17.5,21.5l-4-28.6L415.7,218z M390.4,211.7
		l4.2,30.6l-25.4-3.2C376.2,229.4,383.2,220.2,390.4,211.7L390.4,211.7z M393.3,246.1c-4,5.5-8,11.2-12,17.2L368.4,243L393.3,246.1z
		 M365,245l13,20.6l-32,8.5C352.3,263.9,358.6,254.2,365,245z M376.9,270c-4.4,6.9-8.9,14.1-13.2,21.6l-19.3-12.9L376.9,270z
		 M340.4,283.5l3.1,38.4l-18.2-11.8C330.3,300.9,335.4,292,340.4,283.5L340.4,283.5z M322.7,315.1l10.1,32.6l-29.2,5.4
		C309.9,339.9,316.3,327.2,322.7,315.1z M301,358.8l20.4,12.9l-38.1,27.2C289.1,385,295,371.6,301,358.8z"/>

		<rect x="187.9" y="238.1" transform="matrix(0.9962 -8.698187e-02 8.698187e-02 0.9962 -29.7348 21.695)" class="st7" width="92.4" height="228"/>
	<polygon class="st8" points="198,469.6 105.2,444.4 85.7,221.5 178.1,242.5 	"/>

		<ellipse transform="matrix(0.9966 -8.298215e-02 8.298215e-02 0.9966 -25.9585 20.4112)" cx="232.6" cy="322.5" rx="28.3" ry="49.7"/>
	<polygon points="86.1,223.6 194.9,214.5 270.4,235.6 178.4,243.2 	"/>
</g>
</svg>
