<svg id="Layer_1" data-name="Layer 1" xmlns="http://www.w3.org/2000/svg" xmlns:xlink="http://www.w3.org/1999/xlink" viewBox="0 0 1280 720"><defs><style>.cls-1{fill:none;}.cls-2{fill:url(#linear-gradient);}.cls-3{fill:url(#linear-gradient-2);}.cls-4{fill:#728387;}.cls-5{fill:#042304;}.cls-6{fill:#754c24;}.cls-7{fill:gray;}.cls-8{fill:#666;}.cls-9{fill:#333;}.cls-10{fill:#1a1a1a;}.cls-11{fill:#603813;}.cls-12{fill:#8c6239;}.cls-13{fill:url(#linear-gradient-3);}.cls-14{fill:url(#linear-gradient-4);}.cls-15{opacity:0.98;}.cls-16{clip-path:url(#clip-path);}.cls-17{fill:#f04b50;}.cls-18{fill:#494037;}</style><linearGradient id="linear-gradient" x1="825.84" y1="-768.94" x2="567.51" y2="206.05" gradientTransform="translate(0 619.28)" gradientUnits="userSpaceOnUse"><stop offset="0" stop-color="#81828e"/><stop offset="1" stop-color="#f9af56"/></linearGradient><linearGradient id="linear-gradient-2" x1="959.96" y1="428.66" x2="718.28" y2="-285.8" gradientTransform="translate(0 619.28)" gradientUnits="userSpaceOnUse"><stop offset="0" stop-color="#5a522e"/><stop offset="1" stop-color="#a68550"/></linearGradient><linearGradient id="linear-gradient-3" x1="400.57" y1="-615.63" x2="676.74" y2="-558.27" gradientTransform="translate(0 619.28)" gradientUnits="userSpaceOnUse"><stop offset="0.11" stop-color="#de5e4c"/><stop offset="0.18" stop-color="#e3694b"/><stop offset="0.38" stop-color="#ef8447"/><stop offset="0.58" stop-color="#f89745"/><stop offset="0.78" stop-color="#fda243"/><stop offset="1" stop-color="#ffa643"/></linearGradient><linearGradient id="linear-gradient-4" x1="-94.81" y1="-608.85" x2="1107.85" y2="-246.6" xlink:href="#linear-gradient-3"/><clipPath id="clip-path"><polygon class="cls-1" points="411.5 250.9 407.5 203 661.8 163.4 665.8 211.4 411.5 250.9"/></clipPath></defs><title>Artboard 1</title><g id="Baggrund"><polygon class="cls-2" points="1559.2 181.1 -14.1 405.7 -14.1 -78.2 1559.2 -78.2 1559.2 181.1"/><polygon class="cls-3" points="1559.2 806.7 -14.1 806.7 -14.1 405.7 1559.2 181.1 1559.2 806.7"/></g><path class="cls-4" d="M-17,90.9c-18.8,42.3-37.9,97.4-16.2,118.4C-5,236.5,66.9,181.9,167,151c139.9-43.2,173,25.6,457.4,14.2,104.4-4.2,228.7,7.5,328.2-14.2s228.7-10.9,273.5-20.9c32.6-7.3,78.5-17.3,77.8-24.4-.3-3.7-12.6-4.9-23.1-6.5-48.1-7.3-72.6-24.2-98.7-33-61.2-20.8-92.7,15.4-180.9,15.2C939.9,81.3,902,63.6,862,51.1,616.2-26,336.9,101.8,170.8,76.6A400.93,400.93,0,0,0-17,90.9Z"/><path class="cls-5" d="M.3,204.9s25.3-53.2,56-51.9,24-27.8,24-27.8l29.3,20.5s2.7-24.2,22.7-24.2,29.3,10.9,29.3,10.9l29.3-49.5S216.2,95,224.2,101,241,118,241,118s-45.5,99.1-81.7,116.3L88,240q5.4,75.75,10.8,151.4c-33,4.4-66.1,8.9-99.1,13.3Z"/><path class="cls-5" d="M731.6,132.2S785.9,91,803.7,97.3s49.6,20.9,49.6,20.9,16.8-14.7,25.3-14.7,23.4,9.1,23.4,9.1,3.7-32.1,25.3-27.9c12.7,2.5,23.4-.1,35.7,3.3a110.09,110.09,0,0,1,25,10c29.2,7.4,41.3,17.7,46.8,25.8s8.5,19.7,13.9,19.6c2.7-.1,4.7-3,5.8-4.9a78,78,0,0,1,24.3-25.8c19.3,0,31.6,3.9,39.3,7.7,14.5,7,29,20.9,29,20.9h0s11.3-21,29-25.1c13.2-3.1,19.9,5.6,35.6,5.6,11.3,0,27-4.7,45.9-25.1l22.5,19.5-.9,117.2L906.7,273.2c-3.8-32.4-7.7-64.8-11.5-97.1l-59.1-11.7c-28.5,1.8-57,3.5-85.5,5.3.7,7.2,1.4,14.5,2.2,21.7A253.63,253.63,0,0,1,728,169.2a206,206,0,0,1-25.6-31.9C712,135.6,721.8,133.9,731.6,132.2Z"/><path class="cls-6" d="M641.1-44.5A1394.19,1394.19,0,0,0,747.2,115.1a1417.88,1417.88,0,0,0,125.1,142q38.4,37.95,79.6,73c.7.6,1.8-.4,1.1-1.1A1418.76,1418.76,0,0,1,816.8,196.6,1395.86,1395.86,0,0,1,699,45.7Q669,1.3,642.4-45.2a.71.71,0,0,0-1-.3.71.71,0,0,0-.3,1Z"/><polygon class="cls-7" points="313 155.5 690.2 129.9 777.8 237 784 329.8 292.7 369.2 313 155.5"/><path class="cls-8" d="M282,352.3s192.8-492.4,475.8-86.2C757.8,266.1,554.6-3.8,282,352.3Z"/><rect class="cls-9" x="830.39" y="145.6" width="72.6" height="179.1" transform="translate(-17.17 76.28) rotate(-4.99)"/><polygon class="cls-10" points="838.3 327.5 765.4 307.8 750.2 132.6 822.8 149.1 838.3 327.5"/><ellipse cx="865.54" cy="212.01" rx="22.2" ry="39.1" transform="translate(-14.61 72.55) rotate(-4.76)"/><polygon class="cls-11" points="199.8 354.1 732 274.6 845.1 293.4 284.2 400.6 199.8 354.1"/><polyline class="cls-12" points="279.3 462.7 842.6 325.2 845.2 292.5 284.2 399.7"/><polygon class="cls-6" points="279.3 462.7 237 433.2 241.7 371.9 284.2 400.1 279.3 462.7"/><path class="cls-11" d="M269.8-53.5c-15.1,71.2-39.9,139.8-69.2,206.3-29.1,65.9-62.4,129.8-95.8,193.6-18,34.5-36.9,69.1-64.3,97a.78.78,0,0,0,1.1,1.1c24-24.5,41.6-54.1,57.7-84.3q25.5-47.7,49.8-96.1c32.7-64.5,63.7-130.2,88.1-198.4A925.5,925.5,0,0,0,271.3-53.1c.2-1-1.3-1.4-1.5-.4Z"/><path class="cls-11" d="M269.9-54.2C238.7,11.9,202.8,75.7,164.6,138.1,125.2,202.5,83.2,265.3,39.3,326.8Q4.2,376-32.5,424.1c-.6.8.7,1.5,1.3.8q66.75-87.15,128-178.4C138.9,183.9,178.9,119.8,215.7,54,235.3,18.8,254-17,271.2-53.4c.4-.9-.8-1.6-1.3-.8Z"/><polygon points="750.5 134.2 836 127.1 895.3 143.7 822.9 149.7 750.5 134.2"/><path class="cls-13" d="M406.8,95.2S459.6,23.1,470-72.2c0,0,38,138.6,67.3,154.6Z"/><path class="cls-11" d="M471.5-71.8A538.81,538.81,0,0,1,340.9,30.3a.76.76,0,0,0,.8,1.3A541.54,541.54,0,0,0,472.6-70.8C473.2-71.4,472.1-72.5,471.5-71.8Z"/><path class="cls-11" d="M470.2-70.1c22.5,15.6,45.2,30.7,69.1,43.9a638.3,638.3,0,0,0,72,33.9c.9.4,1.3-1.1.4-1.4a619,619,0,0,1-73.2-34.6c-23.4-13-45.5-27.8-67.5-43-.8-.7-1.5.6-.8,1.2Z"/><path class="cls-14" d="M278.9,404.2s4.5-177.2-185-137.7c0,0,159.5-69.4,176.8-321.3,0,0,210,252.5,371.5,6,0,0,15.2,54.7,48.3,119.4,1.7,3.4,12.6,24.3,23.7,42.4,18.7,30.2,57,82.6,132.8,137.5a107.85,107.85,0,0,0-24.3,10.1c-13.3,7.4-29.1,19.6-38.6,38.7C784.1,299.3,514.8-162.3,278.9,404.2Z"/><g class="cls-15"><g class="cls-16"><path class="cls-17" d="M421.5,223.3l-.3-.4.4-1.1.2.4-.3,1.1m2.5-22.9c-4.1.6-1.8,6-6.4,7.8a22.21,22.21,0,0,1-3.7.9,30.76,30.76,0,0,1-5.3.4,3,3,0,0,0-.5,2.1,14.79,14.79,0,0,0,1.9,5.7,1.39,1.39,0,0,0,.9,0,4.18,4.18,0,0,0,1-.4,4.19,4.19,0,0,1,1.5-.4h.2l3.6-.4c-1.9,7.2-4,16.4-3.9,17.9a1.85,1.85,0,0,0,.5,1.2c.3,2.3.4,4.4,1.6,4.8l-.1.7a11.3,11.3,0,0,0,2.6,0c.2,0,.3-.1.5-.1.4-2.8.9-6,1.6-9.2h-.2c-.3,0-.4.3-.6.7l-.4-.2c.3-1.1.5-2.2.9-3.4.2.5,0,1.6.5,1.6h0c.3-.1.5-1.4.6-2.2a4.71,4.71,0,0,0-.4-1.7c.2-1,.1-2.3.6-2.5h0c.2,0-.1,1.2.4,1.2h0c.5-.1,1-2.5,1.1-3.8l-.4-.2a5.56,5.56,0,0,0,.9-1.7c.7-3.9,1.2-4.8,2.8-5.2.2-.5.5-.8.9-.8h.1v.7l.6-.1c3.7-2.6,7.8-2.6,10.6-3.7a.9.9,0,0,1-.1-.5c0-.2.1-.4.3-.4h0a1,1,0,0,1,.7.2l.1.3c.1-.4.3-.8.4-1.1a2.86,2.86,0,0,1,.1-2.7c-.7-2.1-2.4-3-4.5-3.4-2.1.6-5.5,2-8.5,3.2l-2.5-5.3h0"/><path class="cls-17" d="M451.9,231.1c-.1,0-.2.1-.2.3l-.6,1.4.1.7c0,.1,0,.1.1.1s.1-.1.1-.2l.8-2-.3-.3h0m-6.6-1.9-.4,2.5c.1,0,.7-.6.9-2.3l-.5-.2m-15.2-.7-.1.1a4.19,4.19,0,0,0-.9,1.4l.9-.3.2-.9a.44.44,0,0,0-.1-.3m19.2,9.3-.3-.4.4-1.3a.55.55,0,0,1,.6-.4l-.7,2.1m-9.9-9.6-.4-.2c.2-.8.4-1.7.8-1.7h0l-.4,1.9m12.5,1,1.6-5.1a.66.66,0,0,1,.5-.4h.1l-1.1,3.4c-.2.9-.6,2-1.1,2.1m-9-30.9c-.5.1-.4.4-.5.6a73.53,73.53,0,0,1-3,9.4c-.1.4-.3.8-.4,1.1-.7,2.1-1.5,4.1-2.1,6.1s-.8,5-1.5,7a20.94,20.94,0,0,0-.8,2.3l-2.6,1.8.8.4c-.8.6-1.8,1-2.2,2.3l.5-.1.7-.1.6-.1a6.73,6.73,0,0,1,2-.1c-.3,4.8-1.7,7.2,1.3,9.2l-.2.8c.2,0,.3.1.5.1h.2l.1-.1.1-.1c.6.7.9,1.3,1.9,1.2.3-2.8,1.3-10.1,2-13,.2-.9.5-1.7,1.2-1.8h0a.55.55,0,0,1,.6.4h0c.2,0,1.3-.3,2.4-.6a30.13,30.13,0,0,1,3-.7h.1l.3.5c-1.2,3.5-2.9,9.2-2.7,12.8.2,2.7,3,4.7,4.4,5.5h0c.7-.1,1.2-3.5,1.8-5.2.4-1.3,1.1-3.2.5-3.6-.7,2.4-1.3,4-1.7,4.1a.22.22,0,0,1-.2-.2c0-.8.6-1.5.8-2.2-.1-.6-.6-2-.2-2.9s.6-1.7.8-2.1a1.06,1.06,0,0,1,.6-.7h.1l.5.2c1.6-3.6,2.1-7.2,3.4-10.8h-.1c-.4.1-.7.6-.9,1.1l-.5,1.6c-.1.3-.2.4-.3.4a.22.22,0,0,1-.2-.2v-.1a34.37,34.37,0,0,1,1.1-3.4c.3-.8.8-1.5,1.4-1.5h.2c.6-1.7,1.9-4.1,1.5-5.2a5.88,5.88,0,0,0,1.4-4.3c.7-.8.7-2.5.6-3.9-.1-2.3-.9-5.3-2.5-5.1h0a1.37,1.37,0,0,0-1,.8c-1.8,5.6-3.3,11.1-5.9,16.1a5.87,5.87,0,0,0-2.3-.4,1.27,1.27,0,0,0-.6.1,5.16,5.16,0,0,0-4.2,2.7l-1,.5a3.63,3.63,0,0,1,1.3-3c.8-2.8,2.3-5.9,2.6-7.9h.3a20.88,20.88,0,0,0-.1-6.6c-1.5-1.5-1.4-3.4-3.9-3.1h0"/><path class="cls-17" d="M478.4,225.2a.1.1,0,0,0-.1.1,32.33,32.33,0,0,1-5.8,3.1.87.87,0,0,0,.9.4,4.7,4.7,0,0,0,2.5-1.9h.3a3.27,3.27,0,0,0,2.3-1.5s0-.2-.1-.2m-14,4c-.4-.3-.4-1.1-.3-2.2l.4.6-.1,1.6m.3-3-.4-.5.4-2.3.5-.1-.5,2.9m0-3.2v-.7c0-.6.2-.9.7-1h.2a5.56,5.56,0,0,1-.9,1.7h0m2.2-9.1c.1-.7.6-1.6,1-1.6h0l-.4,1.4-.6.2m1.3-2.5.7-1.8.6-.3-.7,1.8-.6.3m10.8-8.5-.2-.7c.1,0,.2-.1.3-.1.3-.1.7,0,.7.2l-.8.6m-8.5-7.7c-.8.1-1.4,1.3-2.1,2.4s-1.5,2.3-2.5,2.5h-.3a7.57,7.57,0,0,0-.4,4.7c-2.8,9.6-5.3,15.5-5.1,19.9.4,8.8,4.4,11.6,9.8,10.9h.3c2.8-.4,6.4-2.6,9.3-4.4a2.29,2.29,0,0,0,1.2-1.5c.1-.4.1-.5,0-.4s-.1.1-.2.1c-2.2,1.3-4.7,2.7-6.5,3.6a2,2,0,0,1-1.1.3,2.62,2.62,0,0,1-1.5-.2,76.92,76.92,0,0,0,7.6-3.8c.1-.1.2-.2.1-.2l-1.2-.8,3.1-1.9c.4-.3,1-.8.9-1.1,0-.1-.1-.1-.2-.1s-.1,0-.2.1c-2.3,1.2-5.7,3.2-8.7,4.7a.1.1,0,0,0-.1.1c-.3,0-.5-.2-.7-.5a1,1,0,0,0-.8-.5h0a.85.85,0,0,1-.7.8h0l-.3-.6a11.28,11.28,0,0,1-2.4.8,3,3,0,0,1-2.6-.6c0-1.4.6-8.1,1.8-9,2.2-1.6,9.1-3.9,11.8-4.8l.2-1.4a1.29,1.29,0,0,1-.6-1.5c-1.1-2-1.5-2.6-2.9-2.4h0c-1.4.2-5,2.7-6.9,3.1.7-1.7,1.2-3.2,1.7-4.3,4-2,8.3-2.7,12.4-5.6.4-.5,1.3-1,1.1-1.6,0-.1,0-.1-.1-.1s-.3.3-.4.4c-1.3.9-2.4,1.5-3.7,2.4-.4-1.8.9-.6,2.7-3v-.2h-.1c-.8-.2-1.5-.3-2.3-.5h0a.71.71,0,0,0-.6.3.76.76,0,0,1-.4.2h0l-.5-1.1a18.75,18.75,0,0,1-4.1-.1,10.93,10.93,0,0,0,.6-4.4,17.63,17.63,0,0,0-4-.7h0"/><path class="cls-17" d="M521.1,213.3l-.3-.3.5-1.2.2.3-.4,1.2m.7-1.8-.3-.4.4-.8c.3.3.1.7-.1,1.2m1.5-3.2c0-.6.1-2.2.9-2.3a1.27,1.27,0,0,1,.6.1l-1.5,2.2h0M505.9,205l1-2.6c.3.6-.1,1.6-.5,2.4l-.5.2m21.7-4-.1-.6,2.4-2.9c0,1.1-1.1,2.1-2.3,3.5m2.7-3.2-.1-.5.9-1c0,.8-.4.9-.8,1.5m-37.2-1.6-.6.7c.2,6.2.2,13.5.7,19.7.5,5.6,1.4,10.2,3.3,12.7,0-.2.2-.3.4-.4h0c.4-.1,1.7,2.1,2.2,2h0c.6-.1,4.1-9.2,6.2-13.2,1.1,1.4,2.2,5.1,2.9,6.2l1.5,2.3.2-.5c1,1,1.5,3.5,2.2,3.5h0c1.7-.3,5-7.8,6.8-11-.4-.7-.1-1.5.4-2.6.4-.9.7-1.8,1.2-1.8a.37.37,0,0,1,.3.1c-.3.8-.8,1.7-.3,1.9,1.1-2.5,2.6-4.4,2-6.8l.7.7c1.5-2.2,5-7.8,7.1-10.8h.1c1.2-.2,2.1-1.3,2.9-2.5a11,11,0,0,1-.2-1.8l-.2.2c-.4.5-.8,1-1.2,1.1h0l-.4-.1a5.49,5.49,0,0,0,1.2-2.1l-2-.2c-.2-.5-.7-1-1-1l-2,2.4c-.6-.2-.2-.8.2-1.4h-.2a12.09,12.09,0,0,0-1.8.5c-5,1.6-13.2,22-14.5,22.2h0c-.7.1-1.5-1.5-2.5-1.5,1.5-2.7,2.2-6.8,3.6-9.8l-1.5-5c-.5-1.6-1.8-3-2.8-2.9h0c-.9.1-.6,2.4-1.1,3.5l-2.1,5.1-1,.6-5.9,12.5c-1.9-1.6.8-9.1-.3-13.5-.4-2.9-2.2-7.8-4.5-9"/><path class="cls-17" d="M546.9,217.2h0a37.68,37.68,0,0,1-5.9,3.2.87.87,0,0,0,.9.4,5.07,5.07,0,0,0,2.5-1.8h.3a3.09,3.09,0,0,0,2.3-1.5c0-.2,0-.3-.1-.3m-14,3.9c-.4-.3-.4-1.1-.3-2.2l.4.6-.1,1.6m.2-2.9-.4-.5.4-2.3.5-.1-.5,2.9m.1-3.2v-.7c0-.6.2-.9.7-1h.1a6.53,6.53,0,0,1-.8,1.7h0m2.2-9.1c.1-.7.6-1.6,1-1.6h0l-.4,1.4-.6.2m1.2-2.5.7-1.8.6-.2-.7,1.8-.6.2m10.9-8.6-.2-.7c.1,0,.2-.1.3-.1.3-.1.7,0,.7.2l-.8.6m-8.5-7.7c-.8.1-1.4,1.2-2.1,2.4s-1.5,2.3-2.5,2.5h-.3a5.83,5.83,0,0,0-.6,2.6,5.54,5.54,0,0,0,.2,1.8l.1.3c-2.8,9.6-5.3,15.5-5.2,19.9.4,8.8,4.4,11.6,9.8,11h.2c2.8-.4,6.5-2.6,9.3-4.4a2.55,2.55,0,0,0,1.2-1.5c.1-.4.1-.4,0-.4s-.1.1-.2.1c-2.2,1.3-4.7,2.7-6.5,3.6a2,2,0,0,1-1.1.3,3.81,3.81,0,0,1-1.5-.1c2.5-1.1,5.3-2.5,7.6-3.8.1-.1.2-.2.1-.3l-1.2-.8,3.1-1.9c.4-.3,1-.8.9-1.1,0-.1-.1-.1-.2-.1s-.1.1-.2.1c-2.3,1.2-5.7,3.2-8.7,4.7h-.1c-.3,0-.5-.2-.7-.5a1,1,0,0,0-.8-.5h0a.85.85,0,0,1-.7.8h0l-.3-.6a11.28,11.28,0,0,1-2.4.8,3.11,3.11,0,0,1-2.6-.6c0-1.4.6-8.1,1.8-9,2.2-1.6,9.1-3.9,11.8-4.8l.2-1.4a1.29,1.29,0,0,1-.6-1.5c-1.1-2.1-1.6-2.6-2.9-2.4h0c-1.4.2-5,2.7-6.9,3.1.7-1.7,1.2-3.2,1.7-4.3,4-2,8.3-2.7,12.4-5.6.4-.5,1.2-1,1.1-1.6a.1.1,0,0,0-.1-.1l-.4.4c-1.2.9-2.4,1.5-3.7,2.4-.4-1.8.9-.6,2.7-3v-.2h-.1c-.7,0-1.8-.5-2.3-.4h0a1.08,1.08,0,0,0-.7.3.76.76,0,0,1-.4.2h0l-.5-1.1a18.75,18.75,0,0,1-4.1-.1,10.93,10.93,0,0,0,.6-4.4,17.63,17.63,0,0,0-4-.7h0"/><path class="cls-17" d="M569,214.6h0a37,37,0,0,1-5.9,3.1.87.87,0,0,0,.9.4,5.07,5.07,0,0,0,2.5-1.8h.3a3.27,3.27,0,0,0,2.3-1.5c0-.1,0-.2-.1-.2m-14,3.9c-.4-.3-.4-1.1-.3-2.2l.4.6-.1,1.6m.2-3-.4-.5.4-2.3.5-.1-.5,2.9m.1-3.2v-.7c0-.6.2-.9.7-1h.2a5.56,5.56,0,0,1-.9,1.7h0m2.2-9.1c.1-.7.6-1.6,1-1.6h0l-.4,1.4-.6.2m1.2-2.5.7-1.8.6-.2-.7,1.8-.6.2m10.9-8.6-.2-.7c.1,0,.2-.1.3-.1.3,0,.6,0,.7.2l-.8.6m-8.5-7.7c-.8.1-1.4,1.3-2.1,2.4s-1.5,2.3-2.6,2.5h-.3a7.57,7.57,0,0,0-.4,4.7c-2.8,9.6-5.3,15.5-5.1,19.9.3,8.9,4.4,11.6,9.8,10.9h.3c2.8-.4,6.4-2.6,9.3-4.4a2.55,2.55,0,0,0,1.2-1.5c.1-.4.1-.4,0-.4s-.1,0-.2.1c-2.2,1.3-4.7,2.7-6.5,3.6a4.87,4.87,0,0,1-1.1.4,2.62,2.62,0,0,1-1.5-.2c2.5-1.2,5.4-2.5,7.6-3.8.1-.1.2-.2.1-.2l-1.2-.8,3.1-1.9c.4-.3,1-.8.9-1.1,0-.1-.1-.1-.2-.1h0c-.1,0-.1,0-.2.1-2.3,1.2-5.7,3.2-8.7,4.7l-.1.1c-.3,0-.5-.2-.7-.5a1,1,0,0,0-.8-.5h-.1a.85.85,0,0,1-.7.8h0l-.3-.6a11.28,11.28,0,0,1-2.4.8,3.11,3.11,0,0,1-2.6-.6c0-1.4.6-8.2,1.8-9,2.2-1.6,9.1-3.9,11.8-4.8l.2-1.4a1.29,1.29,0,0,1-.6-1.5c-1.1-2.1-1.6-2.6-2.9-2.4h.1c-1.4.2-5,2.7-6.8,3.1.7-1.7,1.2-3.2,1.7-4.3,4-2,8.3-2.7,12.3-5.6.4-.5,1.2-1,1.1-1.6,0-.1,0-.1-.1-.1s-.3.3-.4.4c-1.2.9-2.4,1.5-3.7,2.4-.4-1.8.9-.6,2.7-3v-.2h-.1c-.7,0-1.8-.5-2.3-.4h0a1.08,1.08,0,0,0-.7.3.76.76,0,0,1-.4.2h0l-.5-1.1a18.75,18.75,0,0,1-4.1-.1,10.93,10.93,0,0,0,.6-4.4,17.63,17.63,0,0,0-4-.7h0"/><path class="cls-17" d="M600.9,216.1l-.1.5a1.23,1.23,0,0,0,1,.2.55.55,0,0,0,.5-.3l-1.4-.4m-1.7-.6c-.1.2.5.9,1.2.9l.1-.5-1.3-.4m-2.2-2.4-.2.5a4.61,4.61,0,0,0,2.6,1c.1,0,.3-.1.3-.2l-2.7-1.3m.4-15.8c-.7.6-1,1.1-1,1.4l1.3-.9-.3-.5m-20.5,20c-.3-.3,0-1.8.2-2.2l.4.3-.6,1.9m1.8-6.1-.6.1.8-2.2a1.8,1.8,0,0,1,.8-.9h.1l-1.1,3m6.9-6.7c-.2,0-.3-.1-.3-.4l.7-.5.2.5a2.09,2.09,0,0,1-.6.4m.9-.7-.1-.6,1.4-1c.2.8-.8,1.3-1.3,1.6m3.6-2.7h-.6l2.2-1.6a2,2,0,0,1-1.6,1.6M602.7,188c-.2-.4.2-1,.4-1.2l.3.7-.7.5m-19.3-6.3-.2.1c-3.5,9.5-7.9,20.8-10.5,32.1l.4.4a15.9,15.9,0,0,0-.7,6.5,1.7,1.7,0,0,1,.7.1,1.74,1.74,0,0,0,.3,1.4l.3-.8a3.53,3.53,0,0,1,.3,1.4,3.11,3.11,0,0,0,2.6.9,65.12,65.12,0,0,1,1.7-8.8c-1-.3-.8-1.9-.3-2.9l.5-.1c-.3.9-.1,1.1.2,1.2a39.43,39.43,0,0,1,1.8-4.8c4.4,2.7,8.2,5.8,11.9,8.4l.1-.7c2.6,1.6,6.5,4.4,8.6,4.2a6,6,0,0,0,1.2-.2,14,14,0,0,0,2.8-.6,3.06,3.06,0,0,0-2-.7c-2.7.3-3.8-2.6-5.5-3.8a.9.9,0,0,1-.5.1,2.09,2.09,0,0,1-1.9-.8l.5-.7c-1.1-.7-1.6-.4-2.9-1.6a.76.76,0,0,0,.2-.5c-.1-.6-1.3-.8-1.9-1.2l.3-.4a61.36,61.36,0,0,1-5.1-5.1c.5-.3,8.1-5.8,8.2-5.8.4-.1.4.5,1,.4h0c.2,0,.6-.2.8-1.1a2.51,2.51,0,0,1-.7.4c-.2,0-.4,0-.5-.2a16.43,16.43,0,0,0,3-2.9l.7.6c.6-1.2,1.2-2.1,1.6-2.1h0c.7-.1-.3.7.3.6h0c.4-.5.8-1.1,1.2-1.6a4.89,4.89,0,0,1,2.2-1.8h.2l-.2-3.1h-.3c-.1,0-.2,0-.4-.2l.9-.8c-.8-1.7-1.8-2.8-2.5-2.7h0a12,12,0,0,0-2.6,1.8,10.65,10.65,0,0,1-2.8,1.9h-.1a.55.55,0,0,1-.2.9h0a.78.78,0,0,1-.6-.3,1.49,1.49,0,0,1-.7,1.5l-.2-.3c-3.5,2.4-6.6,5-10.1,7.7-.7-.9,3-7.9,2.9-9.6s-1.6-6.8-4-6.4"/><path class="cls-17" d="M628.2,202.1c-.4.1-.4,1.1-.4,1.8l.4.3.1-2.1c0,.1,0,.1-.1,0m2.4-9.9c-.5-.2.2-1.6.5-2.4a.1.1,0,0,1,.1-.1.45.45,0,0,1,.3.4l-.9,2.1m.7-3,.8-1.7c0-.1.1-.1.2-.1s.3.3.2.4l-.7,1.7c-.1-.2-.1-.3-.3-.3h-.2m-18.6-1c-.1,0-.3,0-.3-.1l.9-1.5.4.3c-.3.4-.6,1.3-1,1.3m22.8-5.6-.1-.5.8-1c.2.9-.3,1-.7,1.5m-5.1.7a.32.32,0,0,1-.3-.3,6.11,6.11,0,0,1,.7-1.4l.4.2-.8,1.5h0m3.3-4.2a4.42,4.42,0,0,0-2.4,1.1,90.54,90.54,0,0,0-6.5,12.8l-.3-.2c-.1,0,.1-.4.4-1.4a73.65,73.65,0,0,1,5.4-10.9l-1,.3c-1,.6-5.1,10-7.8,17.5-.6-2.4-1.4-6.1-2.1-7.9-.8-2.1-4.8-4.8-6.2-5.3-3.4,5.3-8.3,12.2-10.9,23a7.79,7.79,0,0,0-.3,3.7l.4,2.6c.6.3,1.6,4.2,2.9,4.1l1.3-.1c1.9-3.9,3.5-12,5.5-17.9l-.2-1c1-3,2.5-5,3.9-5.8l.4,2.3c.5,3.1-.5,5,.9,9.1.4,1.3.2,4.1.4,5.6.7,4,1,5.5,4.1,6.2l.2-.9,2.2,1c1.2-5.1,2.5-10.1,3.3-14.9.1-.6.8-1,.8-1.4.2-.9.1-1.7.3-2.2,1-2.4,1.9-3.7,1.8-5.9l.1-.1c.1,0,.2,0,.2.1s.1.1.2.1.1-.1.2-.2a32.22,32.22,0,0,1,8.5-10.9l-1.4-1.7a3.92,3.92,0,0,1-1.4.8h0l-.1-.2.9-.9a5.15,5.15,0,0,0-3.7-.5"/><path class="cls-17" d="M643,210.6V210l1.4-1.2-.2.8-1.2,1m2-1.6h0a12.07,12.07,0,0,1,2.1-2.8v.1a.8.8,0,0,0,.2,1L645,209m3.9-3.7a2.22,2.22,0,0,0,.5-1.1c1.4-1.4,3-2.8,3.9-3.8a4.81,4.81,0,0,1,2.3-1.7h.1v.1c-2,2-4.5,4.9-7,7.3a2,2,0,0,0-1.1-.3,1.6,1.6,0,0,1,.9-.7.4.4,0,0,1,.4.2m7.1-7.1c-.2,0-.4,0-.5-.2l1.5-1.3.4.1-.9,1c-.2.3-.3.4-.5.4m5.2-5.9-.6-.1.3-.6.6.1-.3.6m-15.9.6h0c.3-.5.6-.7.8-1.1l-.1-1.9c2.3-1.3,4.9-4.6,11.9-5.7l1-.1c.4,2-1.5,5.9-2.7,6.1h-.3c-1.5,2.6-2.3,3.7-2.8,3.8h0c-.1,0-.3,0-.5-.4l-.4.4.3.8c-.3-.1-.5,0-.7-.3-2.2,2.9-5.8,5.2-7.4,6.8.1-2.3.9-4.1.9-5.5a5.64,5.64,0,0,0-.4-1.2v-.1l.6.3h0c.2,0,.3-.6.2-1.1s-.1-1-.4-1c.1,0,.1.1,0,.2m1.3-20.5c-2.4.4-2.2,6.5-4.2,9.8l-.5-.4c-1.2,1-3.4,2-3.3,3.6s1.8,2.4,1.9,4.1c0,2.4-1.3,4.6-1.8,7.4l.2.9c-.3,2.4-.7,4.7-1.2,7a3.36,3.36,0,0,1-1.3,2l-1.1.8a8.52,8.52,0,0,1-.3,2.3c1.1,1.6,2.3,5.6,5.1,5.2h.1c.3-.1.5-.1.8-.2a1.85,1.85,0,0,1,.7-.2,1,1,0,0,1,.9.2l.2-3.4a78.36,78.36,0,0,0,15.8-15.7l-.8-.1a22.24,22.24,0,0,0,1.8-2.3,1,1,0,0,1,.7-.4h.3l-.6,1h.1a1.78,1.78,0,0,0,1.1-.8,34.65,34.65,0,0,0,2.6-5.5c-.4-2.6-.9-7.2-5.3-8.4-1-.3-2.3,0-2.8-.4a1.35,1.35,0,0,1-.9.9c-.3,0-.5-.1-.3-.7a17,17,0,0,0-2.2.1,8.47,8.47,0,0,0-1.7.4,4,4,0,0,1-1.5.3h-.3a13,13,0,0,0,.2-3.4c-.2-.8-2.1-4.2-2.4-4.1l-.1-.1"/></g></g><path class="cls-18" d="M284,403.2l.3-3.5,6.2-1.2L320.7,377c-2.5,5.6-4.9,11.4-7.4,17.2l4.6-.9c62.3-147.4,132.4-228.2,208.7-240.2l-.1-.4.5.2,13.4-28.8c4.3-.2,8.7-.1,13.1.1L571,152.5l-.2,1.2,1.1.2v.1h.1c81.5,15.6,150.3,103.4,184.6,155.5l3-.6,1-.2.1-.1c-2.4-3.6-5-7.5-7.7-11.5l17.6-15.2c7.6,11.2,11.7,18.2,11.8,18.4h0l2.3,3.8,4.1-.8-3.4-5.4A539.32,539.32,0,0,0,713.6,206c-26.1-26.5-52.8-47.2-79.3-61.6-33.3-18-66.6-26.1-98.9-23.9-96,6.4-182.9,101.6-258.5,283l2.1.9,1.1,1.5ZM625.3,169.9l34.6.4-17.1,10.5C637,176.8,631.1,173.2,625.3,169.9ZM729,264.6,741.4,252l-4,23.4C734.7,271.9,731.9,268.2,729,264.6Zm21.8,29.3c-2.8-4-5.7-8.1-8.8-12.3l23.9-.8Zm16.3-17-26.1.8,5-29.1c8.4,10.5,15.5,20.2,21.1,28.3Zm-24.3-32.4-.1.8-14.4,14.6-3.5-36.5c6.4,7.1,12.4,14.3,18,21.1Zm-18.7,13.8c-5.4-6.6-11.1-13.4-17.1-20.1l13.8-13.7Zm-19.7-23c-4.7-5.2-9.6-10.3-14.7-15.4l30,.2Zm6.4-26.7c2.5,2.5,4.9,5.1,7.3,7.6l-29.8-.2,8.3-21.2c4.8,4.5,9.5,9.1,14.2,13.8ZM684.5,215l-1.2-1.2c-4-3.8-8-7.5-12-11l21.3-8.2Zm7.5-24.4-22.2,8.6-1.1-27.9C676.5,177.2,684.2,183.6,692,190.6Zm-26.2,7.5c-6.5-5.4-12.9-10.3-19.4-14.9L664.7,172Zm-3.7-31.7-37.3-.4,16.5-13.2c6.9,4.1,13.9,8.7,20.8,13.6Zm-29.6-18.6c1.7.9,3.5,1.9,5.2,2.9l-17.4,13.9-8.2-26.5a190.36,190.36,0,0,1,20.4,9.7Zm-16.1,17.4a174.87,174.87,0,0,0-30.3-11.9l21.8-15.8Zm-11.8-30.1L581.2,152c-2.3-.6-4.6-1.1-6.9-1.6l-16-25.9A175.9,175.9,0,0,1,604.6,135.1ZM324.3,368.8l-19-12,26.8-5C329.5,357.4,326.9,363.1,324.3,368.8Zm11.5-24.7L327,315.9l17.2,11.2c-2.8,5.5-5.6,11.2-8.4,17ZM347.4,321l-3-37.6,17.3,11.5c-4.8,8.4-9.6,17.1-14.3,26.1Zm71.1-106.2-20-6.7,35.6-9.4c-5.2,5.1-10.4,10.4-15.6,16.1ZM504,154.5l-7.2-18,25.6,13.3a150.44,150.44,0,0,0-18.4,4.7Zm31.8-30.2h.2L525.5,147l-28.6-14.9a155.28,155.28,0,0,1,38.9-7.8Zm-35.5,31.5a159.47,159.47,0,0,0-17.5,7.6l9.9-26.6Zm-11-21-11.6,31.4-.2.1L451.4,155a191.33,191.33,0,0,1,37.9-20.2Zm-16,33.9a205.09,205.09,0,0,0-29,20.9l5.2-31.3Zm-28-9.5-5.4,32.6L419.2,181a259.81,259.81,0,0,1,26.1-21.8Zm-29.1,24.6L436,194.2l-39.6,10.4c6.5-7.4,13.1-14.4,19.8-20.8Zm-.5,34.2c-5.9,6.7-11.7,13.8-17.5,21.5l-4-28.6Zm-25.3-6.3,4.2,30.6-25.4-3.2c7-9.7,14-18.9,21.2-27.4Zm2.9,34.4c-4,5.5-8,11.2-12,17.2L368.4,243ZM365,245l13,20.6-32,8.5C352.3,263.9,358.6,254.2,365,245Zm11.9,25c-4.4,6.9-8.9,14.1-13.2,21.6l-19.3-12.9Zm-36.5,13.5,3.1,38.4-18.2-11.8c5-9.2,10.1-18.1,15.1-26.6Zm-17.7,31.6,10.1,32.6-29.2,5.4C309.9,339.9,316.3,327.2,322.7,315.1ZM301,358.8l20.4,12.9-38.1,27.2C289.1,385,295,371.6,301,358.8Z"/><polygon class="cls-9" points="175.29 242.55 270.52 234.51 291.04 461.64 195.81 469.68 175.29 242.55"/><polygon class="cls-10" points="195.82 469.6 99.81 444.4 79.63 221.5 175.23 242.5 195.82 469.6"/><ellipse cx="231.63" cy="322.51" rx="29.27" ry="49.71" transform="translate(-27.72 21.84) rotate(-5.09)"/><polygon points="80.05 223.6 192.61 214.5 270.72 235.6 175.54 243.2 80.05 223.6"/></svg>
