<svg id="Layer_1" data-name="Layer 1" xmlns="http://www.w3.org/2000/svg" viewBox="0 0 1750 2000"><defs><style>.cls-1{fill:#f7936d;}.cls-2{fill:#534741;}.cls-3{fill:#42210b;}.cls-4{fill:#fbba3b;}.cls-5{fill:#e6e6e6;}.cls-6{fill:#fcd921;}.cls-7{fill:#fcb321;}.cls-8{fill:#f2f2f2;}.cls-9{fill:#ffffed;}.cls-10{fill:#faf8d8;}.cls-11{fill:#fff;}.cls-12{fill:#0071bc;}.cls-13{fill:none;}.cls-14{fill:#e13600;}.cls-15{fill:#29abe2;}</style></defs><title>Artboard 1</title><g id="Layer_9" data-name="Layer 9"><polygon class="cls-1" points="88.1 356.2 101.5 368.2 106.6 355.5 93.7 342.9 88.1 356.2"/><polygon class="cls-1" points="294.6 205.1 282.7 200.6 280.2 208.9 292.1 213.1 294.6 205.1"/><path d="M280.2,208.9,263,265.6l-33-37.4s-3.4-3.2-35.8.3l-.2-16.1s-.6,4.1-36.5,2L155.1,234l-18.8,5.1-43,103.6,13,12.6,37.9-93.2L143,350l71.6-.9-.5-101.2,50.8,32.2,8.2-5.8,19-61.6Z"/></g><g id="Layer_8" data-name="Layer 8"><circle class="cls-1" cx="176.4" cy="147.3" r="68.6"/></g><g id="Layer_6" data-name="Layer 6"><path class="cls-2" d="M193.9,131.9s14.6-8.8,25.3,4.1c0,0,1.5,6.6-4.7,4.1a29.4,29.4,0,0,0-18.5-1.8C195.9,138.3,190.6,137.6,193.9,131.9Z"/><path class="cls-2" d="M138,135.4s10.6-12.4,25.4-4.2c0,0,3.4,6.3-3.2,6.2,0,0-13.5-1.9-18.1,2.4C142.1,139.9,136.7,142.3,138,135.4Z"/></g><g id="Layer_7" data-name="Layer 7"><path class="cls-3" d="M189.3,121.9s6-6.6,18.2-5.6c0,0,14.2,2.2,19,10.4,0,0,3.7,4.2-1.8,2.6,0,0-10.3-7.7-34.7-5.7C190,123.5,188.6,122.8,189.3,121.9Z"/><path class="cls-3" d="M127.6,129.8s2.4-11.4,20.5-14c0,0,15.1-2.6,21.5,6.2,0,0,.2,2.3-4.1,1.7,0,0-22.9.1-25.6,1.9,0,0-7.8,1.9-10.2,4.5A1.7,1.7,0,0,1,127.6,129.8Z"/><path d="M137.8,157.7s49,12.7,82.8,0c0,0,5.4-2.1,2.3,2.8,0,0-20.8,25.2-39.7,24.8,0,0-33.4-2.4-45.5-23.9C137.8,161.4,132.8,155.4,137.8,157.7Z"/></g><g id="Layer_5" data-name="Layer 5"><path class="cls-4" d="M194,89.5s-32.5,46.3-46.5,37.2c0,0,17-12.6,13.4-18.4,0,0-36.1,39.1-53.2,39.7,0,0-37.1-77.8,70.9-79.7,0,0,54-3.1,70.4,41.3,0,0-24.4-11-26.8-16.7,0,0,10.1,8.9,12.4,16.1,0,0-21.9-10.9-28-19.6,0,0,7.5,8.8,6.1,10.2C212.6,99.6,195.8,93.1,194,89.5Z"/></g><g id="Layer_17" data-name="Layer 17"><path class="cls-5" d="M329.6,185.2v31s.4,6.4-15.4,6.9c0,0-13.7.7-15.3-6.7v-1.7s-.9-1.8-4.6-2.2c0,0-5.7-.7-6.3-6,0,0-2.1-12.5,1.2-16.8,0,0,1.4-2.4,5.7-2.8a14.27,14.27,0,0,0,2.2-.8Z"/><path class="cls-6" d="M301.8,195.7l.3,18s13.1,8.8,24.6,0l.2-18s-3.2,3.3-13.3,2.8C313.6,198.5,303.2,198.8,301.8,195.7Z"/><ellipse class="cls-7" cx="314.4" cy="195.6" rx="12.6" ry="3.2"/><path class="cls-8" d="M303.6,189.4l.2,11.7a.87.87,0,0,0,.6.8l3.9.8s.5,0,.5-.4V191.7a2.57,2.57,0,0,0-1.6-.7s-1.2-1.6-2.4-1.6Z"/><path class="cls-8" d="M317.3,220.5s4.6-1,5.2-1.6a11.33,11.33,0,0,0,4-2.3s.4,0,0,.7c0,0-1.5,2.5-3.6,2.8,0,0-3.1,1.1-4.3.9h-1.1S316.6,221,317.3,220.5Z"/><path class="cls-8" d="M290,194.6s-1-1,.7-3.8c0,0,1.8-2.9,4.6-2,0,0,.2.6-1.7,1,0,0-2,.9-2.3,2a10.2,10.2,0,0,0-.9,2.2C290.5,194,290.3,194.7,290,194.6Z"/><path class="cls-9" d="M322,196.8a3.13,3.13,0,0,1-3.2-2.3l-.9-3.8a3,3,0,0,0-3.8-1.9H314a8.64,8.64,0,0,1-7.2-.6s-1.6-2-4.9-.9c0,0-2.9.9-4.4-.9a6.36,6.36,0,0,1-1.4-2.2l13.8-4.7,11.4-.3,11.3-.3s.1.6.2.6a8.34,8.34,0,0,1,.8,1.2s.8,1.8,0,2.8c0,0-.6,1.2-1.3,1.4,0,0-1,.2-1.1.5a2.84,2.84,0,0,0-.4,1.2s-.4.8-.9,1a8,8,0,0,1-1.6.8,2.13,2.13,0,0,0-2.1,1.8,33.92,33.92,0,0,1-.8,4.4s-.6,1.3-1.4,1.6A3.61,3.61,0,0,1,322,196.8Z"/><path class="cls-10" d="M308.4,171.1a7.36,7.36,0,0,1,8.8.4s6.7-2.9,9.9,2.8c0,0,6.5.8,5.4,4.8,0,0-1.8,2.5-5.1.6a2.51,2.51,0,0,1-1.9.1s-1.3,2.9-2.1,2.5c0,0-1.7,1.7-2.9,1.1a2.09,2.09,0,0,1-1.6-1.1l-.8-.9s-.3-.4-.7.1c0,0-.6.8-1.2.6,0,0-.8-.4-1.7,1.4a3.53,3.53,0,0,1-1.4.3s-2,1.5-3.5,1.2a4.76,4.76,0,0,1-4.2-3,5.41,5.41,0,0,1-2.7,1.4s-.5.1-.5,0-.4-.2-.8.3c0,0-.5,1.1-3.2,1.1,0,0-1.5,0-2-.7,0,0-.8-2.2.1-3.5a2.05,2.05,0,0,0,0-1.6,4.37,4.37,0,0,1,1.4-5.2s.5-1.3,4.4-1.1a7,7,0,0,1,3.4-1.8A15.15,15.15,0,0,1,308.4,171.1Z"/><circle class="cls-7" cx="317.8" cy="201.9" r="0.7"/><circle class="cls-7" cx="318.9" cy="204.4" r="0.8"/><circle class="cls-7" cx="321.7" cy="203.1" r="0.5"/><circle class="cls-7" cx="321.3" cy="206.6" r="0.9"/><circle class="cls-7" cx="322.8" cy="205.2" r="0.6"/><circle class="cls-7" cx="319" cy="208.2" r="0.4"/><circle class="cls-7" cx="320.6" cy="208.8" r="0.6"/><circle class="cls-7" cx="321.3" cy="211.5" r="0.7"/><circle class="cls-7" cx="319" cy="212.2" r="0.7"/><circle class="cls-7" cx="321.4" cy="212.9" r="0.2"/><circle class="cls-7" cx="320.2" cy="214.7" r="0.6"/><path class="cls-8" d="M319.3,188s2.2-1.2,2.9,2.5a11.38,11.38,0,0,1,.2,3.7.72.72,0,0,1-.9.7s-1-.9-.9-3.5c0,0,0-1.6-.3-1.9C320.2,189.5,318.7,188.1,319.3,188Z"/></g><g id="Layer_11" data-name="Layer 11"><path class="cls-11" d="M292.3,200.1s-.6-7.8,3-7.7c0,0,3.6-.8,3.1,7.7,0,0,.4,7.6-3,7.3C295.3,207.4,292.2,208.9,292.3,200.1Z"/></g><g id="Layer_10" data-name="Layer 10"><rect class="cls-12" x="159.3" y="350.1" width="13.2" height="62"/><rect class="cls-1" x="159.3" y="412" width="13.2" height="11.7"/><polygon class="cls-1" points="195.2 423.8 205.8 423.8 209.8 412 198 412 195.2 423.8"/><polygon class="cls-12" points="198.8 349.7 180.3 349.8 203.9 386.7 198 412 209.8 412 218.2 387 198.8 349.7"/></g><g id="Layer_13" data-name="Layer 13"><polygon class="cls-1" points="432.1 273.2 417.8 284.1 429.3 291.5 444.2 281.2 432.1 273.2"/><polygon class="cls-1" points="644.4 205.6 632.5 201.1 630 209.4 642 213.6 644.4 205.6"/><circle class="cls-1" cx="526.2" cy="147.9" r="68.6" transform="translate(49.54 415.4) rotate(-45)"/><path class="cls-2" d="M543.7,132.4s14.6-8.8,25.3,4.1c0,0,1.5,6.6-4.7,4.1a29.4,29.4,0,0,0-18.5-1.8S540.5,138.2,543.7,132.4Z"/><path class="cls-2" d="M487.8,135.9s10.6-12.4,25.3-4.2c0,0,3.4,6.3-3.2,6.2,0,0-13.5-1.9-18.1,2.4C491.9,140.4,486.5,142.9,487.8,135.9Z"/><path class="cls-3" d="M539.1,122.4s6-6.6,18.2-5.6c0,0,14.2,2.2,19,10.4,0,0,3.7,4.2-1.8,2.6,0,0-10.3-7.7-34.7-5.7C539.8,124,538.4,123.3,539.1,122.4Z"/><path class="cls-3" d="M477.4,130.3s2.4-11.4,20.5-14c0,0,15.1-2.6,21.5,6.2,0,0,.2,2.3-4.1,1.7,0,0-22.9.1-25.6,1.9,0,0-7.8,1.9-10.2,4.5A1.7,1.7,0,0,1,477.4,130.3Z"/><path class="cls-4" d="M543.8,90.1s-32.5,46.3-46.5,37.2c0,0,17.1-12.6,13.4-18.4,0,0-36.1,39.1-53.2,39.7,0,0-37.1-77.8,70.9-79.7,0,0,54-3.1,70.4,41.3,0,0-24.4-11-26.8-16.7,0,0,10.1,8.9,12.4,16.1,0,0-21.8-10.9-28-19.6,0,0,7.5,8.8,6.1,10.1C562.4,100.1,545.6,93.7,543.8,90.1Z"/><path class="cls-5" d="M678,183.6l3.7,30.8s1.1,6.3-14.4,8.7c0,0-13.5,2.3-16-4.9l-.2-1.7s-1.1-1.7-4.8-1.6c0,0-5.7,0-7-5.2,0,0-3.6-12.1-.8-16.8,0,0,1.1-2.5,5.3-3.4a7,7,0,0,0,2.1-1.1Z"/><path class="cls-6" d="M651.6,197.3l2.4,17.8s14.1,7.1,24.4-2.9l-1.9-17.9s-2.8,3.7-12.9,4.3C663.7,198.6,653.3,200.2,651.6,197.3Z"/><ellipse class="cls-7" cx="664.11" cy="195.7" rx="12.6" ry="3.2" transform="translate(-18.58 80.49) rotate(-6.84)"/><path class="cls-8" d="M652.6,190.8l1.6,11.6a1,1,0,0,0,.7.7l3.9.4s.5-.1.5-.4L658,192.6a2.62,2.62,0,0,0-1.7-.5s-1.4-1.4-2.6-1.3Z"/><path class="cls-8" d="M669.9,220.1s4.5-1.5,5-2.2a12.9,12.9,0,0,0,3.8-2.8s.4,0,.1.7c0,0-1.2,2.7-3.3,3.2,0,0-3,1.5-4.1,1.4a4.1,4.1,0,0,1-1.1.1C670.3,220.6,669.3,220.6,669.9,220.1Z"/><path class="cls-8" d="M639.7,197.6s-1.1-.9.2-3.9c0,0,1.4-3.1,4.4-2.5,0,0,.3.6-1.5,1.2,0,0-1.9,1.1-2,2.2a8.65,8.65,0,0,0-.6,2.3S640,197.7,639.7,197.6Z"/><path class="cls-9" d="M671.8,196a3.1,3.1,0,0,1-3.4-1.9l-1.3-3.7a3,3,0,0,0-4-1.4h0a8.63,8.63,0,0,1-7.2.2s-1.8-1.8-5-.3c0,0-2.7,1.2-4.5-.4a8.2,8.2,0,0,1-1.7-2l13.1-6.3,11.2-1.6,11.2-1.6.2.6a5.24,5.24,0,0,1,1,1.1s1,1.6.3,2.8c0,0-.4,1.3-1.1,1.5,0,0-.9.3-1,.6a1.72,1.72,0,0,0-.2,1.2s-.2.9-.8,1.1a5.6,5.6,0,0,1-1.5,1,2.23,2.23,0,0,0-1.9,2,31.45,31.45,0,0,1-.3,4.4,3.6,3.6,0,0,1-1.2,1.8A2.46,2.46,0,0,1,671.8,196Z"/><path class="cls-10" d="M655.2,172.1a7.37,7.37,0,0,1,8.8-.6s6.3-3.7,10.1,1.6c0,0,6.5,0,5.9,4.2,0,0-1.5,2.7-5,1.2a2.27,2.27,0,0,1-1.8.3s-1,3-1.8,2.7c0,0-1.5,1.9-2.7,1.5a2.23,2.23,0,0,1-1.7-.9l-.9-.8s-.3-.4-.7.2c0,0-.5.9-1.1.8,0,0-.8-.3-1.5,1.6a3.36,3.36,0,0,1-1.4.5s-1.8,1.8-3.3,1.7a4.66,4.66,0,0,1-4.5-2.5,4.89,4.89,0,0,1-2.5,1.7s-.4.2-.5.1-.4-.2-.8.4c0,0-.4,1.2-3,1.5a2.85,2.85,0,0,1-2.1-.5s-1-2.1-.3-3.5c0,0,.2-1.1-.2-1.5a4.13,4.13,0,0,1,.8-5.3s.3-1.3,4.2-1.6a6.82,6.82,0,0,1,3.1-2.2A4.16,4.16,0,0,1,655.2,172.1Z"/><circle class="cls-7" cx="668.2" cy="201.6" r="0.7"/><circle class="cls-7" cx="669.6" cy="203.9" r="0.8"/><circle class="cls-7" cx="672.2" cy="202.3" r="0.5"/><circle class="cls-7" cx="672.2" cy="205.8" r="0.9"/><circle class="cls-7" cx="673.5" cy="204.3" r="0.6"/><circle class="cls-7" cx="670.1" cy="207.7" r="0.4"/><circle class="cls-7" cx="671.8" cy="208.1" r="0.6"/><circle class="cls-7" cx="672.8" cy="210.7" r="0.7"/><circle class="cls-7" cx="670.6" cy="211.6" r="0.7"/><circle class="cls-7" cx="673.1" cy="212.1" r="0.2"/><circle class="cls-7" cx="672.1" cy="214" r="0.6"/><path class="cls-8" d="M668,187.6s2-1.4,3.2,2.1a11.33,11.33,0,0,1,.6,3.6.71.71,0,0,1-.8.8s-1.1-.7-1.3-3.4c0,0-.2-1.6-.6-1.8C669.1,188.9,667.5,187.8,668,187.6Z"/><path class="cls-11" d="M642.1,200.6s-.6-7.8,3-7.7c0,0,3.7-.8,3.1,7.7,0,0,.4,7.5-3,7.3C645.1,207.9,642,209.4,642.1,200.6Z"/><rect class="cls-12" x="536" y="350.6" width="13.2" height="62"/><rect class="cls-1" x="536" y="412.6" width="13.2" height="11.7"/><polygon class="cls-1" points="515.7 424.3 505.5 424.3 501.6 412.6 513 412.6 515.7 424.3"/><polygon class="cls-12" points="512.2 350.2 530.1 350.4 507.2 387.2 513 412.6 501.6 412.6 493.4 387.5 512.2 350.2"/><polygon points="469.4 313.3 470.2 312.5 470 312.4 469.4 313.3"/><polygon points="459 305.3 463.8 293.6 444.2 280.8 429.4 291.2 467.2 315.6 469.4 313.3 470 312.4 459 305.3"/><polygon points="477.7 302.8 481.1 294.6 476.5 302 477.7 302.8"/><path d="M630,209.4l-17.2,56.8-33-37.4s-3.4-3.2-35.8.3l-.2-16.1s-.6,4.1-36.5,2l-2.4,19.6-18.8,5.1-22.3,53.8,12.7,8.3,4.6-7.4,13-31.7-1.2,87.9,71.6-.9L564,248.5l50.8,32.2,8.2-5.8,19-61.6Z"/><polygon points="470 312.4 470.2 312.5 476.5 305.8 477.7 302.8 476.5 302 470 312.4"/><polygon points="470 312.4 476.5 302 463.8 293.6 459 305.3 470 312.4"/><g id="Layer_16" data-name="Layer 16"><path d="M496.5,161.5s40.8,12.7,69,0c0,0,4.5-2.1,2,2.8,0,0-17.3,25.2-33,24.8,0,0-27.8-2.4-37.9-23.9C496.5,165.2,492.3,159.2,496.5,161.5Z"/></g></g><g id="Layer_14" data-name="Layer 14"><polygon class="cls-1" points="755.5 295.3 760.2 312.6 771.4 304.9 767.5 287.2 755.5 295.3"/><polygon class="cls-1" points="994.4 205.9 982.5 201.3 980 209.6 992 213.8 994.4 205.9"/><circle class="cls-1" cx="876.2" cy="148.1" r="68.6"/><path class="cls-2" d="M893.7,132.7s14.6-8.8,25.3,4.1c0,0,1.5,6.6-4.7,4.1a29.4,29.4,0,0,0-18.5-1.8S890.5,138.4,893.7,132.7Z"/><path class="cls-2" d="M837.8,136.1s10.6-12.4,25.3-4.2c0,0,3.4,6.3-3.2,6.2,0,0-13.5-1.9-18.1,2.4C841.9,140.6,836.5,143.1,837.8,136.1Z"/><path class="cls-3" d="M889.1,122.6s6-6.6,18.2-5.6c0,0,14.2,2.2,19,10.4,0,0,3.7,4.2-1.8,2.6,0,0-10.3-7.7-34.7-5.7C889.8,124.2,888.4,123.5,889.1,122.6Z"/><path class="cls-3" d="M827.4,130.5s2.4-11.4,20.5-14c0,0,15.1-2.6,21.5,6.2,0,0,.2,2.3-4.1,1.7,0,0-22.9.1-25.6,1.9,0,0-7.8,1.9-10.2,4.5A1.7,1.7,0,0,1,827.4,130.5Z"/><path d="M852.3,158.5s32.6,12.7,55.1,0c0,0,3.6-2.1,1.5,2.8,0,0-13.8,25.2-26.4,24.8,0,0-22.2-2.4-30.3-23.9C852.3,162.2,849,156.1,852.3,158.5Z"/><path class="cls-4" d="M893.8,90.3s-32.5,46.3-46.5,37.2c0,0,17-12.6,13.4-18.4,0,0-36.1,39.1-53.2,39.7,0,0-37.1-77.8,70.9-79.7,0,0,54-3.1,70.4,41.3,0,0-24.4-11-26.8-16.7,0,0,10.1,8.9,12.4,16.1,0,0-21.8-10.9-28-19.7,0,0,7.5,8.8,6.1,10.2C912.4,100.3,895.6,93.9,893.8,90.3Z"/><path class="cls-5" d="M1018.2,174.6l14.1,27.6s3.2,5.5-10.5,13.1c0,0-11.9,6.8-16.7.9l-.8-1.5s-1.6-1.2-5,.1c0,0-5.4,1.9-8.4-2.5,0,0-7.6-10.2-6.5-15.5,0,0,.2-2.8,3.8-5a6.9,6.9,0,0,0,1.6-1.8Z"/><path class="cls-6" d="M998.2,196.6l8.4,15.9s15.7,1.9,21.9-11.2l-7.9-16.1s-1.3,4.4-10.6,8.5C1010,193.7,1000.8,198.6,998.2,196.6Z"/><ellipse class="cls-7" cx="1009.42" cy="190.78" rx="12.6" ry="3.2" transform="translate(23.31 478.72) rotate(-26.98)"/><path class="cls-8" d="M997,190.1l5.5,10.3a.87.87,0,0,0,.9.4l3.8-1s.5-.2.3-.6l-4.8-9.4a2.79,2.79,0,0,0-1.8.1s-1.8-.9-2.9-.3Z"/><path class="cls-8" d="M1023.3,211.6s3.7-3,3.9-3.7a12.68,12.68,0,0,0,2.6-3.9s.4-.2.3.6c0,0-.2,2.9-2,4.2,0,0-2.3,2.4-3.4,2.8a4.67,4.67,0,0,1-1,.5C1023.7,212,1022.9,212.4,1023.3,211.6Z"/><path class="cls-8" d="M987.1,201s-1.3-.4-1.1-3.7c0,0,.2-3.4,3.2-3.9,0,0,.4.4-1,1.6,0,0-1.4,1.7-1.2,2.8a19.42,19.42,0,0,0,.2,2.4C987.4,200.2,987.5,200.9,987.1,201Z"/><path class="cls-9" d="M1016.7,188.3a3.19,3.19,0,0,1-3.9-.6l-2.5-3a2.9,2.9,0,0,0-4.2.1v.1a8.48,8.48,0,0,1-6.7,2.7s-2.3-1-4.8,1.4c0,0-2.2,2.1-4.4,1.2a6.11,6.11,0,0,1-2.2-1.3l10.1-10.4,10-5.4,10-5.4s.4.5.4.4a8.26,8.26,0,0,1,1.3.7s1.5,1.2,1.3,2.5c0,0,.1,1.4-.5,1.8,0,0-.8.6-.8.9a2.34,2.34,0,0,0,.2,1.2,2.77,2.77,0,0,1-.3,1.3,7.1,7.1,0,0,1-1,1.4,2.16,2.16,0,0,0-1.1,2.5,30.56,30.56,0,0,1,1.3,4.3,3.14,3.14,0,0,1-.5,2.1A3.38,3.38,0,0,1,1016.7,188.3Z"/><path class="cls-10" d="M992.9,171.7a7.39,7.39,0,0,1,8.1-3.6s4.6-5.6,10.1-2c0,0,6.1-2.3,7,1.9,0,0-.5,3-4.3,2.9a2.6,2.6,0,0,1-1.6.9s.2,3.2-.8,3.2c0,0-.7,2.3-2,2.3a2.09,2.09,0,0,1-1.9-.3l-1.1-.4s-.4-.2-.5.4c0,0-.1,1-.8,1.1,0,0-.9,0-.9,2a2.73,2.73,0,0,1-1.2.9s-1.1,2.3-2.6,2.7c0,0-3,1.4-5.1-.8a4.41,4.41,0,0,1-1.8,2.4,2.19,2.19,0,0,1-.5.3c-.1,0-.5,0-.6.7,0,0,0,1.2-2.3,2.4a2.58,2.58,0,0,1-2.1.3s-1.7-1.6-1.5-3.1c0,0-.2-1.1-.7-1.4a4.19,4.19,0,0,1-1.1-5.3s-.2-1.4,3.4-3a6.15,6.15,0,0,1,2.2-3.1A4.18,4.18,0,0,1,992.9,171.7Z"/><circle class="cls-7" cx="1015.3" cy="194.8" r="0.7"/><circle class="cls-7" cx="1017.4" cy="196.6" r="0.8"/><circle class="cls-7" cx="1019.3" cy="194.1" r="0.5"/><circle class="cls-7" cx="1020.5" cy="197.4" r="0.9"/><circle class="cls-7" cx="1021.2" cy="195.5" r="0.6"/><circle class="cls-7" cx="1019.1" cy="199.9" r="0.4"/><circle class="cls-7" cx="1020.9" cy="199.7" r="0.6"/><circle class="cls-7" cx="1022.8" cy="201.8" r="0.7"/><circle class="cls-7" cx="1021" cy="203.5" r="0.7"/><circle class="cls-7" cx="1023.5" cy="203" r="0.2"/><circle class="cls-7" cx="1023.3" cy="205.1" r="0.6"/><path class="cls-8" d="M1010.3,181.8s1.4-2,3.7.9a9.16,9.16,0,0,1,1.8,3.2s.4.7-.5,1c0,0-1.3-.3-2.4-2.7,0,0-.7-1.4-1.1-1.5C1011.8,182.7,1009.9,182.1,1010.3,181.8Z"/><path class="cls-11" d="M991.7,204.8s-4-6.7-.8-8.2c0,0,2.9-2.4,6.2,5.4,0,0,3.8,6.6.7,7.9C997.7,209.9,995.6,212.7,991.7,204.8Z"/><rect class="cls-12" x="859.2" y="350.8" width="13.2" height="62"/><rect class="cls-1" x="859.2" y="412.8" width="13.2" height="11.7"/><polygon class="cls-1" points="895 424.5 905.6 424.5 909.6 412.8 897.8 412.8 895 424.5"/><polygon class="cls-12" points="898.6 350.4 880.1 350.6 903.7 387.5 897.8 412.8 909.6 412.8 918.1 387.8 898.6 350.4"/><polygon class="cls-13" points="842.5 266.7 843.8 273.2 844 263.1 842.5 266.7"/><path d="M980,209.6l-17.2,56.8-33-37.4s-3.4-3.1-35.8.3l-.2-16s-.6,4.1-36.5,2l-2.4,19.6-17.8,4.8,6.7,33.4h0l-1,77.7,71.6-.9L913.9,249l50.8,32.2,8.2-5.8,19-61.6Z"/><polygon points="860 224.1 767.2 287.2 771.1 304.8 850.7 249.9 861 224.4 860 224.1"/></g><g id="Layer_15" data-name="Layer 15"><polygon class="cls-1" points="1096.2 216.4 1087.2 231.9 1100.7 234.4 1110.4 219.2 1096.2 216.4"/><polygon class="cls-1" points="1344.4 205.1 1332.5 200.6 1330 208.9 1342 213.1 1344.4 205.1"/><circle class="cls-1" cx="1226.2" cy="147.3" r="68.6"/><path class="cls-2" d="M1243.7,131.9s14.6-8.8,25.3,4.1c0,0,1.5,6.6-4.7,4.1a29.4,29.4,0,0,0-18.5-1.8S1240.5,137.6,1243.7,131.9Z"/><path class="cls-2" d="M1187.8,135.4s10.6-12.4,25.3-4.2c0,0,3.4,6.3-3.2,6.2,0,0-13.5-1.9-18.1,2.4C1191.9,139.9,1186.5,142.3,1187.8,135.4Z"/><path class="cls-3" d="M1239.1,121.9s6-6.6,18.2-5.6c0,0,14.2,2.2,19,10.4,0,0,3.7,4.2-1.8,2.6,0,0-10.3-7.7-34.7-5.7C1239.8,123.5,1238.4,122.8,1239.1,121.9Z"/><path class="cls-3" d="M1177.4,129.8s2.4-11.4,20.5-14c0,0,15.1-2.6,21.5,6.2,0,0,.2,2.3-4.1,1.7,0,0-22.9.1-25.6,1.9,0,0-7.8,1.9-10.2,4.5A1.7,1.7,0,0,1,1177.4,129.8Z"/><path d="M1208.8,157.7s23.2,12.7,39.3,0c0,0,2.6-2.1,1.1,2.8,0,0-9.8,25.2-18.8,24.8,0,0-15.8-2.4-21.6-23.9C1208.8,161.4,1206.4,155.4,1208.8,157.7Z"/><path class="cls-4" d="M1243.8,89.5s-32.5,46.3-46.5,37.2c0,0,17-12.6,13.4-18.4,0,0-36.1,39.1-53.2,39.7,0,0-37.1-77.8,70.9-79.7,0,0,54-3.1,70.4,41.3,0,0-24.4-11-26.8-16.7,0,0,10.1,8.9,12.4,16.1,0,0-21.8-10.9-28-19.6,0,0,7.5,8.8,6.1,10.1C1262.4,99.6,1245.6,93.1,1243.8,89.5Z"/><path class="cls-5" d="M1370.6,175.5l10.4,29.2s2.5,5.9-12.1,11.7c0,0-12.7,5.2-16.7-1.2l-.6-1.6s-1.5-1.4-5-.5c0,0-5.6,1.2-8-3.6,0,0-6.2-11.1-4.5-16.2,0,0,.6-2.7,4.4-4.5a6.55,6.55,0,0,0,1.8-1.5Z"/><path class="cls-6" d="M1347.8,194.7l6.3,16.9s15.3,3.9,23.2-8.2l-5.8-17s-1.9,4.2-11.6,7.1C1359.9,193.4,1350.2,197.1,1347.8,194.7Z"/><ellipse class="cls-7" cx="1359.54" cy="190.44" rx="12.6" ry="3.2" transform="translate(14.65 465.91) rotate(-19.55)"/><path class="cls-8" d="M1347.4,188.1l4.1,11a.72.72,0,0,0,.9.5l3.9-.5s.5-.2.4-.5l-3.5-10a2.79,2.79,0,0,0-1.8-.1s-1.7-1.1-2.8-.7Z"/><path class="cls-8" d="M1370.8,212.9s4-2.5,4.4-3.2a13.1,13.1,0,0,0,3-3.6s.4-.1.2.6c0,0-.5,2.9-2.5,3.9,0,0-2.6,2.1-3.7,2.3-.3.1-.7.3-1,.4C1371.1,213.3,1370.3,213.6,1370.8,212.9Z"/><path class="cls-8" d="M1336.3,197.6s-1.2-.6-.6-3.8c0,0,.7-3.4,3.7-3.4,0,0,.4.5-1.2,1.5,0,0-1.6,1.5-1.5,2.6a19.27,19.27,0,0,0-.1,2.4S1336.7,197.6,1336.3,197.6Z"/><path class="cls-9" d="M1367.2,189a3.18,3.18,0,0,1-3.8-1.1l-2.1-3.3a3,3,0,0,0-4.2-.5h-.1a8.47,8.47,0,0,1-7,1.8s-2.2-1.3-4.9.8c0,0-2.4,1.8-4.5.6a6.52,6.52,0,0,1-2.1-1.6l11.4-9,10.6-4.1,10.6-4.1s.3.6.4.5a8.34,8.34,0,0,1,1.2.8s1.3,1.4,1,2.7c0,0-.1,1.4-.7,1.7,0,0-.8.5-.9.8a2,2,0,0,0,.1,1.3,1.66,1.66,0,0,1-.5,1.2,7.41,7.41,0,0,1-1.2,1.3,2.06,2.06,0,0,0-1.4,2.4s.9,4.1.7,4.4a3.18,3.18,0,0,1-.8,2A3,3,0,0,1,1367.2,189Z"/><path class="cls-10" d="M1345.8,169.4a7.5,7.5,0,0,1,8.5-2.6s5.3-5,10.2-.7c0,0,6.4-1.5,6.7,2.8,0,0-.8,2.9-4.6,2.3a2.34,2.34,0,0,1-1.7.7s-.3,3.2-1.2,3c0,0-1,2.2-2.3,2.1a2.51,2.51,0,0,1-1.9-.5l-1-.6s-.4-.3-.6.4c0,0-.3,1-.9,1,0,0-.9-.1-1.2,1.9a5.67,5.67,0,0,1-1.3.8s-1.4,2.1-2.9,2.4c0,0-3.1,1-4.9-1.4a5,5,0,0,1-2.1,2.2,2.57,2.57,0,0,1-.5.2c-.1,0-.5-.1-.7.6,0,0-.1,1.2-2.6,2.1a2.81,2.81,0,0,1-2.1,0s-1.5-1.8-1-3.3c0,0,0-1.1-.5-1.5a4.24,4.24,0,0,1-.4-5.4s0-1.4,3.8-2.5a5.46,5.46,0,0,1,2.6-2.8A3.22,3.22,0,0,1,1345.8,169.4Z"/><circle class="cls-7" cx="1365" cy="195.2" r="0.7"/><circle class="cls-7" cx="1366.8" cy="197.2" r="0.8"/><circle class="cls-7" cx="1369.1" cy="195.1" r="0.5"/><circle class="cls-7" cx="1369.9" cy="198.4" r="0.9"/><circle class="cls-7" cx="1370.8" cy="196.7" r="0.6"/><circle class="cls-7" cx="1368.2" cy="200.7" r="0.4"/><circle class="cls-7" cx="1369.9" cy="200.8" r="0.6"/><circle class="cls-7" cx="1371.5" cy="203.1" r="0.7"/><circle class="cls-7" cx="1369.6" cy="204.5" r="0.7"/><circle class="cls-7" cx="1372.1" cy="204.4" r="0.2"/><circle class="cls-7" cx="1371.6" cy="206.5" r="0.6"/><path class="cls-8" d="M1361.7,181.6s1.7-1.8,3.6,1.4a10.19,10.19,0,0,1,1.4,3.4s.3.7-.7.9c0,0-1.3-.5-2.1-3,0,0-.5-1.5-.9-1.6C1363.1,182.7,1361.3,181.9,1361.7,181.6Z"/><path class="cls-11" d="M1340.3,202s-3.2-7.1.2-8.2c0,0,3.2-2,5.4,6.2,0,0,2.9,7-.4,7.9C1345.6,207.9,1343.2,210.4,1340.3,202Z"/><polygon class="cls-13" points="1192.5 265.9 1193.8 272.5 1194 262.3 1192.5 265.9"/><rect class="cls-12" x="1235.5" y="349.7" width="13.2" height="62"/><rect class="cls-1" x="1235.5" y="411.6" width="13.2" height="11.7"/><polygon class="cls-1" points="1215.2 423.3 1205 423.3 1201.2 411.6 1212.6 411.6 1215.2 423.3"/><polygon class="cls-12" points="1211.8 349.3 1229.7 349.4 1206.8 386.3 1212.6 411.6 1201.2 411.6 1193 386.6 1211.8 349.3"/><path d="M1330,208.9l-17.2,56.8-32.9-37.4s-3.4-3.2-35.8.3l-.2-16.1s-.6,4.1-36.5,2l-2.4,19.6-17.7,4.8,6.7,33.5h0l-1.1,77.8,71.6-.9-.5-101.2,50.8,32.2,8.2-5.8,19-61.6Z"/><polygon points="1220.4 240.1 1110.2 218.9 1100.4 234.2 1195.6 251.8 1220.9 241.1 1220.4 240.1"/></g><g id="Layer_19" data-name="Layer 19"><polygon class="cls-1" points="1455.6 295.1 1460.2 312.4 1471.4 304.7 1467.5 287 1455.6 295.1"/><polygon class="cls-1" points="1694.4 205.7 1682.5 201.1 1680 209.4 1692 213.6 1694.4 205.7"/><circle class="cls-1" cx="1576.2" cy="147.9" r="68.6"/><path class="cls-2" d="M1593.7,132.5s14.6-8.8,25.3,4.1c0,0,1.5,6.6-4.7,4.1a29.4,29.4,0,0,0-18.5-1.8S1590.5,138.2,1593.7,132.5Z"/><path class="cls-2" d="M1537.8,136s10.6-12.4,25.3-4.2c0,0,3.4,6.3-3.2,6.2,0,0-13.5-1.9-18.1,2.4C1541.9,140.4,1536.5,142.9,1537.8,136Z"/><path class="cls-3" d="M1589.1,122.4s6-6.6,18.2-5.6c0,0,14.2,2.2,19,10.4,0,0,3.7,4.2-1.8,2.6,0,0-10.3-7.7-34.7-5.7C1589.8,124,1588.4,123.3,1589.1,122.4Z"/><path class="cls-3" d="M1527.4,130.4s2.4-11.4,20.5-14c0,0,15.1-2.6,21.5,6.2,0,0,.2,2.3-4.1,1.7,0,0-22.9.1-25.6,1.9,0,0-7.8,1.9-10.2,4.5A2,2,0,0,1,1527.4,130.4Z"/><path d="M1552.5,158.3s37.3,12.7,63.1,0c0,0,4.1-2.1,1.8,2.8,0,0-15.8,25.2-30.2,24.8,0,0-25.4-2.4-34.7-23.9C1552.5,162,1548.7,155.9,1552.5,158.3Z"/><path class="cls-4" d="M1593.8,90.1s-32.5,46.3-46.5,37.2c0,0,17-12.6,13.4-18.4,0,0-36.1,39.1-53.2,39.7,0,0-37.1-77.8,70.9-79.7,0,0,54-3.1,70.4,41.3,0,0-24.4-11-26.8-16.7,0,0,10.1,8.9,12.4,16.1,0,0-21.8-10.9-28-19.6,0,0,7.5,8.8,6.1,10.1C1612.4,100.1,1595.6,93.7,1593.8,90.1Z"/><path class="cls-5" d="M1723.7,179.3,1728,210s1.2,6.3-14.2,9c0,0-13.5,2.6-16.1-4.6l-.2-1.7s-1.2-1.7-4.8-1.5c0,0-5.7.1-7.1-5.1,0,0-3.8-12.1-1.1-16.8,0,0,1.1-2.5,5.3-3.5a21.16,21.16,0,0,0,2.1-1.1Z"/><path class="cls-6" d="M1697.6,193.5l2.7,17.8s14.2,6.9,24.4-3.4l-2.2-17.9s-2.7,3.7-12.8,4.6C1709.7,194.6,1699.4,196.3,1697.6,193.5Z"/><ellipse class="cls-7" cx="1709.99" cy="191.42" rx="12.6" ry="3.2" transform="translate(-10.11 235.73) rotate(-7.86)"/><path class="cls-8" d="M1698.5,187l1.8,11.6a.76.76,0,0,0,.8.6l4,.3s.5-.1.5-.4l-1.4-10.5a3.37,3.37,0,0,0-1.7-.5s-1.4-1.4-2.6-1.3Z"/><path class="cls-8" d="M1716.3,215.9s4.4-1.6,4.9-2.2a11.63,11.63,0,0,0,3.7-2.9s.4-.1.1.7c0,0-1.1,2.7-3.2,3.3,0,0-2.9,1.5-4.1,1.5-.3.1-.7.1-1.1.2C1716.6,216.4,1715.7,216.5,1716.3,215.9Z"/><path class="cls-8" d="M1685.7,194s-1.1-.8.2-3.9c0,0,1.3-3.1,4.3-2.6,0,0,.3.5-1.5,1.2,0,0-1.9,1.1-2,2.2a9.77,9.77,0,0,0-.6,2.3C1686.1,193.3,1686,194.1,1685.7,194Z"/><path class="cls-9" d="M1717.8,191.8a3.22,3.22,0,0,1-3.5-1.8l-1.4-3.7a2.9,2.9,0,0,0-4-1.3h-.1a8.64,8.64,0,0,1-7.2.4s-1.8-1.7-5-.2c0,0-2.7,1.2-4.5-.3a5.51,5.51,0,0,1-1.7-2l13-6.5,11.2-1.8,11.2-1.9s.2.6.3.6a5.24,5.24,0,0,1,1,1.1s1,1.6.4,2.8c0,0-.4,1.3-1.1,1.5,0,0-.9.3-1,.6a1.72,1.72,0,0,0-.2,1.2s-.2.9-.7,1.1a5.6,5.6,0,0,1-1.5,1,2,2,0,0,0-1.8,2,31.68,31.68,0,0,1-.2,4.4,3.22,3.22,0,0,1-1.2,1.8A3.47,3.47,0,0,1,1717.8,191.8Z"/><path class="cls-10" d="M1700.7,168.2a7.37,7.37,0,0,1,8.8-.8s6.2-3.8,10.2,1.4c0,0,6.5-.1,6,4.1,0,0-1.4,2.7-5,1.3a1.94,1.94,0,0,1-1.8.3s-.9,3.1-1.8,2.7c0,0-1.4,1.9-2.7,1.5a2,2,0,0,1-1.7-.9l-.9-.8s-.3-.4-.7.2c0,0-.4.9-1.1.8,0,0-.8-.3-1.5,1.6a3.36,3.36,0,0,1-1.4.5s-1.8,1.8-3.3,1.7c0,0-3.2.3-4.5-2.4a4.89,4.89,0,0,1-2.5,1.7s-.4.2-.5.1-.4-.2-.8.4c0,0-.4,1.2-3,1.5a3.16,3.16,0,0,1-2.1-.4s-1.1-2-.4-3.5c0,0,.2-1.1-.2-1.5a4.12,4.12,0,0,1,.7-5.3s.3-1.4,4.2-1.7a6.33,6.33,0,0,1,3.1-2.2A6.84,6.84,0,0,1,1700.7,168.2Z"/><circle class="cls-7" cx="1714.3" cy="197.5" r="0.7"/><circle class="cls-7" cx="1715.7" cy="199.8" r="0.8"/><circle class="cls-7" cx="1718.3" cy="198.1" r="0.5"/><circle class="cls-7" cx="1718.4" cy="201.6" r="0.9"/><circle class="cls-7" cx="1719.7" cy="200.1" r="0.6"/><circle class="cls-7" cx="1716.3" cy="203.5" r="0.4"/><circle class="cls-7" cx="1718" cy="203.9" r="0.6"/><circle class="cls-7" cx="1719.1" cy="206.5" r="0.7"/><circle class="cls-7" cx="1716.8" cy="207.5" r="0.7"/><circle class="cls-7" cx="1719.4" cy="207.9" r="0.2"/><circle class="cls-7" cx="1718.4" cy="209.8" r="0.6"/><path class="cls-8" d="M1713.8,183.4s2-1.4,3.2,2.1a11.49,11.49,0,0,1,.7,3.6s.2.8-.8.8c0,0-1.2-.7-1.4-3.4,0,0-.2-1.6-.6-1.8C1714.9,184.8,1713.3,183.7,1713.8,183.4Z"/><path class="cls-11" d="M1688.3,197.7s-1-7.7,2.5-7.8c0,0,3.6-1,3.5,7.5,0,0,.8,7.5-2.6,7.5C1691.8,204.8,1688.7,206.5,1688.3,197.7Z"/><rect class="cls-12" x="1559.2" y="350.6" width="13.2" height="62"/><rect class="cls-1" x="1559.2" y="412.6" width="13.2" height="11.7"/><polygon class="cls-1" points="1595 424.3 1605.6 424.3 1609.6 412.6 1597.8 412.6 1595 424.3"/><polygon class="cls-12" points="1598.6 350.2 1580.1 350.4 1603.7 387.3 1597.8 412.6 1609.6 412.6 1618.1 387.6 1598.6 350.2"/><polygon class="cls-13" points="1542.5 266.5 1543.8 273 1544 262.9 1542.5 266.5"/><path d="M1680,209.4l-17.2,56.8-32.9-37.4s-3.4-3.2-35.8.3l-.2-16s-.6,4.1-36.5,2l-2.4,19.6-17.8,4.8,6.7,33.5h0l-1.1,77.8,71.6-.9-.5-101.2,50.8,32.2,8.2-5.8,19-61.6Z"/><polygon points="1559.9 223.9 1467.2 287 1471.1 304.6 1550.7 249.7 1561 224.3 1559.9 223.9"/></g><g id="Layer_20" data-name="Layer 20"><polygon class="cls-1" points="87.8 856.2 101.2 868.2 106.3 855.5 93.3 842.9 87.8 856.2"/><polygon class="cls-1" points="294.3 705.1 282.4 700.6 279.9 708.9 291.8 713.1 294.3 705.1"/><path d="M279.9,708.9l-17.2,56.8-33-37.3s-3.4-3.2-35.8.3l-.2-16s-.6,4.2-36.5,2l-2.4,19.6-18.7,5.1L93,842.9l13,12.7,37.9-93.2-1.2,87.9,71.6-.8-.5-101.2,50.8,32.2,8.2-5.8,19-61.6Z"/><circle class="cls-1" cx="176.1" cy="647.3" r="68.6"/><path class="cls-2" d="M193.6,631.9s14.6-8.8,25.3,4.1c0,0,1.5,6.6-4.7,4.1a29.4,29.4,0,0,0-18.5-1.8C195.6,638.3,190.3,637.7,193.6,631.9Z"/><path class="cls-2" d="M137.6,635.4s10.6-12.4,25.4-4.2c0,0,3.4,6.3-3.2,6.2,0,0-13.5-1.9-18.1,2.4C141.7,639.8,136.4,642.3,137.6,635.4Z"/><path class="cls-3" d="M189,621.9s6-6.6,18.2-5.6c0,0,14.2,2.2,19,10.4,0,0,3.7,4.2-1.8,2.6,0,0-10.3-7.7-34.7-5.7C189.7,623.5,188.2,622.8,189,621.9Z"/><path class="cls-3" d="M127.3,629.8s2.4-11.5,20.5-14c0,0,15.1-2.6,21.5,6.2,0,0,.2,2.3-4.1,1.7,0,0-22.9.1-25.6,1.9,0,0-7.8,1.9-10.2,4.5A1.7,1.7,0,0,1,127.3,629.8Z"/><path d="M137.5,657.7s49,12.7,82.8,0c0,0,5.4-2.1,2.4,2.8,0,0-20.8,25.2-39.7,24.8,0,0-33.4-2.4-45.5-23.9C137.5,661.4,132.5,655.4,137.5,657.7Z"/><path class="cls-4" d="M193.6,589.5s-32.5,46.3-46.5,37.2c0,0,17.1-12.6,13.4-18.4,0,0-36.1,39.1-53.2,39.7,0,0-37.1-77.8,70.9-79.7,0,0,54-3.1,70.4,41.3,0,0-24.4-11-26.8-16.7,0,0,10.1,8.9,12.4,16.1,0,0-21.9-10.9-28-19.6,0,0,7.5,8.8,6.1,10.2C212.2,599.6,195.4,593.1,193.6,589.5Z"/><path class="cls-5" d="M329.3,685.2v31s.4,6.4-15.4,7c0,0-13.7.7-15.3-6.7v-1.7s-.9-1.8-4.6-2.2c0,0-5.7-.7-6.3-6,0,0-2.1-12.5,1.2-16.8,0,0,1.4-2.4,5.7-2.8a14.27,14.27,0,0,0,2.2-.8Z"/><path class="cls-6" d="M301.5,695.7l.3,18s13.1,8.8,24.6,0l.2-18s-3.2,3.3-13.3,2.8C313.3,698.5,302.9,698.8,301.5,695.7Z"/><ellipse class="cls-7" cx="314" cy="695.6" rx="12.6" ry="3.2"/><path class="cls-8" d="M303.3,689.4l.2,11.7a.85.85,0,0,0,.7.8l3.9.8s.5,0,.5-.4V691.7a2.57,2.57,0,0,0-1.6-.7s-1.2-1.6-2.4-1.6Z"/><path class="cls-8" d="M317,720.5s4.6-1,5.2-1.6a12.28,12.28,0,0,0,4-2.3s.4,0,0,.7c0,0-1.5,2.5-3.6,2.8,0,0-3.1,1.1-4.3.9h-1.1S316.3,721,317,720.5Z"/><path class="cls-8" d="M289.6,694.6s-1-1,.7-3.8c0,0,1.8-2.9,4.6-2,0,0,.2.6-1.7,1,0,0-2,.9-2.3,2a10.2,10.2,0,0,0-.9,2.2C290.2,694,290,694.7,289.6,694.6Z"/><path class="cls-9" d="M321.7,696.8a3.13,3.13,0,0,1-3.2-2.3l-.9-3.8a3,3,0,0,0-3.8-1.9h-.1a8.64,8.64,0,0,1-7.2-.6s-1.6-2-4.9-.9c0,0-2.9.8-4.4-.9a6.36,6.36,0,0,1-1.4-2.2l13.8-4.7,11.4-.3,11.3-.3s.1.6.2.6a8.34,8.34,0,0,1,.8,1.2s.8,1.8,0,2.8c0,0-.6,1.2-1.3,1.4,0,0-1,.2-1.1.5a2.84,2.84,0,0,0-.4,1.2s-.4.8-.9,1a8,8,0,0,1-1.6.8,2.13,2.13,0,0,0-2.1,1.8,33.92,33.92,0,0,1-.8,4.4,4.18,4.18,0,0,1-1.4,1.7A4.55,4.55,0,0,1,321.7,696.8Z"/><path class="cls-10" d="M308,671.2a7.51,7.51,0,0,1,8.9.4s6.7-2.9,9.9,2.8c0,0,6.5.8,5.4,4.8,0,0-1.8,2.5-5.1.7a2.51,2.51,0,0,1-1.9.1s-1.3,2.9-2.1,2.5c0,0-1.7,1.7-2.9,1.2a2.09,2.09,0,0,1-1.6-1.1l-.8-.9s-.2-.4-.7.1c0,0-.6.8-1.2.6,0,0-.8-.4-1.7,1.4a4,4,0,0,1-1.5.3s-2,1.5-3.5,1.2c0,0-3.2-.1-4.1-3a5.41,5.41,0,0,1-2.7,1.4s-.5.1-.5,0-.4-.2-.8.3c0,0-.5,1.1-3.2,1.1,0,0-1.5,0-2-.7,0,0-.8-2.2.1-3.5,0,0,.4-1,0-1.5a4.37,4.37,0,0,1,1.4-5.2s.5-1.3,4.4-1.1a6.27,6.27,0,0,1,3.4-1.8A3.83,3.83,0,0,1,308,671.2Z"/><circle class="cls-7" cx="317.5" cy="701.9" r="0.7"/><circle class="cls-7" cx="318.5" cy="704.4" r="0.8"/><circle class="cls-7" cx="321.4" cy="703.1" r="0.5"/><circle class="cls-7" cx="321" cy="706.6" r="0.9"/><circle class="cls-7" cx="322.5" cy="705.2" r="0.6"/><circle class="cls-7" cx="318.6" cy="708.2" r="0.4"/><circle class="cls-7" cx="320.2" cy="708.8" r="0.6"/><circle class="cls-7" cx="321" cy="711.5" r="0.7"/><circle class="cls-7" cx="318.6" cy="712.2" r="0.7"/><circle class="cls-7" cx="321.1" cy="712.9" r="0.2"/><circle class="cls-7" cx="319.9" cy="714.7" r="0.6"/><path class="cls-8" d="M319,688s2.2-1.2,2.9,2.5a11.38,11.38,0,0,1,.2,3.7.72.72,0,0,1-.9.7s-1-.9-.9-3.5c0,0,0-1.6-.3-1.8C319.9,689.5,318.4,688.2,319,688Z"/><path class="cls-11" d="M292,700.1s-.6-7.8,3-7.7c0,0,3.7-.8,3.1,7.7,0,0,.4,7.5-3,7.3C295,707.4,291.9,708.9,292,700.1Z"/><rect class="cls-12" x="159" y="850.1" width="13.2" height="62"/><rect class="cls-1" x="159" y="912" width="13.2" height="11.7"/><polygon class="cls-1" points="194.9 923.8 205.5 923.8 209.4 912 197.6 912 194.9 923.8"/><polygon class="cls-12" points="198.4 849.7 179.9 849.8 203.6 886.7 197.6 912 209.4 912 217.9 887 198.4 849.7"/></g><g id="Layer_21" data-name="Layer 21"><polygon class="cls-1" points="438.9 856.1 452.3 868 457.4 855.4 444.5 842.7 438.9 856.1"/><polygon class="cls-1" points="635.3 690.8 622.8 688.5 621.8 697.1 634.3 699.1 635.3 690.8"/><circle class="cls-1" cx="527.22" cy="647.19" r="68.6"/><path class="cls-2" d="M544.7,631.8s14.6-8.8,25.3,4.1c0,0,1.5,6.6-4.7,4.1a29.4,29.4,0,0,0-18.5-1.8C546.8,638.1,541.5,637.5,544.7,631.8Z"/><path class="cls-2" d="M488.8,635.2s10.6-12.4,25.3-4.2c0,0,3.4,6.3-3.2,6.2,0,0-13.5-1.9-18.1,2.4C492.9,639.7,487.5,642.2,488.8,635.2Z"/><path class="cls-3" d="M540.1,621.7s6-6.6,18.2-5.6c0,0,14.2,2.2,19,10.4,0,0,3.7,4.2-1.8,2.6,0,0-10.3-7.7-34.7-5.7C540.8,623.3,539.4,622.6,540.1,621.7Z"/><path class="cls-3" d="M478.4,629.6s2.4-11.5,20.5-14c0,0,15.1-2.6,21.5,6.2,0,0,.2,2.3-4.1,1.7,0,0-22.9.1-25.6,1.9,0,0-7.8,1.9-10.2,4.5A1.7,1.7,0,0,1,478.4,629.6Z"/><path d="M508.2,657.6s29.8,12.7,50.4,0c0,0,3.3-2.1,1.4,2.8,0,0-12.6,25.2-24.1,24.8a35.82,35.82,0,0,1-27.7-23.9C508.2,661.2,505.2,655.2,508.2,657.6Z"/><path class="cls-4" d="M544.8,589.3s-32.5,46.3-46.5,37.2c0,0,17.1-12.6,13.4-18.4,0,0-36.1,39.1-53.2,39.7,0,0-37.1-77.8,70.9-79.7,0,0,54-3.1,70.4,41.3,0,0-24.4-11-26.8-16.7,0,0,10.1,8.9,12.4,16.1,0,0-21.8-10.9-28-19.7,0,0,7.5,8.8,6.1,10.2C563.4,599.4,546.6,593,544.8,589.3Z"/><path class="cls-5" d="M652.3,655.2l18.1,25.2s4,5-8.4,14.6c0,0-10.7,8.6-16.3,3.5l-1-1.4s-1.8-.9-5,.9c0,0-5,2.8-8.7-1.2,0,0-9-8.9-8.8-14.3,0,0-.2-2.8,3-5.6a8.58,8.58,0,0,0,1.3-2Z"/><path class="cls-6" d="M635.9,680l10.8,14.4s15.8-.6,20-14.4l-10.3-14.7s-.6,4.5-9.2,10C647.1,675.3,638.8,681.7,635.9,680Z"/><ellipse class="cls-7" cx="646.01" cy="672.65" rx="12.6" ry="3.2" transform="translate(-271.38 504.79) rotate(-35.79)"/><path class="cls-8" d="M633.7,673.8l7,9.4a.78.78,0,0,0,1,.2l3.6-1.6s.4-.3.2-.6l-6.2-8.6a3,3,0,0,0-1.8.4s-1.9-.6-2.9.1Z"/><path class="cls-8" d="M663,691s3.2-3.5,3.3-4.3a11.12,11.12,0,0,0,1.9-4.3s.3-.2.4.5c0,0,.3,2.9-1.3,4.4,0,0-1.9,2.7-2.9,3.2l-.9.6C663.5,691.3,662.7,691.8,663,691Z"/><path class="cls-8" d="M625.7,686s-1.4-.2-1.7-3.5c0,0-.3-3.4,2.6-4.3,0,0,.5.3-.8,1.8,0,0-1.1,1.9-.7,2.9a8.65,8.65,0,0,0,.6,2.3S626,685.9,625.7,686Z"/><path class="cls-9" d="M652.9,669a3.15,3.15,0,0,1-3.9,0l-3-2.6a3,3,0,0,0-4.2.7v.1a8.46,8.46,0,0,1-6.2,3.7s-2.4-.7-4.5,2.2c0,0-1.8,2.4-4.1,1.8a6.3,6.3,0,0,1-2.4-.9l8.5-11.7,9-6.9,9-6.9s.4.4.5.4a7.84,7.84,0,0,1,1.4.5s1.6,1,1.7,2.3c0,0,.3,1.3-.2,1.8,0,0-.7.7-.6,1a2.84,2.84,0,0,0,.4,1.2,2,2,0,0,1-.1,1.3,8,8,0,0,1-.8,1.6,2.16,2.16,0,0,0-.7,2.7,29.28,29.28,0,0,1,1.9,4,3.36,3.36,0,0,1-.2,2.2A7.11,7.11,0,0,1,652.9,669Z"/><path class="cls-10" d="M626.9,656.2a7.36,7.36,0,0,1,7.4-4.8s3.7-6.2,9.7-3.5c0,0,5.7-3.2,7.2.8,0,0,0,3-3.8,3.5a1.92,1.92,0,0,1-1.5,1.1s.6,3.1-.3,3.2c0,0-.4,2.4-1.7,2.6a2.33,2.33,0,0,1-2,0l-1.2-.3s-.5-.2-.5.5c0,0,0,1-.6,1.2,0,0-.9.2-.6,2.1,0,0-.5.9-1,1.1,0,0-.8,2.4-2.1,3.1,0,0-2.7,1.8-5.1,0a5.41,5.41,0,0,1-1.4,2.7s-.3.3-.4.3-.5,0-.5.7c0,0,.2,1.2-1.9,2.7,0,0-1.2.9-2.1.6,0,0-1.9-1.3-1.9-2.9,0,0-.3-1-.9-1.2a4.32,4.32,0,0,1-1.9-5s-.4-1.3,2.9-3.5a6.13,6.13,0,0,1,1.7-3.4A6.35,6.35,0,0,1,626.9,656.2Z"/><circle class="cls-7" cx="652.5" cy="675.7" r="0.7"/><circle class="cls-7" cx="654.8" cy="677.1" r="0.8"/><circle class="cls-7" cx="656.4" cy="674.4" r="0.5"/><circle class="cls-7" cx="658.1" cy="677.4" r="0.9"/><circle class="cls-7" cx="658.5" cy="675.5" r="0.6"/><circle class="cls-7" cx="657.1" cy="680.1" r="0.4"/><circle class="cls-7" cx="658.8" cy="679.6" r="0.6"/><circle class="cls-7" cx="661" cy="681.4" r="0.7"/><circle class="cls-7" cx="659.5" cy="683.3" r="0.7"/><circle class="cls-7" cx="661.9" cy="682.5" r="0.2"/><circle class="cls-7" cx="662" cy="684.6" r="0.6"/><path class="cls-8" d="M645.6,663.5s1.1-2.2,3.8.3a10.91,10.91,0,0,1,2.3,2.9s.5.6-.4,1.1c0,0-1.4-.1-2.8-2.3,0,0-.9-1.3-1.3-1.3C647.2,664.2,645.2,663.9,645.6,663.5Z"/><path class="cls-11" d="M630.8,689.1s-5-6-2.1-7.9c0,0,2.5-2.8,7,4.4,0,0,4.7,5.9,1.8,7.7C637.5,693.2,635.8,696.3,630.8,689.1Z"/><rect class="cls-12" x="510.1" y="849.9" width="13.2" height="62"/><rect class="cls-1" x="510.1" y="911.9" width="13.2" height="11.7"/><polygon class="cls-1" points="546 923.6 556.6 923.6 560.6 911.9 548.8 911.9 546 923.6"/><polygon class="cls-12" points="549.6 849.5 531.1 849.7 554.7 886.5 548.8 911.9 560.6 911.9 569.1 886.8 549.6 849.5"/><path d="M544.8,712.4s-.6,4.2-36.5,2L505.9,734l-18.8,5.1-43,103.6,13,12.7L495,762.2l-1.2,87.9,71.6-.9-.5-100.7-19.8-20.2Z"/><path d="M621.8,697.1,615.1,756,576,725.2s-3.9-2.5-35.2,6.7l23.1,16.3-.1-.5,55.8,22.6,7.1-7.2,7.7-64Z"/></g><g id="Layer_22" data-name="Layer 22"><polygon class="cls-1" points="787.9 856.1 801.3 868 806.4 855.4 793.5 842.7 787.9 856.1"/><polygon class="cls-1" points="971 681.4 958.3 680.6 958.4 689.3 971 689.8 971 681.4"/><circle class="cls-1" cx="876.2" cy="647.2" r="68.6"/><path class="cls-2" d="M893.7,631.8s14.6-8.8,25.3,4.1c0,0,1.5,6.6-4.7,4.1a29.4,29.4,0,0,0-18.5-1.8C895.8,638.1,890.5,637.5,893.7,631.8Z"/><path class="cls-2" d="M837.8,635.2s10.6-12.4,25.3-4.2c0,0,3.4,6.3-3.2,6.2,0,0-13.5-1.9-18.1,2.4C841.9,639.7,836.5,642.2,837.8,635.2Z"/><path class="cls-3" d="M889.1,621.7s6-6.6,18.2-5.6c0,0,14.2,2.2,19,10.4,0,0,3.7,4.2-1.8,2.6,0,0-10.3-7.7-34.7-5.7C889.8,623.3,888.4,622.6,889.1,621.7Z"/><path class="cls-3" d="M827.4,629.6s2.4-11.5,20.5-14c0,0,15.1-2.6,21.5,6.2,0,0,.2,2.3-4.1,1.7,0,0-22.9.1-25.6,1.9,0,0-7.8,1.9-10.2,4.5A1.7,1.7,0,0,1,827.4,629.6Z"/><path d="M857.2,647.9s29.8,17.2,50.4,0c0,0,3.3-2.8,1.4,3.8,0,0-12.6,34-24.1,33.5,0,0-20.3-3.3-27.7-32.3C857.2,652.9,854.2,644.7,857.2,647.9Z"/><path class="cls-4" d="M893.8,589.3s-32.5,46.3-46.5,37.2c0,0,17-12.6,13.4-18.4,0,0-36.1,39.1-53.2,39.7,0,0-37.1-77.8,70.9-79.7,0,0,54-3.1,70.4,41.3,0,0-24.4-11-26.8-16.7,0,0,10.1,8.9,12.4,16.1,0,0-21.8-10.9-28-19.7,0,0,7.5,8.8,6.1,10.2C912.4,599.4,895.6,593,893.8,589.3Z"/><path class="cls-5" d="M976.5,644.3l25,18.4s5.4,3.5-3.5,16.5c0,0-7.6,11.4-14.5,8.3l-1.3-1s-2-.3-4.5,2.4c0,0-3.9,4.2-8.6,1.5,0,0-11.3-5.7-12.8-10.9,0,0-1.1-2.6,1.2-6.2a8.65,8.65,0,0,0,.6-2.3Z"/><path class="cls-6" d="M968.5,672.9l14.6,10.5s14.8-5.3,14.6-19.8l-14.3-10.9s.8,4.5-5.7,12.3C977.7,665,971.8,673.5,968.5,672.9Z"/><ellipse class="cls-7" cx="975.79" cy="662.71" rx="12.6" ry="3.2" transform="translate(-137.01 1053.91) rotate(-53.55)"/><path class="cls-8" d="M964.4,667.6l9.6,6.8a.77.77,0,0,0,1-.1l3-2.6s.3-.4,0-.6l-8.5-6.3a2.6,2.6,0,0,0-1.6.9s-2,0-2.7,1Z"/><path class="cls-8" d="M997.6,675.1s2-4.3,1.8-5.1a12.38,12.38,0,0,0,.5-4.7s.2-.3.5.4c0,0,1.2,2.7.1,4.6,0,0-1,3.2-1.8,4l-.6.9C998.2,675.3,997.6,676,997.6,675.1Z"/><path class="cls-8" d="M960.5,681.7s-1.4.2-2.6-2.8c0,0-1.3-3.2,1.2-4.9,0,0,.6.2-.2,1.9,0,0-.5,2.1.2,3a8.58,8.58,0,0,0,1.3,2C960.3,680.9,960.8,681.5,960.5,681.7Z"/><path class="cls-9" d="M981.3,657.2a3.14,3.14,0,0,1-3.7,1.2l-3.6-1.6a3,3,0,0,0-3.8,2,8.58,8.58,0,0,1-4.8,5.4s-2.5.1-3.6,3.4c0,0-1,2.8-3.4,3a5.76,5.76,0,0,1-2.6-.2l4.4-13.8,6.5-9.3,6.5-9.3s.5.3.6.2h1.5s1.9.4,2.3,1.7c0,0,.7,1.2.3,1.8,0,0-.4.9-.3,1.2a2.54,2.54,0,0,0,.8,1,2.77,2.77,0,0,1,.3,1.3,5.66,5.66,0,0,1-.3,1.8,2,2,0,0,0,.2,2.7,30,30,0,0,1,3,3.2,3.14,3.14,0,0,1,.5,2.1A3.41,3.41,0,0,1,981.3,657.2Z"/><path class="cls-10" d="M952.6,653a7.36,7.36,0,0,1,5.6-6.9s1.6-7.1,8.1-6.3c0,0,4.5-4.8,7.1-1.5,0,0,1,2.9-2.5,4.5a2.26,2.26,0,0,1-1,1.5s1.6,2.8.7,3.2c0,0,.4,2.4-.8,3a2.21,2.21,0,0,1-1.9.6l-1.2.1s-.5,0-.3.6c0,0,.3,1-.2,1.4,0,0-.8.4.1,2.2a3.1,3.1,0,0,1-.6,1.3s0,2.5-1.1,3.6a4.81,4.81,0,0,1-4.9,1.6,4.49,4.49,0,0,1-.5,3s-.2.4-.3.4-.4.2-.2.8c0,0,.6,1.1-1,3.2,0,0-.8,1.2-1.8,1.2,0,0-2.2-.7-2.7-2.2,0,0-.6-.9-1.3-.9a4.1,4.1,0,0,1-3.3-4.2s-.8-1.2,1.7-4.2a6.27,6.27,0,0,1,.6-3.8A4.27,4.27,0,0,1,952.6,653Z"/><circle class="cls-7" cx="983" cy="663.7" r="0.7"/><circle class="cls-7" cx="985.6" cy="664.3" r="0.8"/><circle class="cls-7" cx="986.2" cy="661.3" r="0.5"/><circle class="cls-7" cx="988.8" cy="663.6" r="0.9"/><circle class="cls-7" cx="988.6" cy="661.7" r="0.6"/><circle class="cls-7" cx="988.7" cy="666.5" r="0.4"/><circle class="cls-7" cx="990.1" cy="665.5" r="0.6"/><circle class="cls-7" cx="992.8" cy="666.6" r="0.7"/><circle class="cls-7" cx="991.9" cy="668.9" r="0.7"/><circle class="cls-7" cx="994" cy="667.3" r="0.2"/><circle class="cls-7" cx="994.7" cy="669.3" r="0.6"/><path class="cls-8" d="M972.6,654.2s.4-2.5,3.8-.9a12.65,12.65,0,0,1,3.1,2s.7.4,0,1.2c0,0-1.3.3-3.4-1.3,0,0-1.3-.9-1.7-.8C974.4,654.4,972.4,654.7,972.6,654.2Z"/><path class="cls-11" d="M966.3,683.1s-6.6-4.2-4.4-6.9c0,0,1.5-3.4,8,2.1,0,0,6.3,4.2,4.1,6.8C974,685,973.3,688.5,966.3,683.1Z"/><rect class="cls-12" x="859.2" y="849.9" width="13.2" height="62"/><rect class="cls-1" x="859.2" y="911.9" width="13.2" height="11.7"/><polygon class="cls-1" points="895 923.6 905.6 923.6 909.6 911.9 897.8 911.9 895 923.6"/><polygon class="cls-12" points="898.6 849.5 880.1 849.7 903.7 886.5 897.8 911.9 909.6 911.9 918.1 886.8 898.6 849.5"/><path d="M893.8,712.4s-.6,4.2-36.5,2L854.9,734l-18.8,5.1-43,103.6,13,12.7L844,762.2l-1.2,87.9,71.6-.9-.5-100.7-19.8-20.2Z"/><path d="M958.4,689.3l.3,59.3-42.5-26s-4.2-2-34.2,10.9l24.9,13.4-.2-.5,58,15.8,6.2-8V689.8Z"/></g><g id="Layer_23" data-name="Layer 23"><polygon class="cls-1" points="1137.9 856.1 1151.3 868 1156.4 855.4 1143.5 842.7 1137.9 856.1"/><polygon class="cls-1" points="1292.1 675.9 1280.9 681.9 1285.5 689.3 1296.5 683 1292.1 675.9"/><circle class="cls-1" cx="1226.2" cy="647.2" r="68.6"/><path class="cls-2" d="M1243.7,631.8s14.6-8.8,25.3,4.1c0,0,1.5,6.6-4.7,4.1a29.4,29.4,0,0,0-18.5-1.8C1245.8,638.1,1240.5,637.5,1243.7,631.8Z"/><path class="cls-2" d="M1187.8,635.2s10.6-12.4,25.3-4.2c0,0,3.4,6.3-3.2,6.2,0,0-13.5-1.9-18.1,2.4C1191.9,639.7,1186.5,642.2,1187.8,635.2Z"/><path class="cls-3" d="M1239.1,621.7s6-6.6,18.2-5.6c0,0,14.2,2.2,19,10.4,0,0,3.7,4.2-1.8,2.6,0,0-10.3-7.7-34.7-5.7C1239.8,623.3,1238.4,622.6,1239.1,621.7Z"/><path class="cls-3" d="M1177.4,629.6s2.4-11.5,20.5-14c0,0,15.1-2.6,21.5,6.2,0,0,.2,2.3-4.1,1.7,0,0-22.9.1-25.6,1.9,0,0-7.8,1.9-10.2,4.5A1.7,1.7,0,0,1,1177.4,629.6Z"/><path d="M1212,647.1s26.5,22.7,44.8,0c0,0,2.9-3.7,1.3,5,0,0-11.2,44.8-21.4,44.1,0,0-18.1-4.3-24.6-42.5C1212,653.6,1209.3,642.9,1212,647.1Z"/><path class="cls-4" d="M1243.8,589.3s-32.5,46.3-46.5,37.2c0,0,17-12.6,13.4-18.4,0,0-36.1,39.1-53.2,39.7,0,0-37.1-77.8,70.9-79.7,0,0,54-3.1,70.4,41.3,0,0-24.4-11-26.8-16.7,0,0,10.1,8.9,12.4,16.1,0,0-21.8-10.9-28-19.7,0,0,7.5,8.8,6.1,10.2C1262.4,599.4,1245.6,593,1243.8,589.3Z"/><path class="cls-5" d="M1277.2,641.5l30.9,2.5s6.4.1,5.7,15.8c0,0-.4,13.7-7.9,14.7l-1.7-.1s-1.9.8-2.5,4.4c0,0-1.2,5.6-6.5,5.8,0,0-12.6,1.1-16.6-2.5,0,0-2.3-1.6-2.3-5.9a6.15,6.15,0,0,0-.7-2.3Z"/><path class="cls-6" d="M1285.4,670l18,1.2s9.8-12.4,2-24.5l-18-1.6s3.1,3.4,1.7,13.5C1289.1,658.4,1288.5,668.8,1285.4,670Z"/><ellipse class="cls-7" cx="1286.33" cy="657.51" rx="12.6" ry="3.2" transform="translate(528.2 1887.23) rotate(-85.42)"/><path class="cls-8" d="M1279.2,667.7l11.7.7a.76.76,0,0,0,.8-.6l1.1-3.8s0-.5-.3-.5l-10.5-.8a4.17,4.17,0,0,0-.9,1.6s-1.7,1-1.8,2.3Z"/><path class="cls-8" d="M1311.3,656.5s-.6-4.7-1.1-5.3a12.54,12.54,0,0,0-2-4.2s0-.4.7.1c0,0,2.4,1.7,2.5,3.9a17.41,17.41,0,0,1,.6,4.3,4.1,4.1,0,0,1-.1,1.1C1311.9,656.3,1311.8,657.3,1311.3,656.5Z"/><path class="cls-8" d="M1283.3,681.7s-1,.9-3.7-1c0,0-2.8-2-1.6-4.8,0,0,.6-.1.8,1.7,0,0,.7,2.1,1.8,2.4a14.72,14.72,0,0,0,2.2,1C1282.8,681.1,1283.5,681.4,1283.3,681.7Z"/><path class="cls-9" d="M1288.1,650a3.1,3.1,0,0,1-2.5,3l-3.9.6a3.09,3.09,0,0,0-2.2,3.7v.1a8.77,8.77,0,0,1-1.2,7.2s-2.1,1.4-1.3,4.8c0,0,.6,2.9-1.3,4.3a5.1,5.1,0,0,1-2.3,1.2l-3.5-14.1.6-11.3.6-11.3s.6,0,.6-.1a7.46,7.46,0,0,1,1.2-.7s1.8-.6,2.8.2c0,0,1.2.7,1.2,1.4,0,0,.1,1,.4,1.2a2.57,2.57,0,0,0,1.2.5s.8.4.9,1a8.65,8.65,0,0,1,.7,1.7,2.07,2.07,0,0,0,1.6,2.2s4.1.9,4.3,1.2c0,0,1.3.7,1.5,1.5C1288,648.6,1288.1,649.3,1288.1,650Z"/><path class="cls-10" d="M1261.4,661.5a7.56,7.56,0,0,1,1.1-8.8s-2.4-6.9,3.6-9.6c0,0,1.3-6.4,5.2-5,0,0,2.3,2,.2,5.2a2.51,2.51,0,0,1-.1,1.9s2.8,1.5,2.3,2.3c0,0,1.6,1.8.9,3a2.29,2.29,0,0,1-1.2,1.5l-.9.7s-.4.2.1.7c0,0,.8.6.5,1.3,0,0-.4.8,1.2,1.8a3.89,3.89,0,0,1,.2,1.5s1.4,2.1,1,3.6c0,0-.4,3.2-3.3,3.9a4.3,4.3,0,0,1,1.1,2.8s.1.5,0,.5-.2.4.3.8c0,0,1.1.6.8,3.3,0,0-.1,1.4-.9,1.9,0,0-2.2.6-3.5-.4a2.43,2.43,0,0,0-1.6-.1,4.33,4.33,0,0,1-5.1-1.8s-1.3-.6-.7-4.5a5.82,5.82,0,0,1-1.5-3.5A6.3,6.3,0,0,1,1261.4,661.5Z"/><circle class="cls-7" cx="1292.8" cy="654.5" r="0.7"/><circle class="cls-7" cx="1295.4" cy="653.7" r="0.8"/><circle class="cls-7" cx="1294.4" cy="650.8" r="0.5"/><circle class="cls-7" cx="1297.8" cy="651.4" r="0.9"/><circle class="cls-7" cx="1296.6" cy="649.9" r="0.6"/><circle class="cls-7" cx="1299.2" cy="653.9" r="0.4"/><circle class="cls-7" cx="1299.9" cy="652.4" r="0.6"/><circle class="cls-7" cx="1302.7" cy="651.8" r="0.7"/><circle class="cls-7" cx="1303.2" cy="654.2" r="0.7"/><circle class="cls-7" cx="1304.1" cy="651.8" r="0.2"/><circle class="cls-7" cx="1305.8" cy="653.2" r="0.6"/><path class="cls-8" d="M1279.1,652s-1-2.3,2.7-2.7a11.5,11.5,0,0,1,3.7.1s.8,0,.6,1c0,0-1,1-3.6.7,0,0-1.6-.1-1.9.2C1280.6,651.2,1279.2,652.5,1279.1,652Z"/><path class="cls-11" d="M1289,679.8s-7.8,0-7.4-3.5c0,0-.5-3.7,7.9-2.5,0,0,7.6.2,7,3.6C1296.5,677.4,1297.8,680.7,1289,679.8Z"/><rect class="cls-12" x="1209.2" y="849.9" width="13.2" height="62"/><rect class="cls-1" x="1209.2" y="911.9" width="13.2" height="11.7"/><polygon class="cls-1" points="1245 923.6 1255.6 923.6 1259.6 911.9 1247.8 911.9 1245 923.6"/><polygon class="cls-12" points="1248.6 849.5 1230.1 849.7 1253.7 886.5 1247.8 911.9 1259.6 911.9 1268.1 886.8 1248.6 849.5"/><path d="M1243.8,712.4s-.6,4.2-36.5,2l-2.4,19.6-18.8,5.1-43,103.6,13,12.7,37.9-93.2-1.2,87.9,71.6-.9-.5-100.7-19.8-20.2Z"/><path d="M1282.9,682.9l18.8,56.2-48.5-11.4s-4.6-.6-29.1,21l27.8,5-.3-.4,60.1-3.1,3.4-9.5-20-61.2Z"/></g><g id="Layer_24" data-name="Layer 24"><polygon class="cls-1" points="88 1356.5 101.3 1368.4 106.5 1355.8 93.6 1343.1 88 1356.5"/><polygon class="cls-1" points="271.1 1181.8 258.4 1181 258.5 1189.7 271.1 1190.2 271.1 1181.8"/><circle class="cls-1" cx="176.3" cy="1147.6" r="68.6"/><path class="cls-2" d="M193.8,1132.2s14.6-8.8,25.3,4.1c0,0,1.5,6.6-4.7,4.1a29.4,29.4,0,0,0-18.5-1.8C195.8,1138.5,190.5,1137.9,193.8,1132.2Z"/><path class="cls-2" d="M137.9,1135.6s10.6-12.4,25.4-4.2c0,0,3.4,6.3-3.2,6.2,0,0-13.5-1.9-18.1,2.4C141.9,1140.1,136.6,1142.6,137.9,1135.6Z"/><path class="cls-3" d="M189.1,1122.1s6-6.6,18.2-5.7c0,0,14.2,2.2,19,10.4,0,0,3.7,4.2-1.8,2.6,0,0-10.3-7.7-34.7-5.7C189.9,1123.7,188.5,1123,189.1,1122.1Z"/><path class="cls-3" d="M127.5,1130s2.4-11.4,20.5-14c0,0,15.1-2.6,21.5,6.2,0,0,.2,2.3-4.1,1.7,0,0-22.9.1-25.6,1.9,0,0-7.8,1.9-10.2,4.5A1.7,1.7,0,0,1,127.5,1130Z"/><path d="M157.3,1148.3s29.8,17.2,50.4,0c0,0,3.3-2.8,1.4,3.8,0,0-12.6,34-24.1,33.5,0,0-20.3-3.3-27.7-32.3C157.3,1153.3,154.2,1145.1,157.3,1148.3Z"/><path class="cls-4" d="M193.9,1089.8s-32.5,46.3-46.5,37.2c0,0,17-12.6,13.4-18.4,0,0-36.1,39.1-53.2,39.7,0,0-37.1-77.8,70.9-79.7,0,0,54-3.1,70.4,41.3,0,0-24.4-11-26.8-16.7,0,0,10.1,8.9,12.4,16.1,0,0-21.9-10.9-28-19.6,0,0,7.5,8.8,6.1,10.2C212.5,1099.8,195.7,1093.4,193.9,1089.8Z"/><path class="cls-5" d="M276.6,1144.7l24.9,18.4s5.4,3.5-3.5,16.5c0,0-7.6,11.4-14.5,8.3l-1.4-1s-2-.3-4.5,2.4c0,0-3.9,4.2-8.6,1.5,0,0-11.3-5.7-12.8-10.9,0,0-1.1-2.6,1.2-6.2a8.65,8.65,0,0,0,.6-2.3Z"/><path class="cls-6" d="M268.5,1173.3l14.6,10.5s14.8-5.3,14.6-19.8l-14.3-10.9s.8,4.5-5.7,12.3C277.8,1165.4,271.8,1174,268.5,1173.3Z"/><ellipse class="cls-7" cx="269.64" cy="1159.57" rx="12.5" ry="3.2" transform="translate(-823.65 688.36) rotate(-53.59)"/><path class="cls-8" d="M264.5,1168l9.5,6.8a.77.77,0,0,0,1-.1l3-2.6s.3-.4,0-.6l-8.5-6.3a2.6,2.6,0,0,0-1.6.9s-2,0-2.7,1Z"/><path class="cls-8" d="M297.7,1175.5s2-4.3,1.8-5.1a10.67,10.67,0,0,0,.5-4.7s.2-.3.5.4c0,0,1.1,2.7.1,4.6,0,0-1,3.2-1.8,4l-.6.9C298.3,1175.7,297.6,1176.4,297.7,1175.5Z"/><path class="cls-8" d="M260.6,1182.2s-1.4.2-2.6-2.8c0,0-1.3-3.2,1.2-4.9,0,0,.6.2-.2,1.9,0,0-.5,2.1.2,3a8.58,8.58,0,0,0,1.3,2C260.4,1181.3,260.9,1182,260.6,1182.2Z"/><path class="cls-9" d="M281.4,1157.7a3.14,3.14,0,0,1-3.7,1.2l-3.6-1.6a3,3,0,0,0-3.8,2h0a8.58,8.58,0,0,1-4.8,5.4s-2.5.1-3.6,3.4c0,0-1,2.8-3.4,3a5.76,5.76,0,0,1-2.6-.2l4.4-13.8,6.5-9.3,6.5-9.3s.6.3.6.2h1.5s1.9.4,2.3,1.7c0,0,.7,1.2.3,1.8,0,0-.4.9-.3,1.2a1.89,1.89,0,0,0,.8,1,2.77,2.77,0,0,1,.3,1.3,5.66,5.66,0,0,1-.3,1.8,2,2,0,0,0,.2,2.7,31.25,31.25,0,0,1,3,3.2,3.14,3.14,0,0,1,.5,2.1A4.81,4.81,0,0,1,281.4,1157.7Z"/><path class="cls-10" d="M252.6,1153.4a7.36,7.36,0,0,1,5.6-6.9s1.6-7.1,8.1-6.3c0,0,4.5-4.8,7.1-1.4,0,0,1,2.9-2.5,4.5a2.26,2.26,0,0,1-1,1.5s1.6,2.8.7,3.2c0,0,.4,2.4-.8,3a2.21,2.21,0,0,1-1.9.6l-1.2.1s-.5,0-.3.6c0,0,.3,1-.2,1.4,0,0-.8.4.1,2.2a3.1,3.1,0,0,1-.6,1.3s0,2.5-1.1,3.6a4.81,4.81,0,0,1-4.9,1.6,4.49,4.49,0,0,1-.5,3s-.2.4-.3.4-.4.2-.2.8c0,0,.6,1.1-1,3.2,0,0-.8,1.2-1.8,1.2,0,0-2.2-.7-2.7-2.2,0,0-.6-.9-1.3-.9a4.1,4.1,0,0,1-3.3-4.2s-.8-1.2,1.7-4.2a6.27,6.27,0,0,1,.6-3.8A5.33,5.33,0,0,1,252.6,1153.4Z"/><circle class="cls-7" cx="283" cy="1164.1" r="0.7"/><circle class="cls-7" cx="285.7" cy="1164.7" r="0.8"/><circle class="cls-7" cx="286.3" cy="1161.7" r="0.5"/><circle class="cls-7" cx="288.9" cy="1164.1" r="0.9"/><circle class="cls-7" cx="288.6" cy="1162.1" r="0.6"/><circle class="cls-7" cx="288.8" cy="1166.9" r="0.4"/><circle class="cls-7" cx="290.2" cy="1166" r="0.6"/><circle class="cls-7" cx="292.8" cy="1167" r="0.7"/><circle class="cls-7" cx="292" cy="1169.3" r="0.7"/><circle class="cls-7" cx="294" cy="1167.7" r="0.2"/><circle class="cls-7" cx="294.8" cy="1169.8" r="0.6"/><path class="cls-8" d="M272.7,1154.6s.4-2.5,3.8-.9a12.65,12.65,0,0,1,3.1,2s.6.4,0,1.2c0,0-1.3.3-3.4-1.3,0,0-1.3-.9-1.7-.8C274.4,1154.8,272.5,1155.2,272.7,1154.6Z"/><path class="cls-11" d="M266.4,1183.5s-6.6-4.1-4.4-6.9c0,0,1.5-3.4,8,2.1,0,0,6.3,4.2,4.1,6.8C274,1185.4,273.4,1188.8,266.4,1183.5Z"/><rect class="cls-12" x="159.2" y="1350.3" width="13.2" height="62"/><rect class="cls-1" x="159.2" y="1412.3" width="13.2" height="11.7"/><polygon class="cls-1" points="195.1 1424 205.7 1424 209.6 1412.3 197.8 1412.3 195.1 1424"/><polygon class="cls-12" points="198.6 1349.9 180.1 1350.1 203.8 1386.9 197.8 1412.3 209.6 1412.3 218.1 1387.2 198.6 1349.9"/><path d="M193.9,1212.8s-.6,4.1-36.5,2l-2.4,19.6-18.8,5.1-43,103.6,13,12.7,37.9-93.2-1.2,87.9,71.6-.8L214,1249l-19.8-20.2Z"/><path d="M258.5,1189.7l.3,59.3-42.5-26s-4.2-2-34.1,10.9l24.9,13.4-.1-.5,58,15.8,6.2-8v-64.4Z"/></g><g id="Layer_25" data-name="Layer 25"><polygon class="cls-1" points="465.1 1373.4 480.8 1382.1 483 1368.6 467.5 1359.2 465.1 1373.4"/><polygon class="cls-1" points="575.4 1163.5 565.8 1171.9 571.9 1178 581.3 1169.5 575.4 1163.5"/><circle class="cls-1" cx="504.8" cy="1150.1" r="68.6"/><path class="cls-2" d="M518.4,1131.2s12.3-11.8,25.6-1.6c0,0,3,6.1-3.7,5.1a30.29,30.29,0,0,0-18.5,2.3S516.5,1137.5,518.4,1131.2Z"/><path class="cls-2" d="M464.7,1147s7.5-14.4,23.8-9.7c0,0,4.7,5.4-1.7,6.8,0,0-13.6,1.2-17.1,6.4C469.6,1150.5,465,1154.1,464.7,1147Z"/><path class="cls-3" d="M511.7,1122.4s4.4-7.8,16.5-9.6c0,0,14.3-1,20.8,5.9,0,0,4.6,3.2-1.1,2.9,0,0-11.8-5.2-35.1,2.1C512.7,1123.9,511.2,1123.5,511.7,1122.4Z"/><path class="cls-3" d="M453.3,1143.9s-.2-11.7,16.9-18.2c0,0,14.1-5.9,22.4,1.2,0,0,.7,2.2-3.6,2.5,0,0-22.3,5.2-24.5,7.6,0,0-7.2,3.6-8.9,6.7A2.15,2.15,0,0,1,453.3,1143.9Z"/><path d="M490.9,1153.2s30.9,16.2,43.7-10c0,0,2-4.2,2.3,4.6,0,0-1,46.1-11.1,47.7,0,0-18.6-.2-33.4-36C492.4,1159.6,487.3,1149.7,490.9,1153.2Z"/><path class="cls-4" d="M509.1,1089.9s-21.4,52.4-37.1,46.6c0,0,13.8-16,9-20.9,0,0-26.5,46.2-43.1,50.5,0,0-53.4-67.6,51.4-93.5,0,0,52-15,77.8,24.7,0,0-26.3-5.3-29.8-10.4,0,0,11.8,6.5,15.7,12.9,0,0-23.7-5.8-31.7-12.9,0,0,9.2,6.9,8.2,8.5C529.4,1095.5,511.6,1093,509.1,1089.9Z"/><path class="cls-5" d="M553.2,1133.2l30.7-4.5s6.3-1.3,9.1,14.2c0,0,2.7,13.4-4.5,16.1l-1.7.2s-1.7,1.2-1.5,4.8c0,0,.1,5.7-5.1,7.1,0,0-12.1,3.9-16.8,1.2,0,0-2.5-1.1-3.5-5.2a11.25,11.25,0,0,0-1.2-2.1Z"/><path class="cls-6" d="M567.5,1159.3l17.8-2.9s6.8-14.2-3.5-24.3l-17.8,2.3s3.8,2.7,4.7,12.8C568.6,1147.2,570.4,1157.4,567.5,1159.3Z"/><ellipse class="cls-7" cx="565.72" cy="1146.74" rx="3.2" ry="12.6" transform="matrix(0.99, -0.14, 0.14, 0.99, -158.92, 93.2)"/><path class="cls-8" d="M561,1158.4l11.6-1.9a.76.76,0,0,0,.6-.8l.2-3.9s-.1-.5-.4-.5l-10.5,1.5a3.37,3.37,0,0,0-.5,1.7s-1.4,1.4-1.2,2.6Z"/><path class="cls-8" d="M589.8,1140.4s-1.6-4.4-2.3-4.9a11.63,11.63,0,0,0-2.9-3.7s0-.4.7-.1c0,0,2.7,1.1,3.3,3.2,0,0,1.5,2.9,1.5,4.1.1.3.1.7.2,1.1C590.3,1140,590.4,1141,589.8,1140.4Z"/><path class="cls-8" d="M568.1,1171.2s-.8,1.1-3.9-.2c0,0-3.2-1.3-2.6-4.3,0,0,.5-.3,1.2,1.5,0,0,1.2,1.9,2.3,2a6.35,6.35,0,0,0,2.3.5C567.5,1170.7,568.2,1170.8,568.1,1171.2Z"/><path class="cls-9" d="M565.7,1139.1a3.1,3.1,0,0,1-1.8,3.5l-3.7,1.4a3.1,3.1,0,0,0-1.3,4.1,8.28,8.28,0,0,1,.4,7.2s-1.7,1.8-.2,5c0,0,1.2,2.7-.3,4.5a6.14,6.14,0,0,1-1.9,1.7l-6.6-12.9-1.9-11.2-1.9-11.2s.6-.2.6-.3a5.24,5.24,0,0,1,1.1-1s1.6-1,2.8-.4c0,0,1.3.4,1.5,1.1,0,0,.3.9.6,1a2.54,2.54,0,0,0,1.2.2s.9.2,1.1.7a5.6,5.6,0,0,1,1,1.5,2,2,0,0,0,2,1.8,21.31,21.31,0,0,1,4.4.2,3.22,3.22,0,0,1,1.8,1.2A2.71,2.71,0,0,1,565.7,1139.1Z"/><path class="cls-10" d="M542.3,1156.3a7.37,7.37,0,0,1-.8-8.8s-3.8-6.2,1.3-10.2c0,0-.2-6.5,4-6,0,0,2.7,1.4,1.4,5a1.94,1.94,0,0,1,.3,1.8s3.1.9,2.8,1.8c0,0,1.9,1.4,1.5,2.7a2.27,2.27,0,0,1-.9,1.8l-.8.9s-.4.3.2.7c0,0,.9.4.8,1.1,0,0-.2.8,1.6,1.5a3.36,3.36,0,0,1,.5,1.4s1.8,1.8,1.8,3.3c0,0,.3,3.2-2.4,4.5a5.07,5.07,0,0,1,1.8,2.5s.2.4.1.5-.2.4.5.7c0,0,1.2.4,1.5,3a3.08,3.08,0,0,1-.4,2.1s-2,1.1-3.5.4c0,0-1.1-.2-1.5.2a4.12,4.12,0,0,1-5.3-.7s-1.3-.3-1.7-4.2a6.33,6.33,0,0,1-2.2-3.1A3.62,3.62,0,0,1,542.3,1156.3Z"/><circle class="cls-7" cx="571.4" cy="1142.5" r="0.7"/><circle class="cls-7" cx="573.7" cy="1141.1" r="0.8"/><circle class="cls-7" cx="572" cy="1138.5" r="0.5"/><circle class="cls-7" cx="575.5" cy="1138.4" r="0.9"/><circle class="cls-7" cx="574" cy="1137.1" r="0.6"/><circle class="cls-7" cx="577.4" cy="1140.5" r="0.4"/><circle class="cls-7" cx="577.8" cy="1138.8" r="0.6"/><circle class="cls-7" cx="580.4" cy="1137.7" r="0.7"/><circle class="cls-7" cx="581.4" cy="1139.9" r="0.7"/><circle class="cls-7" cx="581.8" cy="1137.4" r="0.2"/><circle class="cls-7" cx="583.7" cy="1138.3" r="0.6"/><path class="cls-8" d="M557.4,1143.1s-1.5-2,2.1-3.2a11.49,11.49,0,0,1,3.6-.7s.8-.2.8.8c0,0-.7,1.2-3.3,1.4,0,0-1.6.2-1.8.6C558.7,1142,557.6,1143.6,557.4,1143.1Z"/><path class="cls-11" d="M573.2,1168.1s-7.6,1.7-8-1.8c0,0-1.3-3.5,7.2-4.1,0,0,7.4-1.5,7.7,1.9C580,1164,582,1166.9,573.2,1168.1Z"/><rect class="cls-12" x="535.47" y="1348.85" width="13.2" height="62" transform="translate(-151.52 69.6) rotate(-6.45)"/><rect class="cls-1" x="539.57" y="1410.56" width="13.2" height="11.7" transform="translate(-155.6 70.29) rotate(-6.45)"/><polygon class="cls-1" points="584.5 1415.5 594.8 1413.1 596.1 1400.8 584.6 1403.4 584.5 1415.5"/><polygon class="cls-12" points="571.5 1342.5 553.5 1346.7 584.8 1377.4 584.6 1403.4 596.1 1400.8 598.8 1374.5 571.5 1342.5"/><path d="M536.5,1209.8s.3,4.2-35.1,10l2,19.7-17.2,9.2-18.9,110.6,15.4,9.5,16.3-99.3,18.4,86,69.6-16.7-22.8-98-23.8-15.2Z"/><path d="M567.9,1172.4l30.8,50.6-49.8-.4s-4.6.4-23.7,26.9l28.2-1.3-.4-.3,57.9-16.3,1.2-10-33.2-55.3Z"/></g><g id="Layer_26" data-name="Layer 26"><polygon class="cls-1" points="840 1380.8 857 1386.5 856.7 1372.8 839.8 1366.4 840 1380.8"/><polygon class="cls-1" points="909.8 1154.3 902 1164.2 909.1 1169.1 916.7 1159 909.8 1154.3"/><circle class="cls-1" cx="838" cy="1154.1" r="68.6"/><path class="cls-2" d="M847.9,1133s9.9-13.9,24.8-6.3c0,0,4,5.5-2.7,5.6a28.81,28.81,0,0,0-17.7,5.7S847.2,1139.5,847.9,1133Z"/><path class="cls-2" d="M798,1158.4s4.8-15.6,21.6-14c0,0,5.6,4.4-.5,7,0,0-13.2,3.6-15.6,9.4C803.5,1160.8,799.6,1165.2,798,1158.4Z"/><path class="cls-3" d="M839.7,1125.6s2.9-8.5,14.5-12.4c0,0,13.9-3.6,21.6,2,0,0,5.1,2.3-.6,3,0,0-12.5-3-34.1,8.6C841,1126.8,839.4,1126.7,839.7,1125.6Z"/><path class="cls-3" d="M786.2,1157.4s-2.4-11.4,13.2-21c0,0,12.8-8.4,22.2-2.9,0,0,1.1,2.1-3.1,3.2,0,0-21,9.2-22.7,11.9,0,0-6.4,4.8-7.5,8.2A1.86,1.86,0,0,1,786.2,1157.4Z"/><path class="cls-4" d="M831.1,1094s-11.4,55.4-27.9,52.6c0,0,10.6-18.3,5-22.2,0,0-17.6,50.2-33,57.6,0,0-65-56.7,33.4-101.3,0,0,48.3-24.3,81,10,0,0-26.8-.4-31.2-4.7,0,0,12.8,4.2,17.8,9.8,0,0-24.4-1.3-33.5-6.9,0,0,10.4,5.1,9.6,6.9C852.2,1095.8,834.2,1096.6,831.1,1094Z"/><path class="cls-5" d="M882.4,1128.6l29.3-10s5.9-2.4,11.5,12.3c0,0,5.1,12.7-1.4,16.7l-1.6.5s-1.4,1.5-.6,5c0,0,1.2,5.6-3.7,7.9,0,0-11.1,6.1-16.3,4.3,0,0-2.7-.6-4.5-4.5a6.55,6.55,0,0,0-1.5-1.8Z"/><path class="cls-6" d="M901.3,1151.5l16.9-6.1s4-15.2-8-23.3l-17.1,5.6s4.2,1.9,6.9,11.7C900.1,1139.4,903.8,1149.2,901.3,1151.5Z"/><ellipse class="cls-7" cx="897.24" cy="1139.63" rx="3.2" ry="12.6" transform="translate(-320.08 351.01) rotate(-18.85)"/><path class="cls-8" d="M894.7,1151.8l11-4a.8.8,0,0,0,.5-.9l-.5-3.9s-.2-.5-.5-.4l-10,3.4a3.72,3.72,0,0,0-.2,1.8s-1.1,1.7-.7,2.8Z"/><path class="cls-8" d="M919.8,1128.8s-2.4-4.1-3.1-4.4a14.71,14.71,0,0,0-3.5-3.1s-.1-.4.6-.2c0,0,2.9.6,3.8,2.6a18.79,18.79,0,0,1,2.3,3.7c.1.3.3.7.4,1C920.2,1128.4,920.5,1129.3,919.8,1128.8Z"/><path class="cls-8" d="M904.1,1163.1s-.6,1.2-3.8.6c0,0-3.3-.7-3.4-3.8,0,0,.5-.4,1.5,1.3,0,0,1.5,1.6,2.6,1.5a9.66,9.66,0,0,0,2.4.1S904.1,1162.7,904.1,1163.1Z"/><path class="cls-9" d="M895.8,1132.1a3.28,3.28,0,0,1-1.1,3.8l-3.3,2.1a3,3,0,0,0-.5,4.2v.1a8.42,8.42,0,0,1,1.7,7s-1.4,2.1.8,4.9c0,0,1.7,2.4.6,4.5a6.15,6.15,0,0,1-1.6,2l-8.8-11.5-3.9-10.7-3.9-10.6s.5-.3.5-.4a4.7,4.7,0,0,1,.9-1.2s1.4-1.3,2.7-.9c0,0,1.4.1,1.7.8,0,0,.5.8.8.9a2.85,2.85,0,0,0,1.3,0,1.66,1.66,0,0,1,1.2.5,15.38,15.38,0,0,1,1.3,1.2,2,2,0,0,0,2.3,1.4s4.1-.8,4.4-.7a3.18,3.18,0,0,1,2,.8A7.56,7.56,0,0,1,895.8,1132.1Z"/><path class="cls-10" d="M876,1153.2a7.55,7.55,0,0,1-2.5-8.5s-4.9-5.4-.5-10.2c0,0-1.4-6.4,2.8-6.7,0,0,2.9.9,2.3,4.6a2.84,2.84,0,0,1,.7,1.7s3.2.3,3,1.2c0,0,2.2,1,2,2.3a2.51,2.51,0,0,1-.5,1.9l-.6,1s-.3.4.3.6c0,0,1,.3,1,1,0,0-.1.9,1.8,1.2a5.67,5.67,0,0,1,.8,1.3s2.1,1.4,2.3,2.9c0,0,.9,3.1-1.5,4.9a5.56,5.56,0,0,1,2.2,2.1,2.57,2.57,0,0,1,.2.5c0,.1-.1.5.6.7,0,0,1.2.2,2,2.7a2.56,2.56,0,0,1,0,2.1s-1.8,1.4-3.3,1c0,0-1.1,0-1.5.5a4.23,4.23,0,0,1-5.4.3s-1.4,0-2.5-3.8a7,7,0,0,1-2.8-2.6A3.83,3.83,0,0,1,876,1153.2Z"/><circle class="cls-7" cx="902.1" cy="1134.3" r="0.7"/><circle class="cls-7" cx="904.1" cy="1132.5" r="0.8"/><circle class="cls-7" cx="901.9" cy="1130.3" r="0.5"/><circle class="cls-7" cx="905.3" cy="1129.5" r="0.9"/><circle class="cls-7" cx="903.6" cy="1128.6" r="0.6"/><circle class="cls-7" cx="907.6" cy="1131.2" r="0.4"/><circle class="cls-7" cx="907.7" cy="1129.5" r="0.6"/><circle class="cls-7" cx="910" cy="1127.9" r="0.7"/><circle class="cls-7" cx="911.4" cy="1129.9" r="0.7"/><circle class="cls-7" cx="911.3" cy="1127.4" r="0.2"/><circle class="cls-7" cx="913.4" cy="1127.9" r="0.6"/><path class="cls-8" d="M888.4,1137.5s-1.8-1.7,1.4-3.6a14.34,14.34,0,0,1,3.4-1.4s.7-.3.9.7c0,0-.5,1.3-3,2,0,0-1.5.5-1.6.9C889.5,1136.1,888.7,1137.9,888.4,1137.5Z"/><path class="cls-11" d="M908.5,1159.1s-7.2,3.1-8.2-.3c0,0-2-3.2,6.3-5.4,0,0,7-2.8,7.9.5C914.5,1153.9,916.9,1156.3,908.5,1159.1Z"/><rect class="cls-12" x="910.52" y="1339.72" width="13.2" height="62" transform="translate(-91.1 65.55) rotate(-3.9)"/><rect class="cls-1" x="913.02" y="1401.62" width="13.2" height="11.7" transform="translate(-93.6 65.81) rotate(-3.9)"/><polygon class="cls-1" points="965.1 1400.2 974.8 1396 973.8 1383.7 963 1388.4 965.1 1400.2"/><polygon class="cls-12" points="938.9 1330.8 922 1338.3 958.4 1362.8 963 1388.4 973.8 1383.7 971.7 1357.3 938.9 1330.8"/><path d="M880.1,1206.9s1.1,4-32.7,16.3l5.6,19-15.2,12.2,1.7,112.1,16.9,6.5-2.2-100.6,33.9,81.1,65.3-29.2L913,1232.1l-26.2-10.6Z"/><path d="M904.2,1164.3l39.6,44.1-49,8.8s-4.5,1.3-18.3,30.8l27.5-6.5-.4-.3,53.9-26.7-.7-10-42.7-48.3Z"/><ellipse cx="852.18" cy="1175.12" rx="18.5" ry="24" transform="translate(-295.12 285.83) rotate(-16.27)"/></g><g id="Layer_27" data-name="Layer 27"><polygon class="cls-1" points="1189.3 1381.8 1206.3 1387.5 1206 1373.8 1189.1 1367.4 1189.3 1381.8"/><polygon class="cls-1" points="1283.6 1172 1272 1177.2 1276.1 1184.9 1287.5 1179.4 1283.6 1172"/><circle class="cls-1" cx="1187.3" cy="1155.1" r="68.6"/><path class="cls-2" d="M1197.2,1134s10-13.9,24.8-6.3c0,0,4,5.5-2.7,5.6a28.81,28.81,0,0,0-17.7,5.7S1196.5,1140.5,1197.2,1134Z"/><path class="cls-2" d="M1147.3,1159.4s4.8-15.6,21.6-14c0,0,5.6,4.4-.4,7,0,0-13.2,3.6-15.6,9.4C1152.8,1161.8,1148.9,1166.2,1147.3,1159.4Z"/><path class="cls-3" d="M1189,1126.6s2.9-8.5,14.5-12.4c0,0,13.9-3.6,21.6,2,0,0,5.1,2.3-.6,3,0,0-12.5-3-34.2,8.6C1190.3,1127.8,1188.7,1127.7,1189,1126.6Z"/><path class="cls-3" d="M1135.5,1158.4s-2.4-11.4,13.2-21c0,0,12.8-8.4,22.2-2.9,0,0,1.1,2.1-3.1,3.2,0,0-21,9.2-22.7,11.9,0,0-6.4,4.8-7.6,8.2A1.67,1.67,0,0,1,1135.5,1158.4Z"/><path class="cls-4" d="M1180.4,1095s-11.4,55.4-27.9,52.6c0,0,10.7-18.3,5-22.2,0,0-17.6,50.2-33,57.6,0,0-65-56.7,33.4-101.3,0,0,48.3-24.3,81,10,0,0-26.8-.4-31.2-4.7,0,0,12.8,4.2,17.8,9.8,0,0-24.4-1.3-33.5-6.9,0,0,10.4,5.1,9.6,6.9C1201.5,1096.8,1183.5,1097.6,1180.4,1095Z"/><path class="cls-5" d="M1271.1,1136.6l30.7,4.6s6.4.6,4.6,16.2c0,0-1.3,13.6-8.9,14.1l-1.7-.2s-1.9.6-2.8,4.2c0,0-1.5,5.5-6.9,5.3,0,0-12.7.2-16.4-3.7,0,0-2.1-1.8-1.9-6.1a8.56,8.56,0,0,0-.5-2.3Z"/><path class="cls-6" d="M1277.3,1165.7l17.8,2.4s10.6-11.7,3.7-24.3l-17.8-2.9s2.8,3.6.8,13.6C1281.8,1154.4,1280.6,1164.7,1277.3,1165.7Z"/><ellipse class="cls-7" cx="1278.99" cy="1153.15" rx="12.6" ry="3.2" transform="translate(-51.31 2246.71) rotate(-81.46)"/><path class="cls-8" d="M1271.3,1162.9l11.6,1.5a.79.79,0,0,0,.8-.5l1.4-3.7s.1-.5-.3-.6l-10.5-1.6a3.07,3.07,0,0,0-1,1.5s-1.8.9-1.9,2.1Z"/><path class="cls-8" d="M1304.2,1154s-.3-4.7-.8-5.4a13.33,13.33,0,0,0-1.7-4.3s.1-.4.7.1c0,0,2.3,1.8,2.2,4a16.42,16.42,0,0,1,.3,4.4c0,.4-.1.7-.1,1.1C1304.8,1153.8,1304.6,1154.8,1304.2,1154Z"/><path class="cls-8" d="M1274.5,1177.2s-1.1.8-3.7-1.3c0,0-2.6-2.2-1.3-4.9,0,0,.6-.1.7,1.8,0,0,.6,2.1,1.6,2.6a7.19,7.19,0,0,0,2.1,1.2C1274,1176.6,1274.7,1176.9,1274.5,1177.2Z"/><path class="cls-9" d="M1281.4,1145.8a3.09,3.09,0,0,1-2.7,2.8l-3.9.3a3,3,0,0,0-2.4,3.5v.1a8.42,8.42,0,0,1-1.7,7s-2.2,1.3-1.6,4.8c0,0,.4,3-1.6,4.2a6.59,6.59,0,0,1-2.4,1.1l-2.6-14.3,1.4-11.3,1.4-11.2s.6,0,.6-.1a3.1,3.1,0,0,1,1.3-.6s1.8-.5,2.8.4c0,0,1.2.8,1.2,1.4a3.46,3.46,0,0,0,.3,1.2,1.61,1.61,0,0,0,1.1.5s.8.5.9,1a4.92,4.92,0,0,1,.6,1.7,2,2,0,0,0,1.4,2.3c1.4.4,2.8.9,4.2,1.4,0,0,1.2.8,1.4,1.6A2.93,2.93,0,0,1,1281.4,1145.8Z"/><path class="cls-10" d="M1254,1155.5a7.47,7.47,0,0,1,1.7-8.7s-1.9-7,4.2-9.4c0,0,1.7-6.3,5.6-4.6,0,0,2.2,2.1-.1,5.2a2.25,2.25,0,0,1-.2,1.8s2.7,1.7,2.1,2.5c0,0,1.4,1.9.7,3a2,2,0,0,1-1.3,1.4l-1,.6s-.4.2,0,.7c0,0,.7.7.4,1.3,0,0-.5.7,1.1,1.9a3.81,3.81,0,0,1,.1,1.5s1.2,2.2.7,3.7c0,0-.6,3.2-3.6,3.7a4.2,4.2,0,0,1,.9,2.9s0,.5-.1.5-.3.4.2.8c0,0,1,.7.6,3.3a3.08,3.08,0,0,1-1,1.9s-2.3.5-3.4-.6c0,0-1-.5-1.5-.2a4.14,4.14,0,0,1-4.9-2.2s-1.2-.7-.4-4.5a6.57,6.57,0,0,1-1.3-3.6A5.12,5.12,0,0,1,1254,1155.5Z"/><circle class="cls-7" cx="1285.9" cy="1150.8" r="0.7"/><circle class="cls-7" cx="1288.5" cy="1150.1" r="0.8"/><circle class="cls-7" cx="1287.7" cy="1147.1" r="0.5"/><circle class="cls-7" cx="1291" cy="1148" r="0.9"/><circle class="cls-7" cx="1289.9" cy="1146.3" r="0.6"/><circle class="cls-7" cx="1292.2" cy="1150.6" r="0.4"/><circle class="cls-7" cx="1293.1" cy="1149.1" r="0.6"/><circle class="cls-7" cx="1295.9" cy="1148.7" r="0.7"/><circle class="cls-7" cx="1296.2" cy="1151.1" r="0.7"/><circle class="cls-7" cx="1297.3" cy="1148.8" r="0.2"/><circle class="cls-7" cx="1298.9" cy="1150.3" r="0.6"/><path class="cls-8" d="M1272.3,1147.2s-.8-2.3,2.9-2.5a9.38,9.38,0,0,1,3.7.4s.8.1.5,1c0,0-1,.9-3.6.4,0,0-1.6-.2-1.9.1C1273.9,1146.6,1272.4,1147.8,1272.3,1147.2Z"/><path class="cls-11" d="M1257.8,1160.1s-7.2,3.1-8.2-.3c0,0-2-3.2,6.3-5.4,0,0,7-2.8,7.9.5C1263.8,1154.9,1266.2,1157.3,1257.8,1160.1Z"/><rect class="cls-1" x="1259.82" y="1340.72" width="13.2" height="62" transform="translate(-90.36 89.31) rotate(-3.9)"/><rect class="cls-1" x="1262.32" y="1402.62" width="13.2" height="11.7" transform="translate(-92.86 89.57) rotate(-3.9)"/><polygon class="cls-1" points="1314.4 1401.2 1324.1 1397 1323.1 1384.7 1312.3 1389.4 1314.4 1401.2"/><polygon class="cls-1" points="1288.2 1331.8 1271.3 1339.3 1307.7 1363.8 1312.3 1389.4 1323.1 1384.7 1320.9 1358.3 1288.2 1331.8"/><path d="M1229.4,1207.9s1.1,4-32.7,16.3l5.6,19-15.2,12.2,1.7,112.1,16.9,6.5-2.3-100.6,33.8,81.2,65.3-29.2-40.4-92.2-26.2-10.6Z"/><path d="M1274,1178.3l14.9,57.4-47.6-14.7s-4.5-.9-30.4,18.9l27.4,6.9-.3-.4,60.1,1.1,4-9.2-15.8-62.5Z"/><ellipse cx="1201.11" cy="1175.72" rx="12.9" ry="16.7" transform="translate(-281.31 383.62) rotate(-16.27)"/><rect class="cls-11" x="1223.16" y="1318.3" width="92" height="33.4" transform="translate(-420.62 601.76) rotate(-22.99)"/><path class="cls-14" d="M1245.1,1354.8a10.55,10.55,0,0,1-3.6,2.3c-4.2,1.8-8.5.4-10.5-4.5a8,8,0,0,1,4.5-11.1,8.38,8.38,0,0,1,3.8-.8l.2,1.8a9.6,9.6,0,0,0-3.3.6c-3.5,1.5-4.9,4.7-3.3,8.6,1.5,3.7,4.6,5.1,8.2,3.6a8.12,8.12,0,0,0,2.9-1.9Z"/><path class="cls-14" d="M1252.5,1344.1l-5.8,2.4,2.2,5.4,6.5-2.7.7,1.6-8.4,3.5-6.2-14.9,8.1-3.4.7,1.6-6.1,2.6,2,4.7,5.8-2.4Z"/><path class="cls-14" d="M1258.6,1349.7l-6.2-14.9,2.1-.9,7.9,5.6a54.5,54.5,0,0,1,4.7,3.7h0c-1-1.9-1.8-3.7-2.8-6l-2.6-6.2,1.8-.8,6.2,14.9-2,.8-7.9-5.6a58.48,58.48,0,0,1-4.9-3.8h-.1c.9,1.8,1.7,3.6,2.7,6.1l2.7,6.4Z"/><path class="cls-14" d="M1283.4,1338.8a12.59,12.59,0,0,1-3.6,2.4c-4.2,1.8-8.5.4-10.5-4.5a8,8,0,0,1,4.5-11.1,8.38,8.38,0,0,1,3.8-.8l.2,1.8a9.6,9.6,0,0,0-3.3.6c-3.5,1.5-4.9,4.7-3.2,8.6,1.5,3.7,4.6,5.1,8.2,3.6a8.12,8.12,0,0,0,2.9-1.9Z"/><path class="cls-14" d="M1295.2,1325.6c2.1,5.1.2,9.2-3.7,10.8s-8-.2-9.9-4.8-.3-9.1,3.7-10.7S1293.3,1321.1,1295.2,1325.6Zm-11.5,5c1.3,3.2,4.2,5.3,7.3,4.1s3.6-4.8,2.2-8.2c-1.2-3-4.1-5.4-7.3-4.1S1282.3,1327.3,1283.7,1330.6Z"/><path class="cls-14" d="M1294.7,1317.4a20.17,20.17,0,0,1,3.6-1.8c2.1-.9,3.6-1,4.8-.6a4.5,4.5,0,0,1,2.4,2.3,4.15,4.15,0,0,1-1.2,5v.1c1.3-.1,2.4.7,3.4,2.1a19.9,19.9,0,0,0,2.9,3.6l-2,.8a19.63,19.63,0,0,1-2.5-3.2c-1.3-1.9-2.4-2.3-4.2-1.7l-1.8.8,2.7,6.5-1.9.8Zm4.7,6,2-.8c2.1-.9,2.9-2.5,2.2-4.2-.8-1.9-2.6-2.2-4.6-1.4a7.68,7.68,0,0,0-1.8,1Z"/></g><g id="Layer_28" data-name="Layer 28"><polygon class="cls-1" points="92.3 1864.4 106.1 1875.7 110.7 1862.8 97.2 1850.8 92.3 1864.4"/><circle class="cls-1" cx="171" cy="1651.6" r="68.6"/><path class="cls-2" d="M187.7,1635.5s14.3-9.5,25.5,2.9c0,0,1.8,6.6-4.5,4.3a29.59,29.59,0,0,0-18.6-1S184.8,1641.3,187.7,1635.5Z"/><path class="cls-2" d="M132,1641.5s10-12.8,25.1-5.4c0,0,3.7,6.1-2.9,6.4,0,0-13.6-1.3-17.9,3.3C136.3,1645.7,131.1,1648.4,132,1641.5Z"/><path class="cls-3" d="M182.7,1625.6s5.7-6.9,17.9-6.5c0,0,14.3,1.6,19.5,9.5,0,0,3.9,4-1.6,2.6,0,0-10.6-7.2-34.9-4.1C183.5,1627.2,182,1626.6,182.7,1625.6Z"/><path class="cls-3" d="M121.4,1636.3s1.9-11.6,19.9-14.9c0,0,15-3.3,21.8,5.2,0,0,.3,2.3-4,1.8,0,0-22.9,1.1-25.4,3.1,0,0-7.7,2.2-10,5A1.94,1.94,0,0,1,121.4,1636.3Z"/><path class="cls-4" d="M185.9,1593.1s-30.3,47.8-44.8,39.3c0,0,16.5-13.3,12.5-19,0,0-34.3,40.7-51.4,42.1,0,0-40.6-76,67.2-82.8,0,0,53.8-5.6,72.2,38.1,0,0-24.9-9.9-27.5-15.5,0,0,10.5,8.5,13.1,15.5,0,0-22.3-9.9-28.9-18.3,0,0,7.9,8.5,6.6,9.9C204.9,1602.3,187.9,1596.6,185.9,1593.1Z"/><path class="cls-11" d="M258.9,1845.7s.5-7.8,4-7.2c0,0,3.7-.3,2,8,0,0-.7,7.5-4,6.8C260.9,1853.4,257.5,1854.5,258.9,1845.7Z"/><rect class="cls-1" x="135.18" y="1875.51" width="62" height="13.2" transform="translate(-1716.13 2046) rotate(-89.93)"/><rect class="cls-1" x="160.26" y="1912.34" width="11.7" height="13.2" transform="matrix(0, -1, 1, 0, -1753.03, 2082.7)"/><rect class="cls-1" x="167.67" y="1877.08" width="62" height="13.2" transform="translate(-1685.25 2080.05) rotate(-89.93)"/><path d="M191.5,1716s-.4,4.2-36.4,3.6l-1.5,19.7-18.6,6L96.8,1850.7l13.5,12L144,1768l2.8,87.9,71.5-4.1-5-100.5-20.8-19.2Z"/><rect class="cls-11" x="137.5" y="1832.23" width="92" height="33.4" transform="translate(-69.88 8.27) rotate(-2.17)"/><path class="cls-14" d="M154,1858.9a10.23,10.23,0,0,1-4.2.9c-4.6.1-8.1-2.6-8.2-7.9-.2-5.1,3.2-8.6,8.2-8.8a8.86,8.86,0,0,1,3.9.6l-.4,1.7a9.19,9.19,0,0,0-3.3-.6c-3.8.1-6.2,2.6-6.1,6.9.1,4,2.5,6.4,6.4,6.3a8.08,8.08,0,0,0,3.4-.8Z"/><path class="cls-14" d="M164.8,1851.5l-6.3.2.2,5.8,7-.2.1,1.8-9.1.3-.5-16.2,8.7-.3v1.8l-6.6.2.2,5.1,6.3-.2Z"/><path class="cls-14" d="M168.4,1859l-.5-16.2,2.3-.1,5.4,8a54.83,54.83,0,0,1,3.1,5.2h.1a65.73,65.73,0,0,1-.5-6.6l-.2-6.8,2-.1.5,16.2-2.1.1-5.4-8a57.36,57.36,0,0,1-3.2-5.3h-.1c.2,2,.3,4,.4,6.7l.2,6.9Z"/><path class="cls-14" d="M195.5,1857.6a10.23,10.23,0,0,1-4.2.9c-4.6.1-8.1-2.6-8.2-7.9-.2-5.1,3.2-8.6,8.2-8.8a8.86,8.86,0,0,1,3.9.6l-.4,1.7a9.19,9.19,0,0,0-3.3-.6c-3.8.1-6.2,2.6-6.1,6.9.1,4,2.5,6.4,6.4,6.3a8.08,8.08,0,0,0,3.4-.8Z"/><path class="cls-14" d="M211.2,1849.3c.2,5.6-3.1,8.6-7.2,8.8s-7.4-3.1-7.5-8c-.2-5.1,2.9-8.6,7.2-8.7S211.1,1844.6,211.2,1849.3Zm-12.5.7c.1,3.4,2.1,6.5,5.4,6.4s5.1-3.2,5-6.9c-.1-3.2-1.9-6.5-5.4-6.4s-5.1,3.4-5,6.9Z"/><path class="cls-14" d="M213.7,1841.6a27.33,27.33,0,0,1,4-.5c2.2-.1,3.7.3,4.7,1.2a3.89,3.89,0,0,1,1.4,3,4.2,4.2,0,0,1-2.9,4.2v.1c1.3.4,2,1.5,2.5,3.2a22.53,22.53,0,0,0,1.4,4.4l-2.1.1a24,24,0,0,1-1.2-3.8c-.6-2.2-1.4-3-3.3-3l-2,.1.2,7-2.1.1Zm2.3,7.3,2.1-.1c2.2-.1,3.6-1.3,3.6-3.2-.1-2.1-1.6-2.9-3.8-2.9a7.61,7.61,0,0,0-2.1.3Z"/><rect class="cls-1" x="192.84" y="1913.94" width="11.7" height="13.2" transform="matrix(0, -1, 1, 0, -1722.09, 2116.88)"/><g id="Layer_32" data-name="Layer 32"><polygon class="cls-1" points="256.1 1847.1 273.5 1843 266.1 1831.6 248.3 1834.9 256.1 1847.1"/><polygon points="187.9 1740.7 248.2 1835.3 266 1831.9 213.4 1750.7 188.3 1739.7 187.9 1740.7"/></g><path class="cls-5" d="M297.1,1833l-2.1,30.9s-.1,6.4-15.8,5.9c0,0-13.7-.2-14.8-7.8l.1-1.7s-.8-1.9-4.4-2.5c0,0-5.6-1.1-5.9-6.5,0,0-1.3-12.6,2.4-16.7,0,0,1.6-2.3,5.9-2.3a8.78,8.78,0,0,0,2.3-.7Z"/><path class="cls-6" d="M268.6,1841.5l-1,18s12.5,9.7,24.5,1.7l1.5-17.9s-3.4,3.1-13.5,1.8C280.2,1845.1,269.8,1844.6,268.6,1841.5Z"/><ellipse class="cls-7" cx="281.2" cy="1842.26" rx="3.2" ry="12.6" transform="translate(-1576.16 1994.59) rotate(-86.01)"/><path class="cls-8" d="M270.9,1835.3l-.6,11.7a.76.76,0,0,0,.6.8l3.8,1.1s.5,0,.5-.3l.8-10.5a3,3,0,0,0-1.6-.8s-1.1-1.7-2.3-1.8Z"/><path class="cls-8" d="M282.3,1867.3s4.7-.6,5.3-1.2a13.52,13.52,0,0,0,4.2-2s.4,0,0,.7c0,0-1.6,2.4-3.8,2.6,0,0-3.2.9-4.3.6a4.1,4.1,0,0,1-1.1-.1S281.6,1867.7,282.3,1867.3Z"/><path class="cls-8" d="M256.9,1839.6s-.9-1,1-3.8c0,0,2-2.8,4.8-1.7,0,0,.1.6-1.7.9,0,0-2.1.7-2.4,1.8a14.72,14.72,0,0,0-1,2.2C257.5,1839,257.2,1839.7,256.9,1839.6Z"/><path class="cls-9" d="M288.7,1843.9a3.19,3.19,0,0,1-3-2.5l-.6-3.9a3,3,0,0,0-3.7-2.1h-.1a8.73,8.73,0,0,1-7.2-1.1s-1.4-2.1-4.9-1.2c0,0-2.9.7-4.4-1.2a5.1,5.1,0,0,1-1.2-2.3l14-3.7,11.4.5,11.3.5s0,.6.1.6c.3.4.5.8.8,1.2,0,0,.6,1.8-.2,2.8,0,0-.7,1.2-1.4,1.3,0,0-1,.2-1.1.4a2.57,2.57,0,0,0-.5,1.2s-.4.8-.9.9a11.11,11.11,0,0,1-1.6.7,2.07,2.07,0,0,0-2.2,1.6,30.09,30.09,0,0,1-1.1,4.3s-.6,1.3-1.5,1.6A2.82,2.82,0,0,1,288.7,1843.9Z"/><path class="cls-10" d="M276.9,1817.4a7.56,7.56,0,0,1,8.8,1s6.9-2.4,9.7,3.5c0,0,6.4,1.2,5,5.2,0,0-1.9,2.3-5.1.3a2.51,2.51,0,0,1-1.9-.1s-1.5,2.8-2.3,2.3c0,0-1.8,1.6-3,1a2.29,2.29,0,0,1-1.5-1.2l-.7-.9s-.2-.4-.7.1c0,0-.6.8-1.3.6,0,0-.8-.4-1.8,1.2a3.89,3.89,0,0,1-1.5.2s-2.1,1.4-3.6,1a4.55,4.55,0,0,1-3.9-3.3,5,5,0,0,1-2.8,1.2s-.5.1-.5,0-.4-.2-.8.3c0,0-.6,1.1-3.2.9,0,0-1.5-.1-2-.9,0,0-.6-2.2.4-3.5a2.43,2.43,0,0,0,.1-1.6,4.21,4.21,0,0,1,1.8-5.1s.6-1.3,4.5-.8a6.63,6.63,0,0,1,3.5-1.6A4.65,4.65,0,0,1,276.9,1817.4Z"/><circle class="cls-7" cx="284.1" cy="1848.8" r="0.7"/><circle class="cls-7" cx="285" cy="1851.4" r="0.8"/><circle class="cls-7" cx="287.9" cy="1850.3" r="0.5"/><circle class="cls-7" cx="287.3" cy="1853.7" r="0.9"/><circle class="cls-7" cx="288.9" cy="1852.4" r="0.6"/><circle class="cls-7" cx="284.8" cy="1855.1" r="0.4"/><circle class="cls-7" cx="286.4" cy="1855.8" r="0.6"/><circle class="cls-7" cx="287" cy="1858.6" r="0.7"/><circle class="cls-7" cx="284.6" cy="1859.1" r="0.7"/><circle class="cls-7" cx="287" cy="1860" r="0.2"/><circle class="cls-7" cx="285.7" cy="1861.7" r="0.6"/><path class="cls-8" d="M286.6,1835s2.3-1,2.7,2.7a9.23,9.23,0,0,1-.1,3.7s0,.8-1,.6c0,0-1-.9-.7-3.6,0,0,.1-1.6-.2-1.9C287.4,1836.5,286,1835.1,286.6,1835Z"/><g id="Layer_33" data-name="Layer 33"><path d="M153.8,1680s12.6-10.5,22.5-10c0,0,12.4-.5,20.4,7.6,0,0-12.6-2.9-21.4-2.6C175.3,1675,171.5,1674.2,153.8,1680Z"/></g></g><g id="Layer_29" data-name="Layer 29"><polygon class="cls-1" points="442.8 1863 456.6 1874.4 461.2 1861.5 447.7 1849.4 442.8 1863"/><circle class="cls-1" cx="521.47" cy="1650.27" r="68.6"/><path class="cls-2" d="M538.2,1634.1s14.2-9.4,25.5,2.9c0,0,1.8,6.6-4.5,4.3a29.59,29.59,0,0,0-18.6-1C540.6,1640.4,535.2,1640,538.2,1634.1Z"/><path class="cls-2" d="M482.5,1640.2s10-12.8,25.1-5.4c0,0,3.7,6.1-2.9,6.4,0,0-13.6-1.3-18,3.3C486.8,1644.4,481.6,1647.1,482.5,1640.2Z"/><path class="cls-3" d="M533.2,1624.3s5.7-6.9,17.9-6.5c0,0,14.3,1.6,19.5,9.5,0,0,3.9,4-1.6,2.7,0,0-10.6-7.2-35-4.1C534,1625.9,532.5,1625.3,533.2,1624.3Z"/><path class="cls-3" d="M471.9,1635s1.9-11.6,19.9-15c0,0,15-3.3,21.8,5.2,0,0,.3,2.3-4,1.8,0,0-22.9,1.1-25.4,3.1,0,0-7.7,2.2-10,5A1.94,1.94,0,0,1,471.9,1635Z"/><path class="cls-4" d="M536.4,1591.8s-30.3,47.8-44.8,39.3c0,0,16.5-13.3,12.5-19,0,0-34.3,40.7-51.4,42.1,0,0-40.6-76,67.2-82.8,0,0,53.8-5.6,72.2,38.1,0,0-24.9-9.9-27.5-15.5,0,0,10.5,8.5,13.1,15.5,0,0-22.3-9.9-28.9-18.3,0,0,7.9,8.5,6.5,9.9C555.4,1601,538.3,1595.3,536.4,1591.8Z"/><path class="cls-11" d="M609.4,1844.4s.5-7.8,4-7.2c0,0,3.7-.3,2,8,0,0-.7,7.5-4,6.8C611.3,1852.1,608,1853.1,609.4,1844.4Z"/><rect class="cls-1" x="485.71" y="1874.2" width="62" height="13.2" transform="translate(-1364.71 2395.21) rotate(-89.93)"/><rect class="cls-1" x="510.79" y="1911.04" width="11.7" height="13.2" transform="translate(-1401.63 2431.94) rotate(-89.93)"/><rect class="cls-1" x="518.22" y="1875.79" width="62" height="13.2" transform="translate(-1333.84 2429.31) rotate(-89.93)"/><path d="M542,1714.7s-.4,4.2-36.4,3.6l-1.5,19.7-18.5,6-38.2,105.4,13.5,12,33.6-94.8,2.8,87.9,71.5-4.1-5-100.5-20.7-19.2Z"/><rect class="cls-11" x="488.01" y="1830.93" width="92" height="33.4" transform="translate(-69.58 21.54) rotate(-2.17)"/><path class="cls-14" d="M504.5,1857.6a10.23,10.23,0,0,1-4.2.9c-4.5.2-8.1-2.6-8.2-7.9a8,8,0,0,1,7.2-8.7h1a8.86,8.86,0,0,1,3.9.6l-.5,1.7a9.19,9.19,0,0,0-3.3-.6c-3.8.1-6.2,2.6-6.1,6.9.1,4,2.5,6.4,6.4,6.3a9.83,9.83,0,0,0,3.4-.7Z"/><path class="cls-14" d="M515.3,1850.2l-6.3.2.2,5.8,7-.2v1.8l-9.1.3-.5-16.2,8.7-.3v1.8l-6.6.2.2,5.1,6.3-.2Z"/><path class="cls-14" d="M518.9,1857.7l-.5-16.2,2.3-.1,5.4,8a54.83,54.83,0,0,1,3.1,5.2h0a65.73,65.73,0,0,1-.5-6.6l-.2-6.8,2-.1.5,16.2-2.1.1-5.4-8a57.36,57.36,0,0,1-3.2-5.3h-.1c.2,2,.3,4,.4,6.7l.2,6.9Z"/><path class="cls-14" d="M546,1856.3a10.23,10.23,0,0,1-4.2.9c-4.6.1-8.1-2.6-8.2-7.9-.2-5.1,3.2-8.6,8.2-8.8a8.86,8.86,0,0,1,3.9.6l-.5,1.7a9.19,9.19,0,0,0-3.3-.6c-3.8.1-6.2,2.6-6.1,6.9.1,4,2.5,6.4,6.4,6.3a8.08,8.08,0,0,0,3.4-.8Z"/><path class="cls-14" d="M561.7,1848c.2,5.6-3.1,8.6-7.2,8.8s-7.4-3.1-7.5-8c-.2-5.1,2.9-8.6,7.2-8.7S561.5,1843.2,561.7,1848Zm-12.5.7c.1,3.4,2.1,6.5,5.4,6.4s5.1-3.2,5-6.9c-.1-3.2-1.9-6.5-5.4-6.4s-5.2,3.4-5,6.9Z"/><path class="cls-14" d="M564.2,1840.2a27.33,27.33,0,0,1,4-.5c2.2-.1,3.7.3,4.7,1.2a3.89,3.89,0,0,1,1.4,3,4.2,4.2,0,0,1-2.9,4.2v.1c1.3.4,2,1.5,2.5,3.2a22.53,22.53,0,0,0,1.4,4.4l-2.2.1a24,24,0,0,1-1.2-3.8c-.5-2.2-1.4-3-3.3-3l-2,.1.2,7-2.1.1Zm2.3,7.3,2.1-.1c2.2-.1,3.6-1.3,3.5-3.2-.1-2.1-1.6-3-3.8-2.9a7.61,7.61,0,0,0-2.1.3Z"/><rect class="cls-1" x="543.28" y="1912.63" width="11.7" height="13.2" transform="translate(-1370.78 2466.01) rotate(-89.93)"/><polygon class="cls-1" points="606.5 1845.8 624 1841.7 616.6 1830.2 598.8 1833.6 606.5 1845.8"/><polygon points="538.4 1739.4 598.7 1833.9 616.5 1830.6 563.9 1749.4 538.8 1738.4 538.4 1739.4"/><path class="cls-5" d="M647.6,1831.6l-2.2,30.9s-.1,6.4-15.8,5.9c0,0-13.7-.2-14.8-7.8l.1-1.7s-.8-1.9-4.4-2.5c0,0-5.6-1.1-5.9-6.5,0,0-1.3-12.6,2.4-16.7,0,0,1.6-2.3,5.9-2.3a6.15,6.15,0,0,0,2.3-.7Z"/><path class="cls-6" d="M619.1,1840.2l-1,18s12.5,9.7,24.5,1.7l1.5-17.9s-3.4,3.1-13.5,1.8C630.7,1843.7,620.3,1843.3,619.1,1840.2Z"/><ellipse class="cls-7" cx="631.72" cy="1840.93" rx="3.2" ry="12.6" transform="translate(-1248.71 2343.03) rotate(-86.01)"/><path class="cls-8" d="M621.4,1834l-.6,11.7a.76.76,0,0,0,.6.8l3.8,1.1s.5,0,.5-.3l.7-10.5a3,3,0,0,0-1.6-.8s-1.1-1.7-2.3-1.8Z"/><path class="cls-8" d="M632.8,1866s4.7-.6,5.3-1.2a13.52,13.52,0,0,0,4.2-2s.4,0,0,.7c0,0-1.7,2.4-3.8,2.6,0,0-3.2.9-4.3.6a4.1,4.1,0,0,1-1.1-.1S632.1,1866.4,632.8,1866Z"/><path class="cls-8" d="M607.3,1838.2s-.9-1,1-3.8c0,0,2-2.8,4.8-1.7,0,0,.2.6-1.7.9,0,0-2.1.7-2.4,1.8a14.72,14.72,0,0,0-1,2.2C608,1837.7,607.7,1838.4,607.3,1838.2Z"/><path class="cls-9" d="M639.2,1842.6a3.19,3.19,0,0,1-3-2.5l-.6-3.9a3,3,0,0,0-3.7-2.1h-.1a8.79,8.79,0,0,1-7.2-1.1s-1.4-2.1-4.9-1.2c0,0-2.9.7-4.4-1.2a5.1,5.1,0,0,1-1.2-2.3l14-3.7,11.4.5,11.3.5s0,.6.1.6c.3.4.5.8.8,1.2,0,0,.6,1.8-.2,2.8,0,0-.7,1.2-1.3,1.3,0,0-1,.2-1.1.4a2.57,2.57,0,0,0-.5,1.2s-.4.8-.9.9a11.11,11.11,0,0,1-1.6.7,2.07,2.07,0,0,0-2.2,1.6,30.09,30.09,0,0,1-1.1,4.3s-.7,1.3-1.5,1.6A3.19,3.19,0,0,1,639.2,1842.6Z"/><path class="cls-10" d="M627.3,1816.1a7.42,7.42,0,0,1,8.8,1.1s6.8-2.4,9.7,3.5c0,0,6.4,1.2,5,5.2,0,0-1.9,2.3-5.1.3a2.51,2.51,0,0,1-1.9-.1s-1.5,2.8-2.3,2.3c0,0-1.8,1.6-3,1a2.29,2.29,0,0,1-1.5-1.2l-.7-.9s-.2-.4-.7.1c0,0-.6.8-1.3.6,0,0-.8-.4-1.8,1.2a3.89,3.89,0,0,1-1.5.2s-2.1,1.4-3.6,1a4.55,4.55,0,0,1-3.9-3.3,5,5,0,0,1-2.8,1.2s-.5.1-.5,0-.4-.2-.8.3c0,0-.6,1.1-3.2.9,0,0-1.5-.1-2-.9,0,0-.6-2.2.4-3.5a2.43,2.43,0,0,0,.1-1.6,4.21,4.21,0,0,1,1.8-5.1s.6-1.3,4.5-.8a5.82,5.82,0,0,1,3.5-1.5A3.4,3.4,0,0,1,627.3,1816.1Z"/><circle class="cls-7" cx="634.6" cy="1847.5" r="0.7"/><circle class="cls-7" cx="635.5" cy="1850" r="0.8"/><circle class="cls-7" cx="638.4" cy="1848.9" r="0.5"/><circle class="cls-7" cx="637.8" cy="1852.4" r="0.9"/><circle class="cls-7" cx="639.4" cy="1851.1" r="0.6"/><circle class="cls-7" cx="635.3" cy="1853.8" r="0.4"/><circle class="cls-7" cx="636.9" cy="1854.5" r="0.6"/><circle class="cls-7" cx="637.4" cy="1857.3" r="0.7"/><circle class="cls-7" cx="635.1" cy="1857.8" r="0.7"/><circle class="cls-7" cx="637.5" cy="1858.7" r="0.2"/><circle class="cls-7" cx="636.2" cy="1860.4" r="0.6"/><path class="cls-8" d="M637.1,1833.7s2.3-1,2.7,2.7a9.23,9.23,0,0,1-.1,3.7s0,.8-1,.6c0,0-1-.9-.7-3.6,0,0,.1-1.6-.2-1.9C637.8,1835.2,636.5,1833.8,637.1,1833.7Z"/><g id="Layer_34" data-name="Layer 34"><path d="M498.3,1679.7s17.9-14.9,32-14.3c0,0,17.6-.7,29.1,10.9,0,0-17.9-4.1-30.6-3.8C528.8,1672.5,523.4,1671.4,498.3,1679.7Z"/></g></g><g id="Layer_30" data-name="Layer 30"><polygon class="cls-1" points="792 1861.1 805.9 1872.5 810.5 1859.6 796.9 1847.5 792 1861.1"/><circle class="cls-1" cx="870.7" cy="1648.4" r="68.6"/><path class="cls-2" d="M887.4,1631.1s14.4-6.1,25.4,1.4c0,0,1.7,4-4.6,2.7a46.58,46.58,0,0,0-18.6-.3C889.7,1635,884.3,1634.8,887.4,1631.1Z"/><path class="cls-2" d="M831.6,1635.2s10.2-7.4,25.2-3.5c0,0,3.5,3.3-3,3.6,0,0-13.6-.4-18,2.2C835.8,1637.4,830.6,1639.1,831.6,1635.2Z"/><path class="cls-3" d="M882.4,1622.4s5.7-6.9,17.9-6.5c0,0,14.3,1.6,19.5,9.5,0,0,3.9,4-1.6,2.7,0,0-10.7-7.2-35-4.1C883.2,1624,881.8,1623.4,882.4,1622.4Z"/><path class="cls-3" d="M821.1,1633.1s1.9-11.5,19.9-14.9c0,0,15-3.3,21.8,5.2,0,0,.3,2.3-4,1.8,0,0-22.9,1.1-25.4,3.1,0,0-7.7,2.2-10,5A2.15,2.15,0,0,1,821.1,1633.1Z"/><path class="cls-4" d="M885.6,1589.9s-30.3,47.8-44.8,39.3c0,0,16.5-13.3,12.5-19,0,0-34.3,40.7-51.4,42.1,0,0-40.6-76,67.2-82.8,0,0,53.8-5.6,72.2,38.1,0,0-24.9-9.9-27.5-15.5,0,0,10.5,8.5,13.1,15.5,0,0-22.3-9.9-28.9-18.3,0,0,7.9,8.5,6.5,9.9C904.7,1599.1,887.6,1593.4,885.6,1589.9Z"/><path class="cls-11" d="M958.6,1842.5s.5-7.8,4-7.2c0,0,3.7-.3,2,8,0,0-.7,7.5-4,6.8C960.6,1850.2,957.3,1851.2,958.6,1842.5Z"/><rect class="cls-1" x="834.9" y="1872.36" width="62" height="13.2" transform="translate(-1014.12 2742.57) rotate(-89.93)"/><rect class="cls-1" x="860.07" y="1909.22" width="11.7" height="13.2" transform="translate(-1050.96 2779.39) rotate(-89.93)"/><rect class="cls-1" x="867.5" y="1873.84" width="62" height="13.2" transform="translate(-983.04 2776.65) rotate(-89.93)"/><path d="M891.3,1712.8s-.4,4.2-36.4,3.6l-1.5,19.7-18.5,6-38.2,105.4,13.5,12,33.7-94.8,2.8,87.9,71.5-4.1-5-100.6-20.7-19.2Z"/><rect class="cls-11" x="837.31" y="1829.03" width="92" height="33.4" transform="translate(-69.25 34.77) rotate(-2.17)"/><path class="cls-14" d="M853.8,1855.7a10.23,10.23,0,0,1-4.2.9c-4.6.2-8.1-2.6-8.2-7.9-.2-5.1,3.2-8.6,8.2-8.8a8.86,8.86,0,0,1,3.9.6l-.5,1.7a9.19,9.19,0,0,0-3.3-.6c-3.8.1-6.2,2.6-6.1,6.9.1,4,2.5,6.4,6.4,6.3a8.08,8.08,0,0,0,3.4-.8Z"/><path class="cls-14" d="M864.5,1848.3l-6.3.2.2,5.8,7-.2.1,1.8-9.1.3-.5-16.2,8.7-.3.1,1.8-6.6.2.2,5.1,6.3-.2Z"/><path class="cls-14" d="M868.2,1855.8l-.5-16.2,2.3-.1,5.5,8a54.83,54.83,0,0,1,3.1,5.2h0a65.73,65.73,0,0,1-.5-6.6l-.2-6.8,2-.1.5,16.2-2.1.1-5.4-8a57.36,57.36,0,0,1-3.2-5.3h-.1c.2,2,.3,4,.4,6.7l.2,6.9Z"/><path class="cls-14" d="M895.3,1854.4a10.23,10.23,0,0,1-4.2.9c-4.6.1-8.1-2.6-8.2-7.9-.2-5.1,3.2-8.6,8.2-8.8a8.86,8.86,0,0,1,3.9.6l-.5,1.7a9.19,9.19,0,0,0-3.3-.6c-3.8.1-6.2,2.6-6.1,6.9.1,4,2.5,6.4,6.4,6.3a8.08,8.08,0,0,0,3.4-.8Z"/><path class="cls-14" d="M910.9,1846.1c.2,5.6-3.1,8.6-7.2,8.8s-7.4-3.1-7.5-8c-.2-5.1,2.9-8.6,7.2-8.7S910.8,1841.3,910.9,1846.1Zm-12.5.7c.1,3.4,2.1,6.5,5.4,6.4s5.1-3.2,5-6.9c-.1-3.2-1.9-6.5-5.4-6.4S898.3,1843.2,898.4,1846.8Z"/><path class="cls-14" d="M913.4,1838.3a27.33,27.33,0,0,1,4-.5c2.2-.1,3.7.3,4.7,1.2a3.89,3.89,0,0,1,1.4,3,4.2,4.2,0,0,1-2.9,4.2v.1c1.3.4,2,1.5,2.5,3.2a22.53,22.53,0,0,0,1.4,4.4l-2.2.1a24,24,0,0,1-1.2-3.8c-.5-2.2-1.4-3-3.3-3l-2,.1.2,7-2.1.1Zm2.3,7.3,2.1-.1c2.2-.1,3.6-1.3,3.5-3.2-.1-2.1-1.6-3-3.8-2.9a12.31,12.31,0,0,0-2,.2Z"/><rect class="cls-1" x="892.56" y="1910.7" width="11.7" height="13.2" transform="translate(-1019.98 2813.37) rotate(-89.93)"/><polygon class="cls-1" points="955.8 1843.9 973.2 1839.8 965.8 1828.3 948 1831.7 955.8 1843.9"/><polygon points="887.7 1737.5 948 1832 965.8 1828.7 913.2 1747.4 888 1736.5 887.7 1737.5"/><path class="cls-5" d="M996.8,1829.7l-2.2,30.9s-.1,6.4-15.8,5.9c0,0-13.7-.2-14.8-7.8l.1-1.7s-.8-1.9-4.4-2.5c0,0-5.6-1.1-5.9-6.5,0,0-1.3-12.6,2.4-16.7,0,0,1.6-2.3,5.9-2.3a8.78,8.78,0,0,0,2.3-.7Z"/><path class="cls-6" d="M968.3,1838.2l-1,18s12.5,9.7,24.5,1.7l1.5-17.9s-3.4,3.1-13.5,1.8C980,1841.8,969.5,1841.4,968.3,1838.2Z"/><ellipse class="cls-7" cx="980.98" cy="1839.07" rx="3.2" ry="12.6" transform="translate(-921.89 2689.71) rotate(-86.01)"/><path class="cls-8" d="M970.6,1832l-.6,11.7a.76.76,0,0,0,.6.8l3.8,1.1s.5,0,.5-.3l.7-10.5a3,3,0,0,0-1.6-.8s-1.1-1.7-2.3-1.8Z"/><path class="cls-8" d="M982.1,1864.1s4.7-.7,5.3-1.2a13.52,13.52,0,0,0,4.2-2s.4,0,0,.7c0,0-1.6,2.4-3.8,2.6,0,0-3.2.9-4.3.6a4.1,4.1,0,0,1-1.1-.1C982.3,1864.7,981.3,1864.5,982.1,1864.1Z"/><path class="cls-8" d="M956.6,1836.3s-.9-1,1-3.8c0,0,2-2.8,4.8-1.7,0,0,.2.6-1.7.9,0,0-2.1.7-2.4,1.8a8.75,8.75,0,0,0-1,2.2C957.2,1835.7,956.9,1836.5,956.6,1836.3Z"/><path class="cls-9" d="M988.4,1840.7a3.19,3.19,0,0,1-3-2.5l-.6-3.9a3,3,0,0,0-3.7-2.1H981a8.73,8.73,0,0,1-7.2-1.1s-1.4-2.1-4.8-1.2c0,0-2.9.7-4.4-1.2a5.1,5.1,0,0,1-1.2-2.3l14-3.7,11.4.5,11.3.5s0,.6.1.6c.3.4.5.8.8,1.2,0,0,.6,1.8-.2,2.8,0,0-.7,1.2-1.3,1.3,0,0-1,.1-1.2.4a2.57,2.57,0,0,0-.5,1.2s-.4.8-.9.9a11.11,11.11,0,0,1-1.6.7,2.07,2.07,0,0,0-2.2,1.6s-.8,4.1-1.1,4.3c0,0-.6,1.3-1.5,1.6A3.19,3.19,0,0,1,988.4,1840.7Z"/><path class="cls-10" d="M976.6,1814.2a7.44,7.44,0,0,1,8.8,1s6.8-2.4,9.7,3.5c0,0,6.4,1.2,5,5.2,0,0-1.9,2.3-5.2.3a2.51,2.51,0,0,1-1.9-.1s-1.5,2.8-2.3,2.3c0,0-1.8,1.6-3,1a2.29,2.29,0,0,1-1.5-1.2l-.7-.9s-.2-.4-.7.1c0,0-.6.8-1.3.6,0,0-.8-.4-1.8,1.2a3.89,3.89,0,0,1-1.5.2s-2.1,1.4-3.6,1a4.55,4.55,0,0,1-3.9-3.3,5,5,0,0,1-2.8,1.2s-.5.1-.5,0-.4-.2-.8.3c0,0-.6,1.1-3.2.9a3.13,3.13,0,0,1-2-.9s-.6-2.2.4-3.5a2.43,2.43,0,0,0,.1-1.6,4.21,4.21,0,0,1,1.8-5.1s.6-1.3,4.5-.8a5.82,5.82,0,0,1,3.5-1.5A3.68,3.68,0,0,1,976.6,1814.2Z"/><circle class="cls-7" cx="983.9" cy="1845.6" r="0.7"/><circle class="cls-7" cx="984.8" cy="1848.1" r="0.8"/><circle class="cls-7" cx="987.7" cy="1847" r="0.5"/><circle class="cls-7" cx="987" cy="1850.5" r="0.9"/><circle class="cls-7" cx="988.6" cy="1849.2" r="0.6"/><circle class="cls-7" cx="984.6" cy="1851.9" r="0.4"/><circle class="cls-7" cx="986.2" cy="1852.6" r="0.6"/><circle class="cls-7" cx="986.7" cy="1855.4" r="0.7"/><circle class="cls-7" cx="984.3" cy="1855.9" r="0.7"/><circle class="cls-7" cx="986.7" cy="1856.8" r="0.2"/><circle class="cls-7" cx="985.4" cy="1858.5" r="0.6"/><path class="cls-8" d="M986.3,1831.8s2.3-1,2.7,2.7a9.23,9.23,0,0,1-.1,3.7s0,.8-1,.6c0,0-1-.9-.7-3.6,0,0,.1-1.6-.2-1.9C987.1,1833.3,985.8,1831.9,986.3,1831.8Z"/><path d="M847.5,1677.8s17.9-15,32-14.3c0,0,17.6-.7,29.1,10.9,0,0-17.9-4.1-30.6-3.8C878.1,1670.6,872.6,1669.5,847.5,1677.8Z"/><g id="Layer_35" data-name="Layer 35"><ellipse class="cls-15" cx="828" cy="1598.9" rx="17.5" ry="16.6"/><polygon class="cls-15" points="813.5 1589.7 827.8 1569.2 842.6 1589.7 813.5 1589.7"/></g></g></svg>
