<svg id="Layer_1" data-name="Layer 1" xmlns="http://www.w3.org/2000/svg" viewBox="0 0 100 100"><defs><style>.cls-1{fill:#ff9207;}.cls-2{fill:#1f2532;}.cls-3{fill:#fff;}</style></defs><title>Artboard 1</title><path class="cls-1" d="M93.87,46.19h-74A1.76,1.76,0,0,0,18.12,48V73.61a1.77,1.77,0,0,0,1.77,1.77h9.25V83l10.32-7.63H93.87a1.77,1.77,0,0,0,1.77-1.77V48A1.76,1.76,0,0,0,93.87,46.19Z"/><path class="cls-2" d="M93.76,17H6.13a1.77,1.77,0,0,0-1.77,1.77V44.42a1.77,1.77,0,0,0,1.77,1.77h5.73v7.56L22.1,46.19H93.76a1.76,1.76,0,0,0,1.76-1.77V18.76A1.76,1.76,0,0,0,93.76,17Z"/><path class="cls-3" d="M17,24.88h5.62c3,0,5.13,1.41,5.13,4.65s-1.8,4.79-5,4.79H20.66V39H17Zm3.67,6.48h.62c1.33,0,2.64,0,2.64-1.72s-1.22-1.8-2.64-1.8h-.62Z"/><path class="cls-3" d="M41.11,39H36.54l-3.46-5.43h0V39H29.37V24.88h5.49c2.79,0,4.9,1.33,4.9,4.35a3.79,3.79,0,0,1-3.09,4ZM33,31.21h.36c1.2,0,2.54-.22,2.54-1.76s-1.34-1.76-2.54-1.76H33Z"/><path class="cls-3" d="M45.78,39H42.11V24.88h3.67Z"/><path class="cls-3" d="M54.09,33.46l3.43-8.58h4L55.48,39H52.63L46.69,24.88h4Z"/><path class="cls-3" d="M64.33,36.55l-1,2.45H59.47L64.9,24.88h4L74.22,39H70.31l-.92-2.45Zm2.57-7.3h0l-1.51,4.49H68.4Z"/><path class="cls-3" d="M79.86,39H76.19V28h-3V24.88h9.73V28h-3Z"/><path class="cls-3" d="M37,57.83a3.9,3.9,0,0,0-2.44-.94c-.67,0-1.57.4-1.57,1.18s1,1.14,1.63,1.35l.94.28c2,.58,3.48,1.57,3.48,3.86a4.82,4.82,0,0,1-1.46,3.8,6.18,6.18,0,0,1-4,1.33,8.71,8.71,0,0,1-5-1.61l1.57-3a5,5,0,0,0,3.26,1.46c.86,0,1.78-.43,1.78-1.42S33.8,62.77,33,62.55c-2.3-.66-3.82-1.26-3.82-4a4.58,4.58,0,0,1,4.87-4.74A9.71,9.71,0,0,1,38.48,55Z"/><path class="cls-3" d="M40.8,54.2h3.67l6.72,8.63h0V54.2H54.9V68.31H51.23l-6.72-8.65h0v8.65H40.8Z"/><path class="cls-3" d="M60.89,65.86l-1,2.45H56L61.46,54.2h4l5.32,14.11H66.87L66,65.86Zm2.57-7.3h0l-1.51,4.49h3Z"/><path class="cls-3" d="M80.07,54.2h4.55L79,60.88l6.13,7.43H80.37l-4.74-6.12h0v6.12H71.93V54.2H75.6V60h0Z"/></svg>
