<svg id="Layer_1" data-name="Layer 1" xmlns="http://www.w3.org/2000/svg" xmlns:xlink="http://www.w3.org/1999/xlink" viewBox="0 0 350 500"><defs><style>.cls-1,.cls-3{fill:none;}.cls-2{fill:#d08b59;}.cls-3{stroke:#bd8054;stroke-miterlimit:10;stroke-width:2px;}.cls-4{clip-path:url(#clip-path);}.cls-5{fill:url(#linear-gradient);}.cls-6{fill:#231f20;}.cls-7{fill:#ccc;}.cls-8{fill:#fff;}.cls-9{fill:#0071bc;}.cls-10{fill:#f7936d;}.cls-11{fill:#534741;}.cls-12{fill:#42210b;}.cls-13{fill:#fbba3b;}.cls-14{fill:#e6e6e6;}.cls-15{fill:#fcd921;}.cls-16{fill:#fcb321;}.cls-17{fill:#f2f2f2;}.cls-18{fill:#ffffed;}.cls-19{fill:#faf8d8;}.cls-20{fill:#e13600;}.cls-21{fill:#090c0a;}.cls-22{fill:#fdfdfd;}</style><clipPath id="clip-path"><rect class="cls-1" x="144.15" y="39.89" width="139.49" height="229.97"/></clipPath><linearGradient id="linear-gradient" x1="593.46" y1="247.37" x2="320.12" y2="-560.68" gradientTransform="translate(0 402)" gradientUnits="userSpaceOnUse"><stop offset="0" stop-color="#595233"/><stop offset="1" stop-color="#a08558"/></linearGradient></defs><title>Artboard 1</title><path class="cls-2" d="M244,104.4l10.9,32.1,20.54-11.62s21.07-36.32-10.57-30.38Z"/><path class="cls-2" d="M260.33,152.37l10.25,30.17c17.26-6,26.52-17.95,24.62-24.19S278.55,147.1,260.33,152.37Z"/><path class="cls-2" d="M272.42,188l10.25,30.16,14.79-4.93c8.53-7.12,9.36-19.34,3.47-26.31C294.46,179.2,280.52,178.64,272.42,188Z"/><path class="cls-2" d="M284.51,223.53l-18.39,54.86L308.69,249s26.93-25-10.25-30.17Z"/><path class="cls-2" d="M65.88,353.47,99,208.4s7.46-27.41,12-23.93l52.5-36.34,7.31,56.25c41.87-12.37,76.81-12.28,86.46,3.41.6,1,3.77,6.12,2.36,11.9-3.34,13.65-30,21.39-68.36,20.72l4.15,32L205.2,282l60.92-3.57s-25.63,56.92-76.23,68.37-115,16.59-115,16.59Z"/><line class="cls-3" x1="199.69" y1="207.22" x2="203.58" y2="232.93"/><g class="cls-4"><polygon class="cls-5" points="1271.17 376.54 -508.18 376.54 -508.18 -77.04 1271.17 -331.04 1271.17 376.54"/></g><path class="cls-2" d="M71,334.33S64.14,324.64,46.65,536l127.29,6.09s-3.51-165.35,9.32-195"/><g id="mobil"><path class="cls-6" d="M268.73,11H160.57a19.23,19.23,0,0,0-19.23,19.23v249.3a19.23,19.23,0,0,0,19.23,19.23H268.73A19.23,19.23,0,0,0,288,279.59V30.23A19.23,19.23,0,0,0,268.79,11Zm11.92,252.41h-132V43.56h132Z"/><circle class="cls-7" cx="214.65" cy="281.32" r="11.46"/><circle class="cls-7" cx="221.58" cy="20.05" r="1.8"/><circle class="cls-7" cx="197.67" cy="29.76" r="2.47"/><rect class="cls-7" x="209.06" y="28.85" width="25.04" height="1.82" rx="0.51" ry="0.51"/><path class="cls-2" d="M111.63,277.23c-3.44-1.76,26-57.54,30.14-70.35,23.86-34.4,33.75-63.06,24.61-74-3.88-4.62-10-4.71-11.18-4.73-18.48-.29-39.5,30.57-54.79,74.77C109.32,211,88.07,288.74,111.63,277.23Z"/></g><g id="Layer_3" data-name="Layer 3"><path class="cls-8" d="M268.84,129.34c1.2-1.18,2.43-2.35,3.59-3.57a.82.82,0,0,0,0-1.15l0,0a.88.88,0,0,0-1.25-.1h0a34.34,34.34,0,0,0-4,4,1.56,1.56,0,0,0,.25,2.18h0a1.71,1.71,0,0,0,2.36,0c.9-.82,1.74-1.7,2.6-2.55a4.78,4.78,0,0,1,.58-.52.57.57,0,0,1,.82.8A21.08,21.08,0,0,1,269.9,132a2.78,2.78,0,0,1-3.65-.75,2.91,2.91,0,0,1,0-3.69c1.3-1.4,2.66-2.75,4.06-4a2,2,0,0,1,2.82.1,2.08,2.08,0,0,1,.19,2.9c-1.18,1.3-2.45,2.53-3.73,3.74a1.23,1.23,0,0,1-1.73,0v0a1.26,1.26,0,0,1-.25-1.73,23.74,23.74,0,0,1,3.16-3.18.46.46,0,0,1,.65,0l0,.06a.64.64,0,0,1-.07.9l0,0c-.68.71-1.39,1.39-2.08,2.09-.24.24-.46.49-.7.73Z"/><path class="cls-8" d="M269.75,140.81h.86c.35,0,.65.11.69.51a.55.55,0,0,1-.41.65h-.11c-.16,0-.38,0-.38.25s.19.27.36.31c.72.14,1.34.74,2.21.31.45-.22,1,.56.78,1.09a1.33,1.33,0,0,0,.07,1.15,4.51,4.51,0,1,1-8.23,0c.17-.38.34-.72.08-1.13a.67.67,0,0,1,.18-.87.68.68,0,0,1,.85-.22c.86.46,1.45-.33,2.19-.45.22,0,.25-.35-.06-.41s-.82-.22-.69-.77.61-.42,1-.44h.61ZM273,147a3.25,3.25,0,1,0-3.27,3.23A3.26,3.26,0,0,0,273,147Z"/><path class="cls-8" d="M268.71,95.17c-1.39,0-2.12-.5-2.34-1.53a36.91,36.91,0,0,1-.68-3.92,2,2,0,0,1,1.58-2.35l.23,0q1.61-.33,3.24-.57a2.11,2.11,0,0,1,2.66,1.36,2.25,2.25,0,0,1,.1.64c.14.68.26,1.36.36,2a3.32,3.32,0,0,1-2.59,3.92h-.07C270.27,94.92,269.33,95.05,268.71,95.17Zm1-3c0-1.49,0-1.43,1.36-1.53,1.81-.13,1.6-.12,1.18-2.09a.84.84,0,0,0-.95-.71h-.05c-1.19.19-2.38.41-3.57.64a.91.91,0,0,0-.82,1,.59.59,0,0,0,0,.13c.2,1.16.41,2.33.64,3.48a1,1,0,0,0,1.13.84h.08c.91-.07,1-.25,1-1.72Z"/><path class="cls-8" d="M265.47,75.28a2.88,2.88,0,0,1,1.15-2.72c1.2-1.12,2.33-2.33,3.5-3.47a2.2,2.2,0,0,1,3.1-.27l.13.12a2.15,2.15,0,0,1,.06,3,1.29,1.29,0,0,1-.21.19c-1.29,1.32-2.63,2.59-3.9,3.92-1,1-2.25.66-3.42.72-.29,0-.4-.28-.41-.57S265.47,75.6,265.47,75.28Zm2.14.37a1.26,1.26,0,0,0,.78-.46l3.85-3.85c.41-.42.75-.89.22-1.42s-1-.33-1.52.12l-2.08,2.08L267,74a1.3,1.3,0,0,0-.28,1.29c0,.41.4.32.89.36Z"/><path class="cls-8" d="M269.78,50h3c.39,0,.8,0,.89.5a2.32,2.32,0,0,1-.07,1.6c-.2.32-.42.06-.57-.19a1.81,1.81,0,0,0-2.18-.88.72.72,0,0,0-.57.77v4.5a1.26,1.26,0,0,0,.91,1.25c.25.08.51.19.46.53s-.39.37-.68.37h-2.68c-.27,0-.55,0-.61-.35s.19-.46.45-.54c.79-.24.92-.88.93-1.57V52.26c0-.48.09-1-.55-1.22a2,2,0,0,0-2.06.53c-.08.15-.15.31-.22.47a.32.32,0,0,1-.36.18c-.15,0-.21-.17-.25-.31-.39-1.26.08-1.91,1.42-1.92h2.74Z"/><path class="cls-8" d="M273.42,111.79a1.64,1.64,0,0,0-1.54-1.29,1.06,1.06,0,0,1-.83-1.77c.4-.64.79-1.28,1.17-1.93a1.19,1.19,0,0,0,.16-1.15c-.1-.25-.22-.5-.49-.57s-.44.22-.57.42c-.41.63-.82,1.26-1.21,1.9-.29.48-.52.45-.8,0-.37-.61-.76-1.22-1.16-1.82-.15-.22-.25-.6-.62-.48a.91.91,0,0,0-.54.73,1.36,1.36,0,0,0,.22,1l1.21,2a1,1,0,0,1-.8,1.69,2.93,2.93,0,0,0-.59.11,1.76,1.76,0,0,0-1.06,2,1.3,1.3,0,0,0,1.31,1.11,1.62,1.62,0,0,0,1.33-.78,12.22,12.22,0,0,0,.74-1.26c.27-.53.48-.49.73,0a5.94,5.94,0,0,0,1,1.53,1.39,1.39,0,0,0,2.37-1.39Zm-5.88,1a.73.73,0,1,1,.73-.73.73.73,0,0,1-.73.69Zm4.58,0a.73.73,0,1,1,.73-.73.73.73,0,0,1-.73.69Z"/><path class="cls-8" d="M270.91,148.33a1.81,1.81,0,0,1-.51-.08.44.44,0,0,1-.27-.55.38.38,0,0,1,.42-.34h0a.72.72,0,0,0,.64,0,.91.91,0,0,0,.29-.51v-.23a2.92,2.92,0,0,0-1,.29c-.69.9-1.89,1.63-2.67,1.3a1.16,1.16,0,0,1-.61-1.15,1.52,1.52,0,0,1,.43-1.16,1.57,1.57,0,0,1,1.45-.23.47.47,0,0,1,.27.55.38.38,0,0,1-.43.33h0c-.13,0-.58-.12-.78.08a.58.58,0,0,0-.14.44c0,.32.08.28.12.3.36.16,1.3-.32,1.86-1.1l.11-.1c.19-.13,1.18-.75,1.79-.3a1.2,1.2,0,0,1,.4,1.11,1.84,1.84,0,0,1-.63,1.15A1.29,1.29,0,0,1,270.91,148.33Z"/><g id="zSUmWF"><path class="cls-8" d="M177.65,257.28h-2.28a1.76,1.76,0,0,1-1.89-1.6v-5a1.76,1.76,0,0,1,1.64-1.87h2a.57.57,0,0,1,.64.58c0,.4-.29.55-.65.56h-1.48a.92.92,0,0,0-1,.89v4.37a.82.82,0,0,0,.74.91h4.48c.65,0,.95-.35.95-1v-1.4c0-.47.15-.71.6-.7s.54.32.55.67c0,.67,0,1.33,0,2a1.69,1.69,0,0,1-1.69,1.57h-2.62Z"/><path class="cls-8" d="M159.47,257.28h-2.89a1.11,1.11,0,0,1-1.19-.71,2.68,2.68,0,0,1,.06-1.95.43.43,0,0,1,.53-.2.55.55,0,0,1,.45.58c-.1,1.09.58,1.13,1.39,1.11h3.76c.65,0,1.09-.14,1-.91,0-.41.1-.8.6-.78s.54.43.57.83c.1,1.66-.24,2-1.89,2h-2.44Z"/><path class="cls-8" d="M160.12,252.58c.4,0,.51-.32.72-.45a.56.56,0,0,1,.79,0,.51.51,0,0,1,.05.73s0,0-.05,0c-.56.59-1.13,1.17-1.73,1.72-.31.29-.65.16-.93-.1-.44-.43-.88-.85-1.3-1.29s-.69-.66-.24-1.11.73-.07,1,.21a.45.45,0,0,0,.45.19v-2.74c0-.44,0-1,.58-1s.58.54.58,1C160.13,250.73,160.12,251.65,160.12,252.58Z"/><path class="cls-8" d="M179.81,248.81a.61.61,0,0,1,.6.62s0,.06,0,.09c0,.57.15.88.79.83.37,0,.73.11.74.55s-.37.63-.78.6c-.58,0-.77.24-.74.78,0,.38-.11.74-.55.75s-.63-.37-.61-.78c0-.58-.23-.77-.77-.75-.38,0-.74-.1-.75-.55s.37-.62.78-.6c.58,0,.77-.23.74-.78a.64.64,0,0,1,.5-.75Z"/></g></g><path class="cls-9" d="M228.86,228.3l26.43-7.07s-1.22,12.82-23.78,8.89Z"/><polygon class="cls-9" points="253.62 221.67 254.66 227.47 259.42 225.4 258.93 219.36 253.62 221.67"/><polygon class="cls-10" points="257.85 206.38 241.78 193.36 233.47 197.05 251.36 209.09 253.08 218.67 258.68 216.41 257.85 206.38"/><polygon class="cls-10" points="226.79 197.98 228.85 228.3 235.19 225.75 233.28 197.54 226.79 197.98"/><polygon class="cls-10" points="193.18 217.93 201.53 220.74 201.38 214 193.08 210.86 193.18 217.93"/><polygon class="cls-10" points="239.52 114.83 233.82 117.39 235.83 121.17 241.44 118.47 239.52 114.83"/><circle class="cls-10" cx="192.2" cy="106.53" r="33.71"/><path class="cls-11" d="M197.06,96.16s4.91-6.83,12.19-3.1c0,0,2,2.71-1.33,2.76a14.16,14.16,0,0,0-8.7,2.8S196.72,99.35,197.06,96.16Z"/><path class="cls-11" d="M172.54,108.64s2.36-7.66,10.61-6.88c0,0,2.76,2.16-.19,3.44,0,0-6.49,1.77-7.67,4.62C175.24,109.82,173.32,112,172.54,108.64Z"/><path class="cls-12" d="M193,92.52s1.43-4.17,7.13-6.09c0,0,6.83-1.77,10.61,1,0,0,2.51,1.13-.29,1.48,0,0-6.15-1.48-16.81,4.22C193.67,93.11,192.88,93.06,193,92.52Z"/><path class="cls-12" d="M166.74,108.15s-1.18-5.6,6.49-10.32c0,0,6.29-4.13,10.91-1.42,0,0,.54,1-1.53,1.57,0,0-10.32,4.52-11.15,5.85,0,0-3.15,2.36-3.74,4A.84.84,0,0,1,166.74,108.15Z"/><path class="cls-13" d="M188.8,77s-5.6,27.23-13.71,25.85c0,0,5.26-9,2.46-10.91,0,0-8.65,24.67-16.22,28.31,0,0-31.94-27.86,16.42-49.78,0,0,23.73-11.94,39.8,4.91,0,0-13.17-.19-15.33-2.31,0,0,6.29,2.07,8.75,4.82,0,0-12-.64-16.46-3.39,0,0,5.11,2.5,4.71,3.39C199.17,77.88,190.33,78.27,188.8,77Z"/><path class="cls-14" d="M233.38,97.44l15.08,2.26s3.15.29,2.26,8c0,0-.64,6.68-4.37,6.93l-.84-.1s-.93.29-1.37,2.06a3.54,3.54,0,0,1-3.39,2.61s-6.24.1-8.06-1.82a3.75,3.75,0,0,1-.94-3,3.86,3.86,0,0,0-.24-1.13Z"/><path class="cls-15" d="M236.42,111.74l8.75,1.18s5.21-5.75,1.82-11.94l-8.75-1.43s1.38,1.77.39,6.68C238.63,106.19,238,111.25,236.42,111.74Z"/><ellipse class="cls-16" cx="237.22" cy="105.56" rx="6.19" ry="1.57" transform="translate(97.6 324.48) rotate(-81.46)"/><path class="cls-17" d="M233.47,110.36l5.71.74a.44.44,0,0,0,.39-.25l.69-1.81s.05-.25-.15-.3L235,108a1.54,1.54,0,0,0-.49.74s-.89.44-.94,1Z"/><path class="cls-17" d="M249.64,106a12.8,12.8,0,0,0-.39-2.66,6.52,6.52,0,0,0-.84-2.11s.05-.19.35,0a2.83,2.83,0,0,1,1.08,2,7.71,7.71,0,0,1,.15,2.16c0,.2-.05.34-.05.54C249.94,105.89,249.84,106.38,249.64,106Z"/><path class="cls-17" d="M235.05,117.39s-.54.39-1.82-.64a2.14,2.14,0,0,1-.64-2.41s.29,0,.34.89c0,0,.3,1,.79,1.27a3.38,3.38,0,0,0,1,.59C234.8,117.09,235.15,117.24,235.05,117.39Z"/><path class="cls-18" d="M238.44,102a1.5,1.5,0,0,1-1.33,1.37l-1.92.15A1.49,1.49,0,0,0,234,105.2h0v0a4.14,4.14,0,0,1-.84,3.44,2.2,2.2,0,0,0-.79,2.36s.2,1.47-.78,2.06a3.1,3.1,0,0,1-1.18.54l-1.28-7,.69-5.56.69-5.5s.29,0,.29,0a1.49,1.49,0,0,1,.64-.29,1.68,1.68,0,0,1,1.38.19s.59.4.59.69a1.28,1.28,0,0,0,.14.59.8.8,0,0,0,.54.25s.4.24.45.49a2.56,2.56,0,0,1,.29.83,1,1,0,0,0,.69,1.13c.69.2,1.37.45,2.06.69,0,0,.59.39.69.79A1.38,1.38,0,0,1,238.44,102Z"/><path class="cls-19" d="M225,106.73a3.67,3.67,0,0,1,.84-4.28s-.94-3.44,2.06-4.62c0,0,.84-3.09,2.75-2.26a1.87,1.87,0,0,1,0,2.56,1.17,1.17,0,0,1-.1.88s1.32.84,1,1.23c0,0,.69.93.34,1.47a1,1,0,0,1-.64.69l-.49.3s-.19.09,0,.34c0,0,.35.34.2.64,0,0-.25.34.54.93a1.86,1.86,0,0,1,0,.74,2.85,2.85,0,0,1,.34,1.82,2.32,2.32,0,0,1-1.77,1.82,1.87,1.87,0,0,1,.45,1.42s0,.25-.05.25-.15.19.1.39c0,0,.49.34.29,1.62a1.49,1.49,0,0,1-.49.94s-1.13.24-1.67-.3c0,0-.49-.24-.74-.1a2,2,0,0,1-2.41-1.08s-.59-.34-.19-2.21a3.18,3.18,0,0,1-.64-1.77A2.87,2.87,0,0,1,225,106.73Z"/><circle class="cls-16" cx="240.65" cy="104.42" r="0.34"/><circle class="cls-16" cx="241.93" cy="104.07" r="0.39"/><circle class="cls-16" cx="241.53" cy="102.6" r="0.25"/><circle class="cls-16" cx="243.16" cy="103.04" r="0.44"/><circle class="cls-16" cx="242.61" cy="102.2" r="0.29"/><circle class="cls-16" cx="243.75" cy="104.32" r="0.2"/><circle class="cls-16" cx="244.19" cy="103.58" r="0.29"/><circle class="cls-16" cx="245.56" cy="103.38" r="0.34"/><circle class="cls-16" cx="245.71" cy="104.56" r="0.34"/><circle class="cls-16" cx="246.25" cy="103.43" r="0.1"/><circle class="cls-16" cx="247.04" cy="104.17" r="0.29"/><path class="cls-17" d="M234,102.65s-.4-1.13,1.42-1.23a4.72,4.72,0,0,1,1.82.19s.39,0,.25.5a2.13,2.13,0,0,1-1.77.19s-.79-.1-.94,0C234.75,102.35,234,102.94,234,102.65Z"/><path class="cls-8" d="M226.84,109s-3.54,1.52-4-.15c0,0-1-1.57,3.1-2.65,0,0,3.44-1.38,3.88.24C229.79,106.43,231,107.61,226.84,109Z"/><rect class="cls-9" x="229.06" y="228.17" width="6.49" height="5.75" transform="translate(-15.18 16.34) rotate(-3.9)"/><path d="M212.88,132.48s.54,2-16.07,8l2.76,9.33-7.47,6,.83,55.09,8.31,3.19-1.13-49.44,16.61,39.91,32.09-14.35L229,144.91l-12.87-5.21Z"/><path d="M234.8,117.93l7.32,28.21-23.39-7.23s-2.21-.44-14.94,9.29l13.47,3.39-.15-.19,29.53.54,2-4.52-7.76-30.72Z"/><ellipse cx="199.02" cy="116.66" rx="6.34" ry="8.21" transform="matrix(0.96, -0.28, 0.28, 0.96, -24.71, 60.43)"/><rect class="cls-8" x="209.82" y="186.74" width="45.21" height="16.41" transform="translate(-57.68 106.27) rotate(-22.99)"/><path class="cls-20" d="M220.6,204.67a5.25,5.25,0,0,1-1.77,1.13,3.69,3.69,0,0,1-5.16-2.22,3.9,3.9,0,0,1,1.77-5.25c.15-.05.29-.15.44-.2a4.06,4.06,0,0,1,1.87-.39l.1.88a4.64,4.64,0,0,0-1.62.3,3,3,0,0,0-1.63,4.22,2.86,2.86,0,0,0,4,1.77,4.07,4.07,0,0,0,1.43-.93Z"/><path class="cls-20" d="M224.24,199.41l-2.85,1.18,1.08,2.65,3.19-1.33.34.79-4.12,1.72-3-7.32,4-1.67.34.78-3,1.28,1,2.31,2.85-1.18Z"/><path class="cls-20" d="M227.23,202.16l-3-7.32,1-.45,3.88,2.76a28.25,28.25,0,0,1,2.31,1.81h0c-.49-.93-.88-1.81-1.38-2.94L228.76,193l.88-.39,3.05,7.32-1,.39-3.89-2.75a28.17,28.17,0,0,1-2.4-1.87h0c.44.89.83,1.77,1.32,3l1.33,3.15Z"/><path class="cls-20" d="M239.42,196.8a6.84,6.84,0,0,1-1.77,1.18,3.68,3.68,0,0,1-5.16-2.21,3.92,3.92,0,0,1,1.77-5.26c.15,0,.3-.14.44-.19a4.07,4.07,0,0,1,1.87-.4l.1.89a4.86,4.86,0,0,0-1.62.29,3,3,0,0,0-1.58,4.23,2.87,2.87,0,0,0,4,1.77,4,4,0,0,0,1.43-.94Z"/><path class="cls-20" d="M245.22,190.32c1,2.5.1,4.52-1.82,5.3s-3.93-.09-4.86-2.36-.15-4.47,1.81-5.25S244.29,188.1,245.22,190.32Zm-5.65,2.45c.64,1.58,2.06,2.61,3.59,2s1.76-2.36,1.08-4c-.59-1.48-2-2.66-3.59-2S238.88,191.15,239.57,192.77Z"/><path class="cls-20" d="M245,186.29a9.77,9.77,0,0,1,1.77-.89,3.27,3.27,0,0,1,2.36-.29,2.18,2.18,0,0,1,1.18,1.13,2,2,0,0,1-.59,2.45v.05a1.94,1.94,0,0,1,1.67,1,10.39,10.39,0,0,0,1.43,1.76l-1,.4a9.85,9.85,0,0,1-1.22-1.57c-.64-.94-1.18-1.14-2.07-.84l-.88.39,1.32,3.2-.93.39Zm2.31,2.94,1-.39c1-.44,1.42-1.23,1.08-2.06s-1.28-1.08-2.26-.69a7.86,7.86,0,0,0-.89.49Z"/><path class="cls-21" d="M238.93,231.5c0,.1.1.1.2.14s0,.05,0,.1a.36.36,0,0,0,0,.44c.1.15.24.15.44,0a3.37,3.37,0,0,0,.39-.14.15.15,0,0,1,.2,0s.1,0,.15.09,0,0,0,.1a.37.37,0,0,0,0,.45c.1.14.24.14.39,0s.39-.14.59-.24c-.05.2.1.2.25.2l-.05,0a.48.48,0,0,0,0,.45.33.33,0,0,0,.44.05c.2-.1.39-.15.59-.25,0,0-.1.1,0,.15s.2.15.34.1,0,0,0,.09a.41.41,0,0,0,0,.45c.1.14.25.14.45.05l.39-.15a.21.21,0,0,1,.24,0c.05,0,.1.1.15.1a0,0,0,0,1-.05.05.36.36,0,0,0,0,.44.32.32,0,0,0,.45,0,2.2,2.2,0,0,1,.54-.2c0,.15.14.15.29.15v0a.36.36,0,0,0,0,.44.31.31,0,0,0,.44.05,2.55,2.55,0,0,1,.54-.2c0,.1.1.1.2.15l2.9.88a9.43,9.43,0,0,1,1.23.45,1.33,1.33,0,0,1,.64,1.08,1.35,1.35,0,0,0,0,.44c-.1.05-.2,0-.3,0h-9.78c-.05,0-.1.05-.15-.1.45-.44.89-.88,1.38-1.33s1-1,1.52-1.52c.1-.1.1-.15-.05-.2s-.59-.24-.88-.34a.23.23,0,0,0-.25,0l-3.34,3.34s-.1.1-.14.1H237.7l0-.05a2.26,2.26,0,0,0,.39-.34l3.44-3.44c.1-.1.15-.15,0-.2s-.59-.24-.89-.34c-.1-.05-.15-.05-.24.05l-1.38,1.37c-1,1-2,2-3,2.9,0,.05-.1.15-.2.15h-1.27a.24.24,0,0,0,.09-.15l2.36-2.36c.79-.78,1.58-1.52,2.31-2.31.1-.1.1-.14-.05-.19s-.54-.25-.83-.35-.25-.05-.39,0l-5.12,5.11a.53.53,0,0,1-.39.15h-5.6c0-.39-.15-.79-.2-1.23a6.72,6.72,0,0,1,.59-3.64,3.37,3.37,0,0,0,.3-1.22c0-.25.1-.4.29-.4a.37.37,0,0,1,.44.3,2.31,2.31,0,0,0,1.28,1.42,4.7,4.7,0,0,0,4.87.1c0-.05.14-.1.1-.15s-.1,0-.15,0a.61.61,0,0,1-.49-.34,1,1,0,0,1-.1-1.13,9.75,9.75,0,0,1,.69-1.23.63.63,0,0,1,.83-.2c.69.4,1.33.74,2,1.13a.35.35,0,0,0,.24.1s0,0,0,.1-.14.3,0,.44a.38.38,0,0,0,.45.1c.14,0,.34-.15.49-.19,0,0,0,0,0,0C238.88,231.45,238.93,231.45,238.93,231.5Zm-2.85,2.65c-.05-.05-.1-.2-.2-.05a4.94,4.94,0,0,0-.44.39c.3,0,.2.15.2.25s-.25-.15-.3-.1.1.2,0,.3-.1-.05-.15-.05l-.05,0c0-.05,0-.05,0-.05a.13.13,0,0,0-.15.15c0,.1.05.14.15.19s.14,0,.19,0a2.28,2.28,0,0,1,.44-.44c.15-.1.25-.24.4-.34-.15-.05-.15.1-.25,0s.1-.1,0-.15-.1.1-.15.05.1-.1.1-.2,0,.15.15.1,0,.15.15.1.34-.35.49-.49-.05,0-.05,0l0-.05c0-.1-.1-.1-.1-.15s-.1.05-.15.1,0,.1.1.15.1.1,0,.14-.1.1-.19,0-.05-.09-.15-.09.1.09.15.19S236.23,234.2,236.08,234.15Z"/><path class="cls-22" d="M227.28,237.64h5.6a.57.57,0,0,0,.4-.15l5.11-5.11c.15-.15.24-.15.39,0a4.23,4.23,0,0,0,.84.35c.14,0,.14.09,0,.19-.79.79-1.58,1.53-2.31,2.31L235,237.54a.38.38,0,0,0-.1.15h1.28c.1,0,.14-.1.19-.15,1-1,2-2,2.95-2.9l1.38-1.37c.1-.1.15-.1.24-.05a8.1,8.1,0,0,0,.89.34c.15.05.1.1,0,.2l-3.44,3.44c-.15.14-.3.24-.4.34l.05.05h1.48c.1,0,.1-.05.15-.1l3.34-3.34c.1-.1.14-.05.24,0a5.41,5.41,0,0,0,.89.34c.15,0,.15.1.05.2-.49.49-1,1-1.53,1.52s-.93.89-1.37,1.33c0,.1.1.1.14.1h10.08a.36.36,0,0,1,.15.34,7.77,7.77,0,0,0,0,1.08.7.7,0,0,1-.5.74,5.46,5.46,0,0,1-1.52.3c-1.52.14-3.09.19-4.62.19H228.12c-.54,0-.74-.19-.74-.73v-1.48C226.94,237.79,227,237.69,227.28,237.64Z"/><path class="cls-22" d="M240.11,232c-.05,0-.1,0-.2,0l-.39.14a.49.49,0,0,1-.44,0,.37.37,0,0,1,0-.45s0-.05,0-.09c.19-.1.39-.15.59-.25a.3.3,0,0,1,.39.1c.1.15.15.24,0,.39S240,232,240.11,232Z"/><path class="cls-22" d="M246.2,234.59c-.19,0-.39.15-.54.2s-.34.1-.44,0-.1-.29,0-.44v-.05c.2-.05.39-.15.54-.2s.29-.1.44,0a.27.27,0,0,1,0,.44Z"/><path class="cls-22" d="M243.84,233.66a.21.21,0,0,0-.24,0l-.4.15a.47.47,0,0,1-.44-.05.36.36,0,0,1,0-.44.15.15,0,0,1,.05-.1c.2-.05.39-.15.54-.2a.46.46,0,0,1,.44,0,.36.36,0,0,1,0,.44C243.75,233.61,243.7,233.66,243.84,233.66Z"/><path class="cls-22" d="M238.83,231.45c-.15.05-.34.15-.49.19s-.34.1-.44-.09a.37.37,0,0,1,0-.45s0,0,0-.09a1.24,1.24,0,0,0,.54-.2.39.39,0,0,1,.44.1.36.36,0,0,1,0,.44.09.09,0,0,0,0,.15c0-.05-.05-.05-.1-.05Z"/><path class="cls-22" d="M244.92,234.1c-.19.05-.34.15-.54.2s-.34.1-.44-.05a.36.36,0,0,1,0-.44,0,0,0,0,1,.05-.05c.2,0,.34-.15.54-.2s.3-.1.44.05.1.29,0,.44A0,0,0,0,1,244.92,234.1Z"/><path class="cls-22" d="M242.47,233c-.2.1-.4.15-.59.25s-.3.1-.44-.05a.3.3,0,0,1,0-.44s0,0,0,0a1.59,1.59,0,0,0,.45-.15c.19-.05.34-.15.54,0S242.52,232.82,242.47,233Z"/><path class="cls-22" d="M241.24,232.43c-.2.1-.39.15-.59.25a.36.36,0,0,1-.39-.05.37.37,0,0,1,0-.45.14.14,0,0,0,.05-.09c.14-.05.34-.15.49-.2s.34-.1.44.05A.37.37,0,0,1,241.24,232.43Z"/><path class="cls-21" d="M235.24,234.94c0,.05-.05.05-.05.1s.15,0,.05.09a.08.08,0,0,1-.14,0s-.1-.09,0-.14a.16.16,0,0,1,.14-.05Z"/><path class="cls-21" d="M235.78,234.4a.11.11,0,0,1,.1.09.17.17,0,0,1-.1,0c-.09,0,0,0-.09-.09S235.69,234.4,235.78,234.4Z"/><path class="cls-21" d="M236.67,233.71s0,.1-.1,0,0,0,.1,0S236.62,233.71,236.67,233.71Z"/><path class="cls-22" d="M235.83,234.2l0,.05c.05.05.15.1,0,.2s0,.09-.1.14-.24,0-.34-.05-.05-.24.05-.34.1-.1,0-.15-.05-.05,0-.1,0,0,.1,0a.79.79,0,0,0,.19.15c.05,0,0,0,0,0,0-.15,0-.24.1-.29h0c.05,0,.05-.1.1-.1s.1.1.15.1l.15.14s0,0,0,.1l-.15.15c0,.1-.15.1-.25,0Zm-.09.1c-.05-.05-.1-.05-.2,0a.14.14,0,0,0,0,.19.15.15,0,0,0,.2,0A.17.17,0,0,0,235.74,234.3Zm.19-.4a.14.14,0,1,0,.2,0A.18.18,0,0,0,235.93,233.9Z"/><path class="cls-22" d="M235.29,234.64l.15.15c.05.05.05.1,0,.1s-.05.05-.1.1a.28.28,0,0,1-.24.14.18.18,0,0,1-.2-.19c0-.1,0-.2.1-.25s.1-.1,0-.15-.05,0,0-.09.05,0,.1,0Zm-.19.15a.15.15,0,0,0,0,.2.14.14,0,0,0,.19,0,.15.15,0,0,0,0-.2C235.19,234.74,235.15,234.74,235.1,234.79Z"/><path class="cls-22" d="M235,235.08c.19.15.19.25,0,.4a.25.25,0,0,1-.35,0,.23.23,0,0,1,0-.35c.05,0,.1,0,.1-.09s0-.05.1,0Zm-.1.1a.14.14,0,1,0,0,.2A.15.15,0,0,0,234.9,235.18Z"/><path class="cls-22" d="M236.18,233.46a.17.17,0,0,1,.14-.05c.05,0,.05,0,.05.05a0,0,0,0,1-.05,0s-.09,0-.09.05v.05h.05s0-.05.09-.05a.15.15,0,0,1,.2,0c.05.05.05.1,0,.2s-.1.14-.25.14,0,0,0,0,0-.05,0-.05h.05a.17.17,0,0,0,.1-.05v0c-.05,0-.05,0-.1,0s-.19.1-.24,0A.33.33,0,0,1,236.18,233.46Z"/><path class="cls-22" d="M235.49,234.59l.15.15c.05,0,.05,0,0,.1s0,0-.1,0-.2-.15-.25-.25,0-.05,0-.1.05,0,.1,0l.1.1Z"/><path class="cls-22" d="M235.24,234.35c0,.05,0,.05,0,.1s-.05,0-.09,0,0,0,0-.1S235.19,234.35,235.24,234.35Z"/><path class="cls-21" d="M263.25,221.82c.05.09.15,0,.25,0v.1a.34.34,0,0,0,.15.4.38.38,0,0,0,.44-.05c.1-.1.25-.2.34-.3s.1-.1.2,0a.18.18,0,0,0,.15,0v.1a.32.32,0,0,0,.15.39.29.29,0,0,0,.39-.05c.15-.14.34-.29.49-.44,0,.25.15.15.29.1v.1a.49.49,0,0,0,.15.44c.15.1.3,0,.44-.1a4.25,4.25,0,0,1,.5-.39c-.05.05-.05.15.05.15s.24.05.34,0v.1a.33.33,0,0,0,.15.39.37.37,0,0,0,.44-.05c.1-.1.24-.2.34-.3a.24.24,0,0,1,.25,0,.21.21,0,0,0,.15,0v.05a.39.39,0,0,0,.14.45.4.4,0,0,0,.45,0c.14-.15.29-.25.44-.4a.22.22,0,0,0,.29.05v0a.36.36,0,0,0,.15.44c.15.1.3.05.44-.09s.3-.25.44-.4c.05.1.15,0,.2,0,1,0,2,0,3.05,0a5.84,5.84,0,0,1,1.32,0,1.18,1.18,0,0,1,.94.84,1,1,0,0,0,.2.39.38.38,0,0,1-.25.1c-3.1,1-6.19,2-9.29,3-.05,0-.1,0-.15,0,.3-.54.59-1.13.89-1.67s.64-1.28,1-1.92c.05-.1.05-.15-.1-.2a5.88,5.88,0,0,1-.93-.1c-.1,0-.15,0-.2.1-.68,1.38-1.42,2.8-2.16,4.18-.05.05-.05.15-.15.15-.49.14-.93.29-1.42.44l-.05,0a3.17,3.17,0,0,0,.29-.49c.74-1.48,1.48-2.9,2.22-4.37,0-.1.09-.15-.1-.2a6,6,0,0,1-.94-.1c-.09,0-.14,0-.19.1-.3.59-.59,1.13-.89,1.72-.64,1.23-1.23,2.46-1.87,3.68,0,.05,0,.15-.14.2-.4.15-.79.25-1.23.39a.33.33,0,0,0,0-.19c.49-1,1-2,1.52-2.95s1-2,1.48-2.9c0-.1,0-.15-.1-.15a5.39,5.39,0,0,1-.89-.1c-.19,0-.24.05-.34.2-1.08,2.16-2.16,4.28-3.29,6.44a.43.43,0,0,1-.35.29c-1.62.54-3.24,1-4.86,1.58l-.44.14c-.15-.39-.4-.73-.55-1.08a7.2,7.2,0,0,1-.59-3.63,2.7,2.7,0,0,0-.09-1.23.38.38,0,0,1,.14-.49.36.36,0,0,1,.5.14,2.39,2.39,0,0,0,1.67,1,4.69,4.69,0,0,0,3.44-.5,5.63,5.63,0,0,0,1.18-.93.16.16,0,0,0,0-.2c0-.09-.09,0-.14.05a.64.64,0,0,1-.59-.19,1.15,1.15,0,0,1-.44-1.08,9.34,9.34,0,0,1,.29-1.38.62.62,0,0,1,.74-.44l2.26.44c.1,0,.15,0,.24,0v.1c-.05.19-.05.34.1.44a.36.36,0,0,0,.44,0c.15-.1.3-.25.45-.34s0,0,.09,0Zm-1.86,3.44c-.05,0-.15-.2-.2,0a1.56,1.56,0,0,0-.29.54c.24-.15.19,0,.24.14s-.24-.09-.34.05.14.15.14.25h-.19c0-.05-.05-.05-.1-.05a.26.26,0,0,0-.1.2c0,.09.1.14.2.14s.15-.05.15-.09a2.19,2.19,0,0,1,.24-.55c.1-.14.15-.29.3-.49-.15,0-.1.15-.2.1s.05-.1,0-.15-.05.1-.15.1.05-.15.05-.19c.15,0,.2,0,.25,0s.1.14.14,0l.35-.63c.05-.1-.05,0-.05,0a0,0,0,0,1-.05,0c0-.1-.1-.05-.15-.15-.05.05-.05.1-.1.15s.1.1.15.14.15.05.05.15-.1.1-.15.05-.09-.1-.14-.05.14.1.19.15S261.53,225.21,261.39,225.26Z"/><path class="cls-22" d="M254.11,231.25l.45-.15c1.62-.54,3.24-1.08,4.86-1.57a.7.7,0,0,0,.35-.29c1.08-2.17,2.21-4.28,3.29-6.44.1-.15.15-.2.34-.2s.59.05.89.1c.14,0,.14.05.09.15-.49,1-1,2-1.47,2.9s-1,2-1.52,2.95c0,0-.05.09-.05.19.44-.15.83-.29,1.23-.39.09-.05.09-.1.14-.2.64-1.23,1.28-2.45,1.87-3.68.3-.59.59-1.13.89-1.72,0-.1.09-.15.19-.1.3,0,.64,0,.94.1.14,0,.14,0,.09.19-.73,1.48-1.47,2.9-2.21,4.38a3.53,3.53,0,0,0-.29.49l.05,0c.49-.15.93-.3,1.42-.44.1,0,.1-.1.15-.15.74-1.38,1.43-2.8,2.16-4.18,0-.1.1-.1.2-.1.29.05.64.05.93.1s.15,0,.1.2c-.34.64-.64,1.28-1,1.91s-.59,1.13-.89,1.67c.05.1.1,0,.15,0,3.1-1,6.19-2,9.29-3,.1-.05.2-.05.24-.1s.2.2.25.29a5.79,5.79,0,0,0,.34,1.08.69.69,0,0,1-.24.84,6.62,6.62,0,0,1-1.38.79c-1.42.64-2.9,1.13-4.32,1.62-5.41,1.77-10.76,3.49-16.12,5.26-.49.14-.79.05-.93-.45s-.3-.83-.45-1.27c0-.05,0-.1,0-.15C253.82,231.5,253.87,231.4,254.11,231.25Z"/><path class="cls-22" d="M264.58,222c-.1-.05-.15,0-.2,0s-.24.2-.34.3a.38.38,0,0,1-.44.05.34.34,0,0,1-.15-.4v-.1c.15-.14.3-.24.49-.39s.3-.15.4-.05a.32.32,0,0,1,.14.4C264.48,221.87,264.48,222,264.58,222Z"/><path class="cls-22" d="M271.17,222.5c-.15.15-.3.25-.45.4s-.29.19-.44.1a.39.39,0,0,1-.15-.45v-.05c.15-.09.3-.24.45-.34s.24-.2.44-.1a.33.33,0,0,1,.15.39Z"/><path class="cls-22" d="M268.61,222.36c-.1-.05-.15,0-.24,0s-.25.19-.35.29a.37.37,0,0,1-.44.05.33.33,0,0,1-.15-.39v-.1c.15-.1.3-.25.44-.35a.39.39,0,0,1,.45,0,.32.32,0,0,1,.14.39C268.51,222.31,268.46,222.41,268.61,222.36Z"/><path class="cls-22" d="M263.21,221.77c-.15.09-.3.24-.45.34s-.29.2-.44,0a.31.31,0,0,1-.1-.44v-.1a3.57,3.57,0,0,0,.44-.34.37.37,0,0,1,.45-.05.32.32,0,0,1,.14.39s0,.1.05.1-.05.05-.09.05Z"/><path class="cls-22" d="M269.79,222.45c-.15.15-.29.25-.44.4a.37.37,0,0,1-.44.05.38.38,0,0,1-.15-.45v0c.15-.1.29-.25.44-.35s.3-.19.44-.1a.38.38,0,0,1,.15.45Z"/><path class="cls-22" d="M267.09,222.16a4,4,0,0,1-.49.39c-.15.1-.3.2-.45.1a.37.37,0,0,1-.14-.44v-.1c.14-.05.24-.2.34-.24s.3-.25.49-.2S267.09,222,267.09,222.16Z"/><path class="cls-22" d="M265.76,222c-.15.15-.34.3-.49.44s-.25.15-.39.05a.32.32,0,0,1-.15-.39V222c.15-.1.29-.24.44-.34s.3-.2.44-.1A.37.37,0,0,1,265.76,222Z"/><path class="cls-21" d="M260.85,226.24v.1s.14-.05.09.1a.18.18,0,0,1-.14,0c-.05,0-.1-.09-.05-.14s0-.1.1-.1Z"/><path class="cls-21" d="M261.14,225.55c.05,0,.1,0,.15.1l-.05.1c-.05.05-.1-.05-.1-.05S261.09,225.6,261.14,225.55Z"/><path class="cls-21" d="M261.78,224.62s0,.1,0,.1,0-.05,0-.1Z"/><path class="cls-22" d="M261.19,225.35c.05,0,.05.05.1.05s.15,0,0,.15,0,.1,0,.15a.25.25,0,0,1-.35.05.25.25,0,0,1,0-.35c0-.09,0-.09,0-.14s-.05,0-.05-.1.05,0,.1,0,.14.05.19.1,0,0,0,0,0-.25,0-.35h0c.05-.05,0-.1.05-.1s.1.05.2.05.15.05.19.1a0,0,0,0,1,.05.05c-.05,0-.05.1-.09.2s-.1.15-.2.15S261.24,225.35,261.19,225.35Zm-.05.1a.1.1,0,0,0-.15.05c-.05.05,0,.15.05.2s.15,0,.2,0A.38.38,0,0,0,261.14,225.45Zm.05-.44c-.05.1,0,.15.05.2s.15,0,.2-.05,0-.15-.05-.2S261.19,225,261.19,225Z"/><path class="cls-22" d="M260.8,225.94c.05.05.14.05.19.1s.05.05,0,.1-.05.05-.05.1-.09.15-.19.2-.2,0-.25-.1a.24.24,0,0,1,.05-.3c.1,0,.05-.1-.05-.15s-.1,0-.05-.09.05-.05.1,0S260.75,225.89,260.8,225.94Zm-.15.2c0,.1,0,.15.05.2s.15,0,.2-.05,0-.15,0-.2S260.7,226.09,260.65,226.14Z"/><path class="cls-22" d="M260.65,226.48c.2.1.25.15.1.35a.24.24,0,0,1-.35,0,.25.25,0,0,1,0-.35c0-.05.09-.09.09-.14a0,0,0,0,1,.05,0S260.6,226.44,260.65,226.48Zm0,.1c-.05-.05-.15,0-.2,0s0,.15.05.2.15,0,.2-.05S260.65,226.58,260.6,226.58Z"/><path class="cls-22" d="M261.29,224.57a.11.11,0,0,1,.1-.1h.1c0,.05,0,.05-.05.1a.11.11,0,0,0-.1.1v.05h.05l.1-.1a.16.16,0,0,1,.14-.05c.05.05.1.1.1.15s-.05.19-.2.19h-.09s0,0,.05-.1h0c.05,0,.05-.05.05-.09a0,0,0,0,0-.05-.05s0,.05-.09.05-.15.14-.2.09A.51.51,0,0,1,261.29,224.57Z"/><path class="cls-22" d="M260.94,225.85c.05,0,.1,0,.15.09s.05.05.05.1-.05.05-.1,0a2.27,2.27,0,0,0-.34-.15c-.05,0-.05,0-.05-.09s.05-.05.1,0,.15,0,.19,0Z"/><path class="cls-22" d="M260.65,225.7c.05,0,.05.05,0,.1s0,0-.1,0-.05,0-.05-.1S260.65,225.65,260.65,225.7Z"/><polygon class="cls-10" points="228.85 228.4 235.34 227.96 235.19 225.75 228.85 228.3 228.85 228.4"/><polygon class="cls-10" points="258.68 216.41 253.08 218.67 253.62 221.67 258.93 219.36 258.68 216.41"/><path class="cls-9" d="M228.86,228.3l8.15-2.16s-1,3.49-3.19,3.44a24,24,0,0,1-5-.88Z"/><path class="cls-22" d="M215.34,159.21c-.54.24-1,.49-1.57.74-.3.14-.49.14-.64-.2A12.82,12.82,0,0,1,212,153c.1-.69.34-.69.88-.4a11.17,11.17,0,0,1,4.38,5.16c.15.35.1.54-.25.69C216.42,158.67,215.88,159,215.34,159.21Z"/><path class="cls-22" d="M222.32,167.42a3.92,3.92,0,0,1,.25.63c.29.59.58,1.09-.5,1.18-.34,0-.59.54-1,.69a1.63,1.63,0,0,1-2.06-1.13,1.59,1.59,0,0,1,1.18-2c.73-.1.88-.35.49-.94-.15-.24-.15-.44.2-.59s.44.05.58.3c.25.49.5,1,.74,1.52.3,0,.25-.24.25-.39a1.77,1.77,0,0,1,1.57-1.77h0c.34,0,.54-.54.93-.34s.45.73.69,1.13.44.88.64,1.32c.1.25.15.49-.15.54a5.3,5.3,0,0,0-1.23.64,1.52,1.52,0,0,1-1.81-.15Zm-.84.34a1,1,0,1,0-.54,1.33A.93.93,0,0,0,221.48,167.76Zm2.17-2.06a.93.93,0,0,0-.5,1.22,1,1,0,0,0,1.33.5.93.93,0,0,0,.44-1.28A.94.94,0,0,0,223.65,165.7Z"/><path class="cls-22" d="M216,160.09c2.26-1.08,4.57-2.16,6.83-3.19.2-.1.49-.39.64-.1a.83.83,0,0,1-.2,1c-.14.1-.29.15-.44.25-4.32,2.06-8.65,4.08-13,6.14-.15.05-.25.15-.4.2a.86.86,0,0,1-.93-.49c-.15-.35.3-.35.54-.45,2.26-1.22,4.62-2.31,6.93-3.39Z"/><path class="cls-22" d="M218.39,157.78a8.81,8.81,0,0,1,3.19-5.4c1.23-1,1.18-1.23,1.57.54.55,2.41.55,2.41-1.67,3.44C220.5,156.75,219.52,157.24,218.39,157.78Z"/><path class="cls-22" d="M212.34,160.63c-1.57.74-3.09,1.48-4.57,2.17-.29.14-.44,0-.64-.15a11.55,11.55,0,0,1-1.91-2.36c-.15-.2-.3-.39.1-.54A8.94,8.94,0,0,1,212.34,160.63Z"/><path class="cls-22" d="M210.48,165.06c4.22-2,8.35-3.93,12.53-5.9a1.48,1.48,0,0,1-.84,1.38c-3.34,1.57-6.68,3.14-10,4.71A2,2,0,0,1,210.48,165.06Z"/><path class="cls-22" d="M217.6,169.09c.25.49.44,1,.69,1.47s0,.69-.34.64a.94.94,0,0,0-.74.39,1.57,1.57,0,0,1-1.87.2,1.48,1.48,0,0,1-.88-1.67,1.52,1.52,0,0,1,1.37-1.38c.74-.05.69-.29.4-.78-.15-.25-.3-.49.09-.69s.5.1.59.34C217.16,168.1,217.41,168.6,217.6,169.09Zm-1.82.34a1,1,0,1,0,.79,1.77,1,1,0,0,0,.49-1.33A1.07,1.07,0,0,0,215.78,169.43Z"/><path class="cls-22" d="M214.31,171.15c.74,1.52.59,1.92-1.08,2.41a1.72,1.72,0,0,1-1-3.29c.34-.15.78-.1,1.08-.45.19-.19.39-.09.54.15C214,170.36,214.16,170.76,214.31,171.15Zm-.69.34a.92.92,0,0,0-1.23-.44.89.89,0,0,0-.49,1.28.93.93,0,0,0,1.28.44A1,1,0,0,0,213.62,171.49Z"/><path class="cls-22" d="M226.4,163.58a1.35,1.35,0,0,1,1.13-.05c.19.1.49.2.39.45a.54.54,0,0,1-.59.24c-.29-.1-.59-.19-.83,0a.31.31,0,0,0-.15.39c.05.2.2.2.34.15.3,0,.59-.15.89-.19a.93.93,0,0,1,1.13.54,1,1,0,0,1-.3,1.27,1.73,1.73,0,0,1-1.86.35c-.2-.1-.4-.25-.35-.44a.54.54,0,0,1,.64-.3c.1,0,.15.1.25.15a.74.74,0,0,0,.83-.2.29.29,0,0,0,.05-.39c-.24-.25-.49-.05-.79,0-.73.24-1.32.05-1.52-.44S225.61,163.93,226.4,163.58Z"/><path class="cls-22" d="M218.93,169c.2.39.34.73.54,1.13a.41.41,0,0,1-.2.59c-.29.14-.39-.1-.49-.3-.39-.73-.74-1.52-1.08-2.26-.15-.29,0-.44.25-.59s.39,0,.49.25a5.07,5.07,0,0,0,.49,1.18Z"/><path class="cls-22" d="M228.27,162.85a.84.84,0,0,1-1.18-.54.86.86,0,0,1,.49-1.18.9.9,0,0,1,1.18.44A.94.94,0,0,1,228.27,162.85Zm-.15-1.38c-.3-.44-.49-.1-.69.05a1.09,1.09,0,0,0,.69-.05,2,2,0,0,0,.19.54.38.38,0,0,0,.25.1c.05,0,.1-.1.1-.15C228.61,161.67,228.56,161.27,228.12,161.47Z"/><path class="cls-22" d="M213.38,165.55c.93-.44,1.72-.84,2.55-1.18s.79.39.93.74-.29.34-.54.34C215.44,165.55,214.51,166,213.38,165.55Z"/><path class="cls-22" d="M221.48,161.76a6.16,6.16,0,0,1-1.86,2.17c-.15.14-.45.49-.59.14s-.59-.78,0-1.08A24.37,24.37,0,0,1,221.48,161.76Z"/><path class="cls-22" d="M217.5,163.58c.3,0,.59-.54.79,0s.2,1.08-.2,1.23-1-.24-1.18-.64S217.31,163.88,217.5,163.58Z"/><path class="cls-22" d="M218,167c.14.25,0,.4-.3.54a.38.38,0,0,1-.54-.19c-.2-.35,0-.49.3-.64S217.85,166.73,218,167Z"/></svg>
