<svg xmlns="http://www.w3.org/2000/svg" xmlns:xlink="http://www.w3.org/1999/xlink" viewBox="0 0 350 500"><defs><style>.cls-1,.cls-3{fill:none;}.cls-2{fill:#d08b59;}.cls-3{stroke:#bd8054;stroke-miterlimit:10;stroke-width:2px;}.cls-4{clip-path:url(#clip-path);}.cls-5{fill:url(#linear-gradient);}.cls-6{fill:#e89774;}.cls-7{fill:#514742;}.cls-8{fill:#3e2310;}.cls-9{fill:#f0bc55;}.cls-10{fill:#fff;}.cls-11{fill:#ce4621;}.cls-12{fill:#e5e5e5;}.cls-13{fill:#f5d950;}.cls-14{fill:#f0b547;}.cls-15{fill:#f1f1f1;}.cls-16{fill:#ffe;}.cls-17{fill:#f9f7da;}.cls-18{fill:#231f20;}.cls-19{fill:#ccc;}</style><clipPath id="clip-path"><rect class="cls-1" x="144.15" y="39.89" width="139.49" height="229.97"/></clipPath><linearGradient id="linear-gradient" x1="593.46" y1="-147.37" x2="320.12" y2="660.68" gradientTransform="matrix(1, 0, 0, -1, 0, 502)" gradientUnits="userSpaceOnUse"><stop offset="0" stop-color="#595233"/><stop offset="1" stop-color="#a08558"/></linearGradient></defs><title>Artboard 1</title><g id="Layer_4" data-name="Layer 4"><path class="cls-2" d="M244,104.4l10.9,32.1,20.54-11.62s21.07-36.32-10.57-30.38Z"/><path class="cls-2" d="M260.33,152.37l10.25,30.17c17.26-6,26.52-17.95,24.62-24.19S278.55,147.1,260.33,152.37Z"/><path class="cls-2" d="M272.42,188l10.25,30.16,14.79-4.93c8.53-7.12,9.36-19.34,3.47-26.31C294.46,179.2,280.52,178.64,272.42,188Z"/><path class="cls-2" d="M284.51,223.53l-18.39,54.86L308.69,249s26.93-25-10.25-30.17Z"/><path class="cls-2" d="M65.88,353.47,99,208.4s7.46-27.41,12-23.93l52.5-36.34,7.31,56.25c41.87-12.37,76.81-12.28,86.46,3.41.6,1,3.77,6.12,2.36,11.9-3.34,13.65-30,21.39-68.36,20.72l4.15,32L205.2,282l60.92-3.57s-25.63,56.92-76.23,68.37-115,16.59-115,16.59Z"/><line class="cls-3" x1="199.69" y1="207.22" x2="203.58" y2="232.93"/><g class="cls-4"><polygon class="cls-5" points="1271.17 376.54 -508.18 376.54 -508.18 -77.04 1271.17 -331.04 1271.17 376.54"/></g><g id="Layer_28" data-name="Layer 28"><polygon class="cls-6" points="167.09 209.7 174.24 215.55 176.63 208.87 169.63 202.65 167.09 209.7"/><circle class="cls-6" cx="207.87" cy="99.42" r="35.55" transform="translate(101.59 303.87) rotate(-88.09)"/><path class="cls-7" d="M216.53,91.08s7.41-4.92,13.21,1.5c0,0,.94,3.42-2.33,2.23a15.37,15.37,0,0,0-9.64-.52S215,94.09,216.53,91.08Z"/><path class="cls-7" d="M187.66,94.19s5.19-6.63,13-2.8c0,0,1.92,3.16-1.5,3.32,0,0-7-.68-9.28,1.71C189.89,96.37,187.2,97.77,187.66,94.19Z"/><path class="cls-8" d="M213.94,86s2.95-3.58,9.27-3.37c0,0,7.41.83,10.11,4.92,0,0,2,2.08-.83,1.35,0,0-5.49-3.73-18.09-2.12C214.35,86.78,213.57,86.47,213.94,86Z"/><path class="cls-8" d="M182.17,91.49s1-6,10.31-7.72c0,0,7.78-1.71,11.3,2.7,0,0,.16,1.19-2.07.93,0,0-11.87.57-13.16,1.61,0,0-4,1.14-5.19,2.59A1,1,0,0,1,182.17,91.49Z"/><path class="cls-9" d="M215.6,69.11s-15.71,24.77-23.22,20.36c0,0,8.55-6.89,6.48-9.84,0,0-17.78,21.09-26.64,21.81,0,0-21-39.38,34.83-42.9,0,0,27.87-2.9,37.41,19.74,0,0-12.9-5.13-14.25-8,0,0,5.44,4.4,6.79,8,0,0-11.56-5.13-15-9.48,0,0,4.1,4.4,3.42,5.13C225.44,73.88,216.63,70.92,215.6,69.11Z"/><path class="cls-10" d="M253.42,200s.26-4,2.08-3.73c0,0,1.91-.16,1,4.14,0,0-.36,3.89-2.07,3.53C254.46,204,252.7,204.57,253.42,200Z"/><rect class="cls-6" x="189.31" y="215.46" width="32.13" height="6.84" transform="translate(-13.75 423.99) rotate(-89.93)"/><rect class="cls-6" x="201.82" y="233.71" width="6.84" height="6.06"/><rect class="cls-6" x="206.15" y="216.27" width="32.13" height="6.84" transform="translate(2.25 441.63) rotate(-89.93)"/><path d="M218.5,132.8s-.21,2.17-18.86,1.86l-.78,10.21L189.22,148l-19.8,54.62,7,6.22,17.46-49.08,1.45,45.55,37.06-2.12-2.6-52.08-10.77-10Z"/><rect class="cls-10" x="190.51" y="193.02" width="47.67" height="17.31" transform="translate(-7.48 8.26) rotate(-2.17)"/><path class="cls-11" d="M199.06,206.85a5.22,5.22,0,0,1-2.17.46,3.86,3.86,0,0,1-4.25-4.09,4.19,4.19,0,0,1,4.25-4.56,4.63,4.63,0,0,1,2,.31l-.21.88a4.71,4.71,0,0,0-1.71-.31c-2,.05-3.21,1.35-3.16,3.58a3,3,0,0,0,3.32,3.26,4.28,4.28,0,0,0,1.76-.41Z"/><path class="cls-11" d="M204.66,203l-3.26.11.1,3,3.63-.1.05.93-4.72.16-.25-8.4,4.5-.15v.93l-3.42.1.11,2.65,3.26-.11Z"/><path class="cls-11" d="M206.53,206.9l-.26-8.4,1.19-.05,2.8,4.15a29.3,29.3,0,0,1,1.6,2.69h.06a32.38,32.38,0,0,1-.26-3.42l-.11-3.52,1,0,.26,8.39-1.09.05L209,202.6a31.85,31.85,0,0,1-1.66-2.75h-.05c.11,1,.16,2.07.21,3.47l.1,3.58Z"/><path class="cls-11" d="M220.57,206.17a5.28,5.28,0,0,1-2.18.47,3.88,3.88,0,0,1-4.25-4.09,4.19,4.19,0,0,1,4.25-4.56,4.56,4.56,0,0,1,2,.31l-.21.88a4.58,4.58,0,0,0-1.71-.31c-2,0-3.22,1.34-3.16,3.57a3,3,0,0,0,3.31,3.27,4.22,4.22,0,0,0,1.77-.42Z"/><path class="cls-11" d="M228.71,201.87c.1,2.9-1.61,4.46-3.73,4.56s-3.84-1.6-3.89-4.14,1.5-4.46,3.73-4.51S228.65,199.44,228.71,201.87Zm-6.48.37c.05,1.76,1.09,3.36,2.8,3.31s2.64-1.66,2.59-3.57c-.05-1.66-1-3.37-2.8-3.32S222.18,200.42,222.23,202.24Z"/><path class="cls-11" d="M230,197.88a16.26,16.26,0,0,1,2.07-.26,3.28,3.28,0,0,1,2.44.63,2,2,0,0,1,.73,1.55,2.2,2.2,0,0,1-1.51,2.18V202c.68.21,1,.78,1.3,1.66a11.61,11.61,0,0,0,.72,2.28l-1.08.05a12.54,12.54,0,0,1-.63-2c-.31-1.14-.72-1.56-1.71-1.56l-1,.06.1,3.62-1.09.06Zm1.19,3.79,1.09-.06c1.14-.05,1.87-.67,1.87-1.65s-.83-1.51-2-1.51a4,4,0,0,0-1.09.16Z"/><rect class="cls-6" x="218.68" y="234.54" width="6.84" height="6.06"/><g id="Layer_32" data-name="Layer 32"><polygon class="cls-6" points="251.97 200.73 260.99 198.61 257.16 192.7 247.93 194.41 251.97 200.73"/><polygon points="216.63 145.6 247.88 194.62 257.1 192.86 229.85 150.78 216.84 145.08 216.63 145.6"/></g><path class="cls-12" d="M273.22,193.43l-1.09,16s-.05,3.31-8.19,3.06c0,0-7.1-.11-7.67-4.05l.06-.88s-.42-1-2.28-1.29c0,0-2.91-.57-3.06-3.37,0,0-.67-6.53,1.24-8.65a3.67,3.67,0,0,1,3.06-1.2,4.19,4.19,0,0,0,1.19-.36Z"/><path class="cls-13" d="M258.45,197.83l-.52,9.33s6.48,5,12.7.88l.78-9.28s-1.77,1.61-7,.94C264.46,199.7,259.07,199.44,258.45,197.83Z"/><ellipse class="cls-14" cx="264.98" cy="198.22" rx="1.66" ry="6.53" transform="translate(48.8 448.77) rotate(-86.01)"/><path class="cls-15" d="M259.64,194.62l-.31,6.06a.41.41,0,0,0,.31.42l2,.57s.26,0,.26-.16l.42-5.44a1.57,1.57,0,0,0-.83-.42s-.57-.88-1.19-.93Z"/><path class="cls-15" d="M265.55,211.2a11.24,11.24,0,0,0,2.75-.62,7,7,0,0,0,2.17-1s.21,0,0,.36a3.18,3.18,0,0,1-2,1.35,6.87,6.87,0,0,1-2.22.31,2.13,2.13,0,0,1-.57-.05S265.19,211.41,265.55,211.2Z"/><path class="cls-15" d="M252.39,196.85s-.47-.52.52-2a2.24,2.24,0,0,1,2.48-.88s.06.31-.88.46c0,0-1.09.37-1.24.94a7.36,7.36,0,0,0-.52,1.14C252.7,196.54,252.54,196.9,252.39,196.85Z"/><path class="cls-16" d="M268.87,199.07a1.65,1.65,0,0,1-1.56-1.29l-.31-2a1.55,1.55,0,0,0-1.91-1.09H265a4.55,4.55,0,0,1-3.73-.57,2.24,2.24,0,0,0-2.54-.62,2.42,2.42,0,0,1-2.28-.62,2.71,2.71,0,0,1-.62-1.2l7.26-1.91,5.9.26,5.86.25s0,.32.05.32c.16.2.26.41.41.62a1.77,1.77,0,0,1-.1,1.45s-.36.62-.72.67c0,0-.52.11-.57.21a1.31,1.31,0,0,0-.26.62s-.21.42-.47.47a6.12,6.12,0,0,1-.83.36,1.08,1.08,0,0,0-1.14.83,14.3,14.3,0,0,1-.57,2.23s-.31.67-.78.83A1.43,1.43,0,0,1,268.87,199.07Z"/><path class="cls-17" d="M262.75,185.34a3.91,3.91,0,0,1,4.56.52s3.58-1.24,5,1.81c0,0,3.32.63,2.59,2.7a1.94,1.94,0,0,1-2.64.15,1.26,1.26,0,0,1-1-.05s-.77,1.45-1.19,1.19c0,0-.93.83-1.55.52a1.17,1.17,0,0,1-.78-.62l-.36-.47s-.11-.2-.37.06c0,0-.31.41-.67.31,0,0-.41-.21-.93.62a2.07,2.07,0,0,1-.78.1,2.92,2.92,0,0,1-1.87.52,2.35,2.35,0,0,1-2-1.71,2.57,2.57,0,0,1-1.45.62s-.26,0-.26,0-.2-.1-.41.16c0,0-.31.57-1.66.46,0,0-.78,0-1-.46a2.42,2.42,0,0,1,.21-1.82,1.24,1.24,0,0,0,.05-.83,2.18,2.18,0,0,1,.94-2.64s.31-.67,2.33-.41a3.43,3.43,0,0,1,1.81-.83A2.4,2.4,0,0,1,262.75,185.34Z"/><circle class="cls-14" cx="266.48" cy="201.61" r="0.36"/><circle class="cls-14" cx="266.95" cy="202.96" r="0.41"/><circle class="cls-14" cx="268.45" cy="202.39" r="0.26"/><circle class="cls-14" cx="268.14" cy="204.15" r="0.47"/><circle class="cls-14" cx="268.97" cy="203.48" r="0.31"/><circle class="cls-14" cx="266.85" cy="204.88" r="0.21"/><circle class="cls-14" cx="267.68" cy="205.24" r="0.31"/><circle class="cls-14" cx="267.99" cy="206.69" r="0.36"/><circle class="cls-14" cx="266.74" cy="206.95" r="0.36"/><circle class="cls-14" cx="267.99" cy="207.42" r="0.1"/><circle class="cls-14" cx="267.31" cy="208.3" r="0.31"/><path class="cls-15" d="M267.78,194.46s1.19-.52,1.4,1.4a5,5,0,0,1-.05,1.92s0,.41-.52.31c0,0-.52-.47-.36-1.87,0,0,.05-.82-.11-1C268.19,195.24,267.47,194.51,267.78,194.46Z"/><g id="Layer_33" data-name="Layer 33"><path d="M199,114.14s6.53-5.44,11.66-5.18c0,0,6.43-.26,10.57,3.94a53.4,53.4,0,0,0-11.09-1.35S208.13,111.13,199,114.14Z"/></g></g><path class="cls-2" d="M71,334.33S64.14,324.64,46.65,536l127.29,6.09s-3.51-165.35,9.32-195"/></g><g id="mobil"><path class="cls-18" d="M268.73,11H160.57a19.23,19.23,0,0,0-19.23,19.23v249.3a19.23,19.23,0,0,0,19.23,19.23H268.73A19.22,19.22,0,0,0,288,279.53V30.23A19.22,19.22,0,0,0,268.73,11Zm11.92,252.41h-132V43.56h132Z"/><circle class="cls-19" cx="214.65" cy="281.32" r="11.46"/><circle class="cls-19" cx="221.58" cy="20.05" r="1.8"/><circle class="cls-19" cx="197.67" cy="29.76" r="2.47"/><rect class="cls-19" x="209.06" y="28.85" width="25.04" height="1.82" rx="0.51" ry="0.51"/><path class="cls-2" d="M111.63,277.23c-3.44-1.76,26-57.54,30.14-70.35,23.86-34.4,33.75-63.06,24.61-74-3.88-4.62-10-4.71-11.18-4.73-18.48-.29-39.5,30.57-54.79,74.77C109.32,211,88.07,288.74,111.63,277.23Z"/></g><g id="Layer_3" data-name="Layer 3"><path class="cls-10" d="M268.84,129.34c1.2-1.18,2.43-2.35,3.59-3.57a.81.81,0,0,0-.07-1.18.89.89,0,0,0-1.26-.1,34.7,34.7,0,0,0-4,4,1.55,1.55,0,0,0,.26,2.19,1.71,1.71,0,0,0,2.36,0c.9-.82,1.74-1.7,2.6-2.55a5.67,5.67,0,0,1,.58-.52.57.57,0,0,1,.82.8,21.06,21.06,0,0,1-3.82,3.61,2.78,2.78,0,0,1-3.65-.75,2.92,2.92,0,0,1,0-3.69c1.3-1.4,2.66-2.75,4.06-4a2,2,0,0,1,2.82.1,2.09,2.09,0,0,1,.19,2.9c-1.18,1.3-2.45,2.53-3.73,3.74a1.22,1.22,0,0,1-1.74-.05,1.26,1.26,0,0,1-.25-1.73,23.16,23.16,0,0,1,3.16-3.18.46.46,0,0,1,.7.06.64.64,0,0,1-.1.93c-.68.71-1.39,1.39-2.08,2.09-.24.24-.46.49-.7.73Z"/><path class="cls-10" d="M269.75,140.81h.86c.35,0,.65.11.69.51a.54.54,0,0,1-.52.66c-.16,0-.38,0-.38.25s.19.27.36.31c.72.14,1.34.74,2.21.31.45-.22,1,.56.78,1.09a1.32,1.32,0,0,0,.07,1.15,4.51,4.51,0,1,1-8.23,0c.17-.38.34-.72.08-1.13a.67.67,0,0,1,.18-.87.69.69,0,0,1,.85-.22c.86.46,1.45-.33,2.19-.45.22,0,.25-.35-.06-.41s-.82-.22-.69-.77.61-.42,1-.44h.61ZM273,147a3.25,3.25,0,1,0-3.27,3.23A3.25,3.25,0,0,0,273,147Z"/><path class="cls-10" d="M268.71,95.17c-1.39,0-2.12-.5-2.34-1.53a37.35,37.35,0,0,1-.68-3.92,2,2,0,0,1,1.81-2.38q1.61-.33,3.24-.57a2.11,2.11,0,0,1,2.76,2c.14.68.26,1.36.36,2a3.32,3.32,0,0,1-2.66,3.93C270.27,94.92,269.33,95.05,268.71,95.17Zm1-3c-.05-1.49,0-1.43,1.36-1.53,1.81-.13,1.6-.12,1.18-2.09a.84.84,0,0,0-1-.7c-1.19.19-2.38.41-3.57.64a.92.92,0,0,0-.8,1.14c.2,1.16.41,2.33.64,3.48a1,1,0,0,0,1.21.83C269.64,93.87,269.75,93.69,269.7,92.22Z"/><path class="cls-10" d="M265.47,75.28a2.88,2.88,0,0,1,1.15-2.72c1.2-1.12,2.33-2.33,3.5-3.47a2.2,2.2,0,0,1,3.23-.15,2.14,2.14,0,0,1-.15,3.22c-1.29,1.32-2.63,2.59-3.9,3.92-1,1-2.25.66-3.42.72-.29,0-.4-.28-.41-.57S265.47,75.6,265.47,75.28Zm2.14.37a1.26,1.26,0,0,0,.78-.46l3.85-3.85c.41-.42.75-.89.22-1.42s-1-.33-1.52.12l-2.08,2.08L267,74a1.31,1.31,0,0,0-.28,1.29C266.76,75.7,267.12,75.61,267.61,75.65Z"/><path class="cls-10" d="M269.78,50h3c.39,0,.8,0,.89.5a2.31,2.31,0,0,1-.07,1.6c-.2.32-.42.06-.57-.19a1.81,1.81,0,0,0-2.18-.88.72.72,0,0,0-.57.77c0,1.5,0,3,0,4.5a1.26,1.26,0,0,0,.91,1.25c.25.08.51.19.46.53s-.39.37-.68.37c-.89,0-1.79,0-2.68,0-.27,0-.55,0-.61-.35s.19-.46.45-.54c.79-.24.92-.88.93-1.57,0-1.25,0-2.49,0-3.73,0-.48.09-1-.55-1.22a2,2,0,0,0-2.06.53,5.12,5.12,0,0,0-.22.47.32.32,0,0,1-.36.18c-.15,0-.21-.17-.25-.31-.39-1.26.08-1.91,1.42-1.92h2.68Z"/><path class="cls-10" d="M273.42,111.79a1.64,1.64,0,0,0-1.54-1.29c-1-.13-1.38-.88-.83-1.77.4-.64.79-1.28,1.17-1.93a1.21,1.21,0,0,0,.16-1.15c-.1-.25-.22-.5-.49-.57s-.44.22-.57.42c-.41.63-.82,1.26-1.21,1.9-.29.48-.52.45-.8,0-.37-.61-.76-1.22-1.16-1.82-.15-.22-.25-.6-.62-.48a.9.9,0,0,0-.54.73,1.32,1.32,0,0,0,.22,1l1.21,2a1,1,0,0,1-.8,1.69,2.93,2.93,0,0,0-.59.11,1.75,1.75,0,0,0-1.06,2,1.3,1.3,0,0,0,1.31,1.11,1.64,1.64,0,0,0,1.33-.78,12.22,12.22,0,0,0,.74-1.26c.27-.53.48-.49.73,0a6,6,0,0,0,1,1.53,1.39,1.39,0,0,0,2.37-1.39Zm-5.88,1a.73.73,0,1,1,.73-.73A.73.73,0,0,1,267.54,112.75Zm4.58,0a.73.73,0,1,1,.73-.73A.73.73,0,0,1,272.12,112.75Z"/><path class="cls-10" d="M270.91,148.33a1.92,1.92,0,0,1-.51-.08.45.45,0,0,1-.27-.55.38.38,0,0,1,.46-.33.69.69,0,0,0,.64,0,.91.91,0,0,0,.29-.51c0-.12,0-.21,0-.23s-.61.08-1,.29c-.69.9-1.89,1.63-2.67,1.3a1.16,1.16,0,0,1-.61-1.15,1.49,1.49,0,0,1,.43-1.16,1.57,1.57,0,0,1,1.45-.23.47.47,0,0,1,.27.55.38.38,0,0,1-.47.32c-.13,0-.58-.12-.78.08,0,0-.14.12-.14.44s.08.28.12.3c.36.16,1.3-.32,1.86-1.1l.11-.1c.19-.13,1.18-.75,1.79-.3a1.2,1.2,0,0,1,.4,1.11,1.87,1.87,0,0,1-.63,1.15A1.23,1.23,0,0,1,270.91,148.33Z"/><g id="zSUmWF"><path class="cls-10" d="M177.65,257.28c-.76,0-1.52,0-2.28,0a1.75,1.75,0,0,1-1.89-1.84c0-1.6,0-3.2,0-4.8a1.76,1.76,0,0,1,1.87-1.87c.58,0,1.17,0,1.75,0,.35,0,.64.18.64.58s-.29.55-.65.56-1,0-1.48,0-1,.28-1,.89c0,1.46,0,2.91,0,4.37a.83.83,0,0,0,.94.91h4.28c.65,0,.95-.35.95-1,0-.47,0-.93,0-1.4s.15-.71.6-.7.54.32.55.67a19.25,19.25,0,0,1,0,2,1.69,1.69,0,0,1-1.69,1.57c-.88,0-1.75,0-2.62,0Z"/><path class="cls-10" d="M159.47,257.28h-2.89a1.1,1.1,0,0,1-1.19-.71,2.68,2.68,0,0,1,.06-1.95.43.43,0,0,1,.53-.2.55.55,0,0,1,.45.58c-.1,1.09.58,1.13,1.39,1.11,1.25,0,2.51,0,3.76,0,.65,0,1.09-.14,1-.91,0-.41.1-.8.6-.78s.54.43.57.83c.1,1.66-.24,2-1.89,2h-2.44Z"/><path class="cls-10" d="M160.12,252.58c.4,0,.51-.32.72-.45a.56.56,0,0,1,.79,0,.52.52,0,0,1,0,.78c-.56.59-1.13,1.17-1.73,1.72-.31.29-.65.16-.93-.1-.44-.43-.88-.85-1.3-1.29s-.69-.66-.24-1.11.73-.07,1,.21a.45.45,0,0,0,.45.19c0-.9,0-1.82,0-2.74,0-.44,0-1,.58-1s.58.54.58,1C160.13,250.73,160.12,251.65,160.12,252.58Z"/><path class="cls-10" d="M179.81,248.81a.61.61,0,0,1,.59.71c0,.57.15.88.79.83.37,0,.73.11.74.55s-.37.63-.78.6c-.58,0-.77.24-.74.78,0,.38-.11.74-.55.75s-.63-.37-.61-.78c0-.58-.23-.77-.77-.75-.38,0-.74-.1-.75-.55s.37-.62.78-.6c.58,0,.77-.23.74-.78A.64.64,0,0,1,179.81,248.81Z"/></g></g></svg>
