<svg xmlns="http://www.w3.org/2000/svg" viewBox="0 0 1200 250"><defs><style>.cls-1{fill:#d4d2dd;}.cls-2{fill:#9b9b9b;}.cls-3{fill:#fff;stroke:#6b6b6d;stroke-miterlimit:10;stroke-width:4px;}.cls-4{font-size:18.62px;fill:#ff9207;font-family:Futura-Medium, Futura;}.cls-5{letter-spacing:0.01em;}.cls-6{letter-spacing:0.01em;}</style></defs><title>talebobler</title><g id="Layer_1" data-name="Layer 1"><circle class="cls-1" cx="30.34" cy="206.98" r="11.11"/><path class="cls-1" d="M48.83,152.87S28.74,75.32,102.61,56.36l109.25-.29c29.16,7.55,51.66,29.77,57.86,57.58,7.55,33.86-12.64,60-14.07,61.8-15.75,19.71-36.93,24.82-43.23,26.1l-109.81.85s-18.4-3.11-24.91-10.47a29.07,29.07,0,0,1-19.51,6.13c-2.83-.21-10.22-.74-15.3-6.42-6.94-7.75-4.18-19.09-3.3-22.72A34.05,34.05,0,0,1,48.83,152.87Z"/><circle class="cls-2" cx="99.89" cy="128.76" r="18.59"/></g><g id="Layer_4" data-name="Layer 4"><path class="cls-3" d="M951.11,229.49l68.73-43.29,3.12,25.12s25.78-18.94,27.34-17,10.15,15.84,10.15,15.84l10.94-15.07,16.79,22.8,4.3-30.53,13.67,8.89,1.17-10.82,19.91,4.63-3.9-17.78,21.48,4.26-11.72-20.1,37.49-2.71L1140.9,130,1171,117l-24.21-8.89L1162,88l-23.43-5,12.89-23.57s-21.87,6.18-24.61,5S1137,23.08,1137,23.08s-31.63,21.65-32.81,20.49-.39-11.21-.39-11.21l-18,15.85-5.08-32.86-18,30.54-12.89-22.81-7.42,17.78-15.23-18.55-5.47,25.9-15.62-12.76L1005,56.71,967.9,39.32,979.23,79.9l-18,.77L976.88,100l-25.77,12L982,130l-25.38,12.48,27.33,8.89-7.42,14.3,22.65-1.54Z"/><text class="cls-4" transform="translate(987.19 101.8)">Har du tænkt dig <tspan x="42.28" y="22.34">at dele </tspan><tspan x="17.37" y="44.68">d</tspan><tspan class="cls-5" x="28.54" y="44.68">e</tspan><tspan x="39" y="44.68">t</tspan><tspan class="cls-6" x="44.09" y="44.68">t</tspan><tspan x="49.35" y="44.68">e billede?</tspan></text></g><g id="Layer_3" data-name="Layer 3"><circle class="cls-1" cx="629.22" cy="206.86" r="11.11"/><path class="cls-1" d="M647.72,152.75s-20.1-77.55,53.77-96.52L810.74,56c29.16,7.54,51.66,29.76,57.87,57.57,7.55,33.87-12.64,60-14.07,61.81-15.76,19.7-36.94,24.82-43.23,26.1l-109.82.85s-18.4-3.12-24.9-10.48a29.12,29.12,0,0,1-19.52,6.14c-2.83-.21-10.22-.74-15.3-6.42-6.94-7.76-4.18-19.09-3.29-22.73A34,34,0,0,1,647.72,152.75Z"/><circle class="cls-2" cx="698.77" cy="128.64" r="18.59"/><circle class="cls-2" cx="814.34" cy="128.75" r="18.59"/><circle class="cls-2" cx="756.67" cy="128.57" r="18.59"/></g><g id="Layer_2" data-name="Layer 2"><circle class="cls-1" cx="329.63" cy="206.77" r="11.11"/><path class="cls-1" d="M348.12,152.65S328,75.1,401.9,56.14l109.25-.29c29.16,7.55,51.66,29.77,57.86,57.58,7.55,33.86-12.64,60-14.07,61.8-15.75,19.71-36.93,24.82-43.23,26.1l-109.81.85s-18.4-3.11-24.91-10.47a29,29,0,0,1-19.52,6.13c-2.83-.2-10.21-.74-15.29-6.42-6.94-7.75-4.18-19.08-3.3-22.72A34.05,34.05,0,0,1,348.12,152.65Z"/><circle class="cls-2" cx="399.18" cy="128.54" r="18.59"/><circle class="cls-2" cx="457.08" cy="128.47" r="18.59"/></g></svg>
