<svg id="Layer_1" data-name="Layer 1" xmlns="http://www.w3.org/2000/svg" viewBox="0 0 100 50"><defs><style>.cls-1{fill:#ff9207;}.cls-2{fill:#1f2532;}</style></defs><title>Artboard 1</title><path class="cls-1" d="M62.24,35.23H37.76c-.21,0-.39-.26-.39-.58s.18-.59.39-.59H62.24c.21,0,.39.26.39.59S62.45,35.23,62.24,35.23Z"/><path class="cls-2" d="M3.32,15.84l-.5.3a.82.82,0,0,0-.26-.32.59.59,0,0,0-.34-.08.64.64,0,0,0-.43.14.46.46,0,0,0-.16.36c0,.2.14.36.44.48l.4.16a1.78,1.78,0,0,1,.72.49,1.06,1.06,0,0,1,.23.71,1.22,1.22,0,0,1-.37.92,1.26,1.26,0,0,1-.93.37,1.25,1.25,0,0,1-.88-.31,1.52,1.52,0,0,1-.42-.88L1.44,18a1,1,0,0,0,.15.49.62.62,0,0,0,.55.27.66.66,0,0,0,.48-.2.67.67,0,0,0,.19-.48.78.78,0,0,0,0-.22.54.54,0,0,0-.1-.18.9.9,0,0,0-.18-.15,1.26,1.26,0,0,0-.26-.14l-.39-.17q-.84-.35-.84-1a1,1,0,0,1,.35-.77,1.27,1.27,0,0,1,.87-.31A1.22,1.22,0,0,1,3.32,15.84Z"/><path class="cls-2" d="M4.75,17.29v2H4.16v-2H3.91v-.55h.25V15.8h.59v.94h.46v.55Z"/><path class="cls-2" d="M5.52,15.67a.34.34,0,0,1,.12-.26.34.34,0,0,1,.27-.12.36.36,0,0,1,.27.12.33.33,0,0,1,.11.27.36.36,0,0,1-.11.27.39.39,0,0,1-.54,0A.38.38,0,0,1,5.52,15.67Zm.68,1.07V19.3H5.61V16.74Z"/><path class="cls-2" d="M7.55,14.86V19.3H7V14.86Z"/><path class="cls-2" d="M11.44,17.17l-.49.26c-.07-.15-.17-.23-.28-.23a.22.22,0,0,0-.14.05.2.2,0,0,0-.06.14c0,.1.11.2.34.29a2,2,0,0,1,.64.38.66.66,0,0,1,.16.46.83.83,0,0,1-.27.62,1,1,0,0,1-.65.23.94.94,0,0,1-.91-.63l.51-.23a.93.93,0,0,0,.16.23.35.35,0,0,0,.25.1q.3,0,.3-.27c0-.1-.07-.2-.23-.29l-.18-.09-.18-.09a1.11,1.11,0,0,1-.36-.25.61.61,0,0,1-.13-.41.71.71,0,0,1,.22-.55.8.8,0,0,1,.57-.22A.78.78,0,0,1,11.44,17.17Z"/><path class="cls-2" d="M12.73,20.69h-.59v-4h.59V17a1.07,1.07,0,0,1,.8-.35,1.11,1.11,0,0,1,.87.39,1.38,1.38,0,0,1,.34,1,1.36,1.36,0,0,1-.34,1,1.1,1.1,0,0,1-.86.38,1.12,1.12,0,0,1-.81-.36ZM14.14,18a.92.92,0,0,0-.2-.6.7.7,0,0,0-1,0,.88.88,0,0,0-.2.59.92.92,0,0,0,.2.6.67.67,0,0,0,.53.22.61.61,0,0,0,.5-.23A.81.81,0,0,0,14.14,18Z"/><path class="cls-2" d="M17.41,16.92l.41-.4.27.28-.4.39A1.36,1.36,0,0,1,18,18a1.27,1.27,0,0,1-.4.95,1.3,1.3,0,0,1-1,.39,1.36,1.36,0,0,1-.84-.27l-.39.38-.27-.27.38-.39a1.41,1.41,0,0,1-.25-.81,1.3,1.3,0,0,1,.39-1,1.34,1.34,0,0,1,1-.39A1.38,1.38,0,0,1,17.41,16.92Zm-.42.4a.87.87,0,0,0-.37-.08.72.72,0,0,0-.56.22.77.77,0,0,0-.21.57.92.92,0,0,0,.08.38Zm.28.27L16.2,18.7a.87.87,0,0,0,.41.11.73.73,0,0,0,.56-.22.8.8,0,0,0,.2-.56A1,1,0,0,0,17.27,17.59Z"/><path class="cls-2" d="M18.6,16.74h.6V17a1,1,0,0,1,.29-.24.67.67,0,0,1,.3-.06,1,1,0,0,1,.49.15l-.27.54a.56.56,0,0,0-.33-.12c-.32,0-.48.24-.48.73V19.3h-.6Z"/><path class="cls-2" d="M23.09,19.24a3.11,3.11,0,0,1,0,.32q0,.14,0,.24a1,1,0,0,1-.25.5,1.21,1.21,0,0,1-.95.4,1.34,1.34,0,0,1-.85-.28,1.18,1.18,0,0,1-.39-.79h.59a.6.6,0,0,0,.12.29.63.63,0,0,0,.53.24c.44,0,.65-.26.65-.79V19a1.13,1.13,0,0,1-1.67,0,1.4,1.4,0,0,1-.33-1,1.47,1.47,0,0,1,.31-1,1.1,1.1,0,0,1,.89-.41,1,1,0,0,1,.8.36v-.29h.59ZM22.53,18a.88.88,0,0,0-.2-.59.68.68,0,0,0-.52-.23.62.62,0,0,0-.53.25.89.89,0,0,0-.18.58.88.88,0,0,0,.18.57.64.64,0,0,0,.53.24.67.67,0,0,0,.54-.24A.89.89,0,0,0,22.53,18Z"/><path class="cls-2" d="M25.33,17.17l-.49.26c-.08-.15-.17-.23-.29-.23a.17.17,0,0,0-.19.19c0,.1.11.2.34.29a2,2,0,0,1,.63.38.61.61,0,0,1,.16.46.83.83,0,0,1-.27.62,1,1,0,0,1-.64.23.93.93,0,0,1-.91-.63l.5-.23a1.32,1.32,0,0,0,.16.23.35.35,0,0,0,.26.1q.3,0,.3-.27c0-.1-.08-.2-.23-.29l-.18-.09-.18-.09a1.11,1.11,0,0,1-.36-.25.62.62,0,0,1-.14-.41.72.72,0,0,1,.23-.55.8.8,0,0,1,.57-.22A.78.78,0,0,1,25.33,17.17Z"/><path class="cls-2" d="M26,16.74h.59V17a1.72,1.72,0,0,1,.29-.24.73.73,0,0,1,.32-.06.78.78,0,0,1,.69.38.87.87,0,0,1,.75-.38q.87,0,.87,1V19.3h-.6V17.88a1.07,1.07,0,0,0-.09-.52.31.31,0,0,0-.3-.16.38.38,0,0,0-.35.18,1.15,1.15,0,0,0-.12.6V19.3h-.59V17.88c0-.45-.13-.68-.39-.68a.4.4,0,0,0-.37.19,1.23,1.23,0,0,0-.11.59V19.3H26Z"/><path class="cls-2" d="M32.17,16.74h.6V19.3h-.6V19a1.1,1.1,0,0,1-.78.34,1.14,1.14,0,0,1-.88-.38,1.43,1.43,0,0,1-.35-1,1.4,1.4,0,0,1,.35-1,1.12,1.12,0,0,1,.86-.38,1.06,1.06,0,0,1,.8.37ZM30.77,18a.84.84,0,0,0,.2.6.62.62,0,0,0,.51.23.69.69,0,0,0,.53-.22.92.92,0,0,0,.2-.6.9.9,0,0,0-.2-.59.69.69,0,0,0-.53-.23.68.68,0,0,0-.51.23A.89.89,0,0,0,30.77,18Zm.2-2.25a.54.54,0,0,1,.17-.39.52.52,0,0,1,.4-.17.53.53,0,0,1,.41.17.54.54,0,0,1,.16.4.57.57,0,0,1-.16.41.56.56,0,0,1-.41.16.54.54,0,0,1-.4-.16A.59.59,0,0,1,31,15.76Zm.31,0a.27.27,0,0,0,.08.19.24.24,0,0,0,.18.07.25.25,0,0,0,.19-.07.26.26,0,0,0,.07-.19.24.24,0,0,0-.07-.18.26.26,0,0,0-.19-.08l-.1,0a.35.35,0,0,0-.14.14A.3.3,0,0,0,31.28,15.77Z"/><path class="cls-2" d="M34.1,14.86V19.3h-.59V14.86Z"/><path class="cls-2" d="M36.39,18a1.29,1.29,0,0,1,.4-.94,1.4,1.4,0,0,1,1.94,0,1.31,1.31,0,0,1,.4,1,1.34,1.34,0,0,1-.4,1,1.38,1.38,0,0,1-1,.38,1.31,1.31,0,0,1-1-.39A1.33,1.33,0,0,1,36.39,18ZM37,18a.9.9,0,0,0,.2.61.73.73,0,0,0,.56.22.71.71,0,0,0,.55-.22.84.84,0,0,0,.21-.6.82.82,0,0,0-.21-.59.77.77,0,0,0-1.1,0A.81.81,0,0,0,37,18Z"/><path class="cls-2" d="M39.75,16.74h.59V17a2.24,2.24,0,0,1,.29-.24.81.81,0,0,1,.33-.06.75.75,0,0,1,.68.38.88.88,0,0,1,.76-.38c.57,0,.86.35.86,1V19.3h-.59V17.88a1.07,1.07,0,0,0-.09-.52.31.31,0,0,0-.3-.16.39.39,0,0,0-.36.18,1.28,1.28,0,0,0-.11.6V19.3h-.59V17.88c0-.45-.14-.68-.4-.68a.37.37,0,0,0-.36.19,1.11,1.11,0,0,0-.12.59V19.3h-.59Z"/><path class="cls-2" d="M46.61,14.83v2.7l1-1H49l-1.38,1.27,1.47,1.49H47.68l-1.07-1.13V19.3h-1V14.83Z"/><path class="cls-2" d="M49.39,16.54h1V17a1.17,1.17,0,0,1,.39-.38,1,1,0,0,1,.52-.13h.19v.93a1,1,0,0,0-.42-.1.66.66,0,0,0-.51.2.94.94,0,0,0-.17.59V19.3h-1Z"/><path class="cls-2" d="M51.81,17.89a1.39,1.39,0,0,1,.12-.57,1.31,1.31,0,0,1,.35-.46,1.5,1.5,0,0,1,.52-.31,1.81,1.81,0,0,1,.67-.12,2.08,2.08,0,0,1,.66.11,1.79,1.79,0,0,1,.52.31,1.35,1.35,0,0,1,.35.47,1.56,1.56,0,0,1,0,1.2,1.48,1.48,0,0,1-.35.47,1.53,1.53,0,0,1-.53.3,1.85,1.85,0,0,1-.67.11,1.76,1.76,0,0,1-.66-.11,1.58,1.58,0,0,1-.52-.3,1.61,1.61,0,0,1-.34-.48A1.52,1.52,0,0,1,51.81,17.89Zm1,0a.55.55,0,0,0,0,.26.69.69,0,0,0,.13.2.72.72,0,0,0,.2.14.69.69,0,0,0,.25,0,.67.67,0,0,0,.24,0,.72.72,0,0,0,.2-.14.53.53,0,0,0,.13-.2.55.55,0,0,0,0-.5.63.63,0,0,0-.13-.2.64.64,0,0,0-.89,0,.86.86,0,0,0-.13.2A.52.52,0,0,0,52.84,17.9Z"/><path class="cls-2" d="M56.66,20.68h-1V16.54h1v.3a1,1,0,0,1,.85-.39,1.39,1.39,0,0,1,1,.43,1.35,1.35,0,0,1,.3.47,1.57,1.57,0,0,1,.1.58,1.45,1.45,0,0,1-.39,1,1.35,1.35,0,0,1-.44.31,1.26,1.26,0,0,1-.55.11,1.12,1.12,0,0,1-.86-.35Zm1.23-2.75a.7.7,0,0,0,0-.25.53.53,0,0,0-.13-.2.9.9,0,0,0-.2-.14.65.65,0,0,0-.5,0,.64.64,0,0,0-.19.13.77.77,0,0,0-.14.21.6.6,0,0,0,0,.48.69.69,0,0,0,.13.2.74.74,0,0,0,.21.13.47.47,0,0,0,.24.05.61.61,0,0,0,.24,0,.72.72,0,0,0,.2-.14.53.53,0,0,0,.13-.2A.46.46,0,0,0,57.89,17.93Z"/><path class="cls-2" d="M59.76,18.27h.91l-1,1.78h-.62Z"/><path class="cls-2" d="M65,17.25a1.08,1.08,0,0,0-.53-.14.48.48,0,0,0-.22.05.19.19,0,0,0-.08.15s0,.06,0,.07a.17.17,0,0,0,.06.06.38.38,0,0,0,.14,0l.23.05a1.13,1.13,0,0,1,.6.29.72.72,0,0,1,.2.53,1,1,0,0,1-.09.44.94.94,0,0,1-.27.32,1.38,1.38,0,0,1-.42.21,1.79,1.79,0,0,1-.53.07,2.18,2.18,0,0,1-1.1-.32l.35-.69a1.36,1.36,0,0,0,.78.28.38.38,0,0,0,.22-.06.15.15,0,0,0,.08-.15.19.19,0,0,0,0-.08.13.13,0,0,0-.06-.07.27.27,0,0,0-.12,0,1,1,0,0,0-.22-.05,1.32,1.32,0,0,1-.63-.28.66.66,0,0,1-.18-.49,1.08,1.08,0,0,1,.08-.42.87.87,0,0,1,.25-.32,1.43,1.43,0,0,1,.39-.2,2,2,0,0,1,.51-.07,2.32,2.32,0,0,1,.89.18Z"/><path class="cls-2" d="M66.74,18.08c0,.42.19.63.59.63a.52.52,0,0,0,.48-.26h.94a1.31,1.31,0,0,1-1.43.95,1.91,1.91,0,0,1-.64-.1,1.48,1.48,0,0,1-.5-.3,1.56,1.56,0,0,1-.32-.47,1.64,1.64,0,0,1-.11-.6,1.71,1.71,0,0,1,.11-.62,1.17,1.17,0,0,1,.31-.47,1.31,1.31,0,0,1,.48-.3,1.89,1.89,0,0,1,1.27,0,1.35,1.35,0,0,1,.47.3,1.44,1.44,0,0,1,.3.49,2.16,2.16,0,0,1,.1.65v.1Zm1.14-.56a.56.56,0,0,0-.2-.33.57.57,0,0,0-.37-.13.57.57,0,0,0-.37.12.59.59,0,0,0-.18.34Z"/><path class="cls-2" d="M70.24,17.8l-1.12-1.26h1.27l.48.57.48-.57h1.27L71.47,17.8l1.39,1.5H71.57l-.71-.82-.71.82H68.86Z"/><path class="cls-2" d="M73.49,18.27h.92l-1,1.78h-.63Z"/><path class="cls-2" d="M77.91,17.35V19.3h-1V17.35h-.35v-.81h.35v-.42a1.67,1.67,0,0,1,.07-.55.9.9,0,0,1,.17-.32,1.12,1.12,0,0,1,.28-.25,1.35,1.35,0,0,1,.34-.17,1.13,1.13,0,0,1,.36-.06.85.85,0,0,1,.23,0l.21.07v.85l-.18-.07a.47.47,0,0,0-.17,0,.32.32,0,0,0-.13,0,.23.23,0,0,0-.11.07.29.29,0,0,0-.07.17,1.32,1.32,0,0,0,0,.3v.35h.68v.81Z"/><path class="cls-2" d="M78.7,19.08l.41-.31a1.61,1.61,0,0,1-.26-.87,1.55,1.55,0,0,1,.11-.56,1.26,1.26,0,0,1,.33-.47,1.63,1.63,0,0,1,.53-.32,2,2,0,0,1,.71-.12,1.94,1.94,0,0,1,1.07.32l.45-.36.29.36-.41.35a1.34,1.34,0,0,1,.24.76,1.57,1.57,0,0,1-.12.63,1.25,1.25,0,0,1-.33.49,1.41,1.41,0,0,1-.52.31,2.25,2.25,0,0,1-.71.11,1.62,1.62,0,0,1-1-.32l-.45.35Zm2.17-1.69a.44.44,0,0,0-.17-.08.47.47,0,0,0-.17,0,.74.74,0,0,0-.25,0,.57.57,0,0,0-.21.13.75.75,0,0,0-.15.2.6.6,0,0,0,0,.24.83.83,0,0,0,.06.27Zm-.69,1.05a.51.51,0,0,0,.32.1.58.58,0,0,0,.26-.05.86.86,0,0,0,.2-.13.72.72,0,0,0,.14-.2.6.6,0,0,0,.05-.24.8.8,0,0,0-.05-.23Z"/><path class="cls-2" d="M83.7,14.83V19.3h-1V14.83Z"/><path class="cls-2" d="M85.25,18.08c0,.42.19.63.59.63a.52.52,0,0,0,.48-.26h.94a1.31,1.31,0,0,1-1.43.95,1.91,1.91,0,0,1-.64-.1,1.48,1.48,0,0,1-.5-.3,1.56,1.56,0,0,1-.32-.47,1.64,1.64,0,0,1-.11-.6,1.71,1.71,0,0,1,.11-.62,1.17,1.17,0,0,1,.31-.47,1.31,1.31,0,0,1,.48-.3,1.83,1.83,0,0,1,.64-.11,1.71,1.71,0,0,1,.62.11,1.31,1.31,0,0,1,.48.3,1.28,1.28,0,0,1,.29.49,1.88,1.88,0,0,1,.11.65v.1Zm1.14-.56a.62.62,0,0,0-.2-.33.57.57,0,0,0-.37-.13.57.57,0,0,0-.37.12.59.59,0,0,0-.18.34Z"/><path class="cls-2" d="M88.83,14.83V19.3h-1V14.83Z"/><path class="cls-2" d="M91.32,17.25a1,1,0,0,0-.52-.14.45.45,0,0,0-.22.05.17.17,0,0,0-.08.15s0,.06,0,.07a.17.17,0,0,0,.06.06.32.32,0,0,0,.13,0l.24.05a1.13,1.13,0,0,1,.6.29.76.76,0,0,1,.2.53.92.92,0,0,1-.1.44.76.76,0,0,1-.27.32,1.22,1.22,0,0,1-.41.21,1.81,1.81,0,0,1-.54.07,2.18,2.18,0,0,1-1.1-.32l.36-.69a1.35,1.35,0,0,0,.77.28.36.36,0,0,0,.22-.06.16.16,0,0,0,.09-.15s0-.06,0-.08a.13.13,0,0,0-.06-.07.32.32,0,0,0-.13,0,.9.9,0,0,0-.22-.05,1.32,1.32,0,0,1-.63-.28.66.66,0,0,1-.18-.49.93.93,0,0,1,.09-.42.85.85,0,0,1,.24-.32,1.36,1.36,0,0,1,.4-.2,2,2,0,0,1,.5-.07,2.25,2.25,0,0,1,.89.18Z"/><path class="cls-2" d="M93.11,18.08c0,.42.2.63.59.63a.51.51,0,0,0,.48-.26h.94a1.3,1.3,0,0,1-1.42.95,1.83,1.83,0,0,1-.64-.1,1.39,1.39,0,0,1-.5-.3,1.27,1.27,0,0,1-.32-.47,1.46,1.46,0,0,1-.11-.6,1.72,1.72,0,0,1,.1-.62,1.43,1.43,0,0,1,.31-.47,1.31,1.31,0,0,1,.48-.3,1.89,1.89,0,0,1,1.27,0,1.27,1.27,0,0,1,.47.3,1.44,1.44,0,0,1,.3.49,1.89,1.89,0,0,1,.1.65v.1Zm1.14-.56a.58.58,0,0,0-.56-.46.55.55,0,0,0-.37.12.5.5,0,0,0-.18.34Z"/><path class="cls-2" d="M95.72,16.54h1V17a1.15,1.15,0,0,1,.38-.38,1,1,0,0,1,.53-.13h.19v.93a1,1,0,0,0-.42-.1.63.63,0,0,0-.51.2.94.94,0,0,0-.17.59V19.3h-1Z"/><path class="cls-2" d="M98.26,18.27h.92l-1,1.78h-.63Z"/><path class="cls-2" d="M13.1,24a1.08,1.08,0,0,0-.53-.14.48.48,0,0,0-.22.05.19.19,0,0,0-.08.15.15.15,0,0,0,0,.07l.06.06a.38.38,0,0,0,.14,0l.23.05a1.13,1.13,0,0,1,.6.29.72.72,0,0,1,.2.53,1,1,0,0,1-.09.44.94.94,0,0,1-.27.32,1.38,1.38,0,0,1-.42.21,1.79,1.79,0,0,1-.53.07,2.24,2.24,0,0,1-1.11-.32l.36-.69a1.36,1.36,0,0,0,.78.28.38.38,0,0,0,.22-.06.16.16,0,0,0,.08-.15.19.19,0,0,0,0-.08.13.13,0,0,0-.06-.07.33.33,0,0,0-.12-.05,1,1,0,0,0-.22,0,1.32,1.32,0,0,1-.63-.28.63.63,0,0,1-.19-.49.93.93,0,0,1,.09-.42.87.87,0,0,1,.25-.32,1.43,1.43,0,0,1,.39-.2,2,2,0,0,1,.51-.07,2.32,2.32,0,0,1,.89.18Z"/><path class="cls-2" d="M14.88,24.81q0,.63.6.63a.52.52,0,0,0,.48-.26h.94a1.31,1.31,0,0,1-1.43.95,1.87,1.87,0,0,1-.64-.1,1.48,1.48,0,0,1-.5-.3,1.4,1.4,0,0,1-.32-.47,1.64,1.64,0,0,1-.11-.6A1.71,1.71,0,0,1,14,24a1.27,1.27,0,0,1,.3-.47,1.44,1.44,0,0,1,.49-.3,1.77,1.77,0,0,1,.63-.11,1.73,1.73,0,0,1,.63.11,1.31,1.31,0,0,1,.48.3,1.28,1.28,0,0,1,.29.49,1.88,1.88,0,0,1,.11.65v.1ZM16,24.25a.62.62,0,0,0-.2-.33.59.59,0,0,0-.37-.13.57.57,0,0,0-.37.12.59.59,0,0,0-.18.34Z"/><path class="cls-2" d="M18.47,21.56v2.7l1-1h1.33l-1.38,1.27L20.9,26H19.54L18.47,24.9V26h-1V21.56Z"/><path class="cls-2" d="M23.15,24a1.08,1.08,0,0,0-.53-.14.48.48,0,0,0-.22.05.19.19,0,0,0-.08.15.15.15,0,0,0,0,.07l.06.06a.38.38,0,0,0,.14,0l.23.05a1.13,1.13,0,0,1,.6.29.72.72,0,0,1,.2.53,1,1,0,0,1-.09.44.94.94,0,0,1-.27.32,1.38,1.38,0,0,1-.42.21,1.79,1.79,0,0,1-.53.07,2.18,2.18,0,0,1-1.1-.32l.35-.69a1.36,1.36,0,0,0,.78.28.38.38,0,0,0,.22-.06.16.16,0,0,0,.08-.15.19.19,0,0,0,0-.08.13.13,0,0,0-.06-.07.33.33,0,0,0-.12-.05,1,1,0,0,0-.22,0,1.32,1.32,0,0,1-.63-.28.66.66,0,0,1-.18-.49.93.93,0,0,1,.08-.42.87.87,0,0,1,.25-.32,1.43,1.43,0,0,1,.39-.2,2,2,0,0,1,.51-.07,2.32,2.32,0,0,1,.89.18Z"/><path class="cls-2" d="M25,23.27v1.55a.45.45,0,0,0,.5.51c.33,0,.49-.17.49-.51V23.27h1V25a1,1,0,0,1-.37.84,1.79,1.79,0,0,1-1.1.28,1.77,1.77,0,0,1-1.1-.28,1,1,0,0,1-.37-.84V23.27Z"/><path class="cls-2" d="M29.79,23.27h1V26h-1v-.31a1,1,0,0,1-.84.39,1.3,1.3,0,0,1-.56-.11,1.22,1.22,0,0,1-.44-.31,1.44,1.44,0,0,1-.29-.46,1.63,1.63,0,0,1-.11-.59,1.47,1.47,0,0,1,.11-.56,1.31,1.31,0,0,1,.28-.47,1.25,1.25,0,0,1,.44-.31,1.28,1.28,0,0,1,.56-.12,1.11,1.11,0,0,1,.85.36Zm-1.22,1.37a.69.69,0,0,0,0,.25.72.72,0,0,0,.14.2.67.67,0,0,0,.19.14.73.73,0,0,0,.25,0,.69.69,0,0,0,.25,0,.72.72,0,0,0,.2-.14.69.69,0,0,0,.13-.2.6.6,0,0,0,0-.48.74.74,0,0,0-.13-.21.66.66,0,0,0-.45-.18.74.74,0,0,0-.25.05.64.64,0,0,0-.19.13.9.9,0,0,0-.14.2A.61.61,0,0,0,28.57,24.64Z"/><path class="cls-2" d="M32.41,21.56V26h-1V21.56Z"/><path class="cls-2" d="M33,22.21a.54.54,0,0,1,.05-.22.45.45,0,0,1,.11-.17.57.57,0,0,1,.18-.12.49.49,0,0,1,.21,0,.46.46,0,0,1,.21,0,.57.57,0,0,1,.18.12.66.66,0,0,1,.12.17.54.54,0,0,1,0,.22.5.5,0,0,1-.16.38.57.57,0,0,1-.18.12.46.46,0,0,1-.21.05.5.5,0,0,1-.21-.05.57.57,0,0,1-.18-.12.39.39,0,0,1-.11-.17A.54.54,0,0,1,33,22.21Zm1,1.06V26h-1V23.27Z"/><path class="cls-2" d="M35.81,24.08v2h-1v-2h-.32v-.81h.32v-.83h1v.83h.55v.81Z"/><path class="cls-2" d="M37.65,24.81c0,.42.2.63.59.63a.5.5,0,0,0,.48-.26h1a1.31,1.31,0,0,1-1.43.95,1.87,1.87,0,0,1-.64-.1,1.48,1.48,0,0,1-.5-.3,1.4,1.4,0,0,1-.32-.47,1.64,1.64,0,0,1-.11-.6,1.52,1.52,0,0,1,.11-.62,1.27,1.27,0,0,1,.3-.47,1.39,1.39,0,0,1,.48-.3,1.83,1.83,0,0,1,.64-.11,1.73,1.73,0,0,1,.63.11,1.31,1.31,0,0,1,.48.3,1.59,1.59,0,0,1,.29.49,1.89,1.89,0,0,1,.1.65v.1Zm1.14-.56a.52.52,0,0,0-.2-.33.6.6,0,0,0-.73,0,.5.5,0,0,0-.18.34Z"/><path class="cls-2" d="M41.38,24.08v2h-1v-2h-.32v-.81h.32v-.83h1v.83h.56v.81Z"/><path class="cls-2" d="M46.52,24.89H44.68a.79.79,0,0,0,.21.5.7.7,0,0,0,.83.08,1.57,1.57,0,0,0,.32-.39l.5.28a3.33,3.33,0,0,1-.24.34,1.49,1.49,0,0,1-.28.23,1.13,1.13,0,0,1-.32.13,1.45,1.45,0,0,1-.37,0,1.19,1.19,0,0,1-.92-.37,1.37,1.37,0,0,1-.35-1,1.44,1.44,0,0,1,.34-1,1.16,1.16,0,0,1,.9-.37,1.14,1.14,0,0,1,.89.36,1.41,1.41,0,0,1,.33,1Zm-.61-.49a.57.57,0,0,0-.6-.47.64.64,0,0,0-.2,0,1,1,0,0,0-.17.1.47.47,0,0,0-.13.15.56.56,0,0,0-.09.19Z"/><path class="cls-2" d="M47.75,21.59V26h-.59V21.59Z"/><path class="cls-2" d="M49.1,21.59V26h-.6V21.59Z"/><path class="cls-2" d="M52.18,24.89H50.34a.79.79,0,0,0,.21.5.7.7,0,0,0,.83.08,1.57,1.57,0,0,0,.32-.39l.5.28a3.33,3.33,0,0,1-.24.34,1.49,1.49,0,0,1-.28.23,1.13,1.13,0,0,1-.32.13,1.45,1.45,0,0,1-.37,0,1.19,1.19,0,0,1-.92-.37,1.37,1.37,0,0,1-.35-1,1.44,1.44,0,0,1,.34-1,1.16,1.16,0,0,1,.9-.37,1.14,1.14,0,0,1,.89.36,1.41,1.41,0,0,1,.33,1Zm-.61-.49a.57.57,0,0,0-.6-.47.64.64,0,0,0-.2,0,1,1,0,0,0-.17.1.47.47,0,0,0-.13.15.56.56,0,0,0-.09.19Z"/><path class="cls-2" d="M52.82,23.47h.59v.23a1.1,1.1,0,0,1,.29-.24A.75.75,0,0,1,54,23.4a1,1,0,0,1,.49.15l-.27.54A.56.56,0,0,0,53.9,24c-.32,0-.49.24-.49.73V26h-.59Z"/><path class="cls-2" d="M57.43,27.41h-1V23.27h1v.3a1,1,0,0,1,.85-.39,1.39,1.39,0,0,1,1,.43,1.49,1.49,0,0,1,.29.47,1.56,1.56,0,0,1,0,1.15,1.38,1.38,0,0,1-.29.46,1.33,1.33,0,0,1-1,.42,1.14,1.14,0,0,1-.86-.35Zm1.23-2.75a.7.7,0,0,0,0-.25.53.53,0,0,0-.13-.2.72.72,0,0,0-.2-.14A.7.7,0,0,0,58,24a.6.6,0,0,0-.24.05.69.69,0,0,0-.2.13.74.74,0,0,0-.13.21.47.47,0,0,0-.05.24.61.61,0,0,0,0,.24.72.72,0,0,0,.14.2.69.69,0,0,0,.2.13.53.53,0,0,0,.25.05.51.51,0,0,0,.43-.18.72.72,0,0,0,.14-.2A.59.59,0,0,0,58.66,24.66Z"/><path class="cls-2" d="M60.23,23.27h1v.45a1.06,1.06,0,0,1,.38-.38,1,1,0,0,1,.53-.13h.18v.93a.82.82,0,0,0-.42-.1.63.63,0,0,0-.5.2.88.88,0,0,0-.17.59V26h-1Z"/><path class="cls-2" d="M65.4,24.81a.64.64,0,0,0,.17.45.59.59,0,0,0,.46.18.43.43,0,0,0,.44-.26h1a1.25,1.25,0,0,1-.5.69,1.61,1.61,0,0,1-.93.25,1.09,1.09,0,0,1-1.09-.54,1.39,1.39,0,0,1-1.13.52,1.65,1.65,0,0,1-.46-.06,1,1,0,0,1-.36-.18.72.72,0,0,1-.24-.28.86.86,0,0,1-.08-.36.92.92,0,0,1,.08-.38.82.82,0,0,1,.23-.29,1,1,0,0,1,.36-.18,1.78,1.78,0,0,1,.47-.06,1.92,1.92,0,0,1,.72.14v-.07c0-.33-.23-.5-.67-.5a2.63,2.63,0,0,0-.76.16V23.3a2.73,2.73,0,0,1,.81-.13,1.37,1.37,0,0,1,.62.12,1,1,0,0,1,.41.37,1.19,1.19,0,0,1,1-.49,1.46,1.46,0,0,1,1.13.42,1.76,1.76,0,0,1,.38,1.22Zm-1.82.34a.26.26,0,0,0,.12.22.51.51,0,0,0,.32.09.64.64,0,0,0,.34-.09.23.23,0,0,0,0-.43.69.69,0,0,0-.36-.09.57.57,0,0,0-.31.08A.27.27,0,0,0,63.58,25.15Zm3-.91a.54.54,0,0,0-.56-.45.55.55,0,0,0-.56.45Z"/><path class="cls-2" d="M68.65,23.27l.66,1.41L70,23.27h1.08L69.63,26H69l-1.43-2.76Z"/><path class="cls-2" d="M72.15,24.81c0,.42.2.63.59.63a.5.5,0,0,0,.48-.26h1a1.32,1.32,0,0,1-1.43.95,1.87,1.87,0,0,1-.64-.1,1.39,1.39,0,0,1-.5-.3,1.27,1.27,0,0,1-.32-.47,1.46,1.46,0,0,1-.11-.6,1.72,1.72,0,0,1,.1-.62,1.43,1.43,0,0,1,.31-.47,1.31,1.31,0,0,1,.48-.3,1.89,1.89,0,0,1,1.27,0,1.19,1.19,0,0,1,.47.3,1.44,1.44,0,0,1,.3.49,1.89,1.89,0,0,1,.1.65v.1Zm1.14-.56a.58.58,0,0,0-.56-.46.55.55,0,0,0-.37.12.5.5,0,0,0-.18.34Z"/><path class="cls-2" d="M74.76,23.27h1v.35a1.11,1.11,0,0,1,.41-.33,1.32,1.32,0,0,1,.47-.08,1.24,1.24,0,0,1,.5.09,1,1,0,0,1,.36.27.92.92,0,0,1,.16.31,1.61,1.61,0,0,1,0,.39V26h-1v-1.4a1.55,1.55,0,0,0,0-.33.43.43,0,0,0-.11-.2.42.42,0,0,0-.14-.09.57.57,0,0,0-.18,0,.49.49,0,0,0-.38.15.66.66,0,0,0-.13.42V26h-1Z"/><path class="cls-2" d="M79.42,24.08v2h-1v-2h-.33v-.81h.33v-.83h1v.83H80v.81Z"/><path class="cls-2" d="M80.35,22.21a.54.54,0,0,1,0-.22.61.61,0,0,1,.29-.29.52.52,0,0,1,.21,0,.54.54,0,0,1,.22,0,.61.61,0,0,1,.29.29.54.54,0,0,1,0,.22.5.5,0,0,1-.16.38.66.66,0,0,1-.17.12.54.54,0,0,1-.22.05.54.54,0,0,1-.21-.05.66.66,0,0,1-.17-.12.5.5,0,0,1-.16-.38Zm1,1.06V26h-1V23.27Z"/><path class="cls-2" d="M81.94,24.62a1.4,1.4,0,0,1,.13-.57,1.41,1.41,0,0,1,.34-.46,1.65,1.65,0,0,1,.53-.31,1.76,1.76,0,0,1,.66-.12,2,2,0,0,1,.66.11,1.72,1.72,0,0,1,.53.31,1.48,1.48,0,0,1,.35.47,1.46,1.46,0,0,1,.12.6,1.32,1.32,0,0,1-.13.6,1.45,1.45,0,0,1-.34.47,1.62,1.62,0,0,1-.53.3,2.09,2.09,0,0,1-.67.11,2,2,0,0,1-.66-.11,1.58,1.58,0,0,1-.52-.3,1.45,1.45,0,0,1-.34-.48A1.52,1.52,0,0,1,81.94,24.62Zm1,0a.71.71,0,0,0,0,.26.72.72,0,0,0,.14.2.6.6,0,0,0,.2.14.64.64,0,0,0,.24,0,.69.69,0,0,0,.25,0,.9.9,0,0,0,.2-.14.69.69,0,0,0,.13-.2.65.65,0,0,0,0-.5.57.57,0,0,0-.33-.33.7.7,0,0,0-.25,0,.64.64,0,0,0-.24,0,.58.58,0,0,0-.2.13.9.9,0,0,0-.14.2A.69.69,0,0,0,83,24.63Z"/><path class="cls-2" d="M85.82,23.27h1v.35a1.08,1.08,0,0,1,.4-.33,1.42,1.42,0,0,1,.48-.08,1.28,1.28,0,0,1,.5.09,1,1,0,0,1,.35.27.77.77,0,0,1,.16.31,1.61,1.61,0,0,1,0,.39V26h-1v-1.4a1.55,1.55,0,0,0,0-.33.43.43,0,0,0-.11-.2.42.42,0,0,0-.14-.09.47.47,0,0,0-.17,0,.48.48,0,0,0-.38.15.6.6,0,0,0-.13.42V26h-1Z"/><path class="cls-2" d="M90.51,25.73a.57.57,0,0,0,.11.16.4.4,0,0,0,.15.1.47.47,0,0,0,.38,0,.42.42,0,0,0,.26-.26.47.47,0,0,0,0-.38.4.4,0,0,0-.1-.15.57.57,0,0,0-.16-.11.47.47,0,0,0-.38,0,.61.61,0,0,0-.26.26.47.47,0,0,0,0,.38m1.43,0a.86.86,0,0,0,.1.16.54.54,0,0,0,.16.1.47.47,0,0,0,.38,0,.42.42,0,0,0,.26-.26.47.47,0,0,0,0-.38.4.4,0,0,0-.1-.15.57.57,0,0,0-.16-.11.47.47,0,0,0-.38,0,.57.57,0,0,0-.16.11.56.56,0,0,0-.1.15.47.47,0,0,0,0,.38m1.43,0a.42.42,0,0,0,.26.26A.47.47,0,0,0,94,26a.54.54,0,0,0,.16-.1.86.86,0,0,0,.1-.16.47.47,0,0,0,0-.38.56.56,0,0,0-.1-.15.57.57,0,0,0-.16-.11.47.47,0,0,0-.38,0,.57.57,0,0,0-.16.11.4.4,0,0,0-.1.15.47.47,0,0,0,0,.38"/></svg>
